<?xml version="1.0" encoding="UTF-8" standalone="no"?>
<svg
   xmlns:dc="http://purl.org/dc/elements/1.1/"
   xmlns:cc="http://creativecommons.org/ns#"
   xmlns:rdf="http://www.w3.org/1999/02/22-rdf-syntax-ns#"
   xmlns:svg="http://www.w3.org/2000/svg"
   xmlns="http://www.w3.org/2000/svg"
   viewBox="0 0 386.22664 386.22798"
   height="386.228"
   width="386.22665"
   xml:space="preserve"
   id="svg10"
   version="1.1"><metadata
     id="metadata16"><rdf:RDF><cc:Work
         rdf:about=""><dc:format>image/svg+xml</dc:format><dc:type
           rdf:resource="http://purl.org/dc/dcmitype/StillImage" /><dc:title></dc:title></cc:Work></rdf:RDF></metadata><defs
     id="defs14"><clipPath
       id="clipPath28"
       clipPathUnits="userSpaceOnUse"><path
         id="path26"
         d="M 0,980 H 1400 V 0 H 0 Z" /></clipPath><clipPath
       id="clipPath60"
       clipPathUnits="userSpaceOnUse"><path
         id="path58"
         d="m 915.551,291.57 c 0,-79.988 64.844,-144.834 144.833,-144.834 v 0 c 79.992,0 144.837,64.846 144.837,144.834 v 0 c 0,79.99 -64.845,144.836 -144.837,144.836 v 0 c -79.989,0 -144.833,-64.846 -144.833,-144.836" /></clipPath><clipPath
       id="clipPath76"
       clipPathUnits="userSpaceOnUse"><path
         id="path74"
         d="m 555.165,291.57 c 0,-79.988 64.845,-144.834 144.835,-144.834 v 0 c 79.99,0 144.834,64.846 144.834,144.834 v 0 c 0,79.99 -64.844,144.836 -144.834,144.836 v 0 c -79.99,0 -144.835,-64.846 -144.835,-144.836" /></clipPath><clipPath
       id="clipPath88"
       clipPathUnits="userSpaceOnUse"><path
         id="path86"
         d="m 194.78,291.57 c 0,-79.988 64.844,-144.834 144.834,-144.834 v 0 c 79.99,0 144.835,64.846 144.835,144.834 v 0 c 0,79.99 -64.845,144.836 -144.835,144.836 v 0 c -79.99,0 -144.834,-64.846 -144.834,-144.836" /></clipPath><clipPath
       id="clipPath100"
       clipPathUnits="userSpaceOnUse"><path
         id="path98"
         d="m 915.551,688.43 c 0,-79.991 64.844,-144.835 144.833,-144.835 v 0 c 79.992,0 144.837,64.844 144.837,144.835 v 0 c 0,79.989 -64.845,144.834 -144.837,144.834 v 0 c -79.989,0 -144.833,-64.845 -144.833,-144.834" /></clipPath><clipPath
       id="clipPath112"
       clipPathUnits="userSpaceOnUse"><path
         id="path110"
         d="m 555.165,688.43 c 0,-79.991 64.845,-144.835 144.835,-144.835 v 0 c 79.99,0 144.834,64.844 144.834,144.835 v 0 c 0,79.989 -64.844,144.834 -144.834,144.834 v 0 c -79.99,0 -144.835,-64.845 -144.835,-144.834" /></clipPath><clipPath
       id="clipPath124"
       clipPathUnits="userSpaceOnUse"><path
         id="path122"
         d="m 194.78,688.43 c 0,-79.991 64.844,-144.835 144.834,-144.835 v 0 c 79.99,0 144.835,64.844 144.835,144.835 v 0 c 0,79.989 -64.845,144.834 -144.835,144.834 v 0 c -79.99,0 -144.834,-64.845 -144.834,-144.834" /></clipPath><clipPath
       id="clipPath136"
       clipPathUnits="userSpaceOnUse"><path
         id="path134"
         d="M 0,980 H 1400 V 0 H 0 Z" /></clipPath></defs><g
     transform="matrix(1.3333333,0,0,-1.3333333,-740.21931,581.87545)"
     id="g18"><g
       id="g24"
       clip-path="url(#clipPath28)"><g
         id="g30"
         transform="translate(1205.2205,291.5706)"><path
           d="m 0,0 c 0,-79.989 -64.845,-144.835 -144.836,-144.835 -79.989,0 -144.834,64.846 -144.834,144.835 0,79.99 64.845,144.836 144.834,144.836 C -64.845,144.836 0,79.99 0,0"
           style="fill:#66d7d3;fill-opacity:1;fill-rule:nonzero;stroke:none"
           id="path32" /></g><g
         id="g34"
         transform="translate(844.8345,291.5706)"><path
           d="m 0,0 c 0,-79.989 -64.845,-144.835 -144.835,-144.835 -79.99,0 -144.835,64.846 -144.835,144.835 0,79.99 64.845,144.836 144.835,144.836 C -64.845,144.836 0,79.99 0,0"
           style="fill:#f7c84a;fill-opacity:1;fill-rule:nonzero;stroke:none"
           id="path36" /></g><g
         id="g38"
         transform="translate(484.449,291.5706)"><path
           d="m 0,0 c 0,-79.989 -64.845,-144.835 -144.835,-144.835 -79.99,0 -144.834,64.846 -144.834,144.835 0,79.99 64.844,144.836 144.834,144.836 C -64.845,144.836 0,79.99 0,0"
           style="fill:#a1b537;fill-opacity:1;fill-rule:nonzero;stroke:none"
           id="path40" /></g><g
         id="g42"
         transform="translate(1205.2205,688.4294)"><path
           d="m 0,0 c 0,-79.991 -64.845,-144.835 -144.836,-144.835 -79.989,0 -144.834,64.844 -144.834,144.835 0,79.99 64.845,144.835 144.834,144.835 C -64.845,144.835 0,79.99 0,0"
           style="fill:#a1b537;fill-opacity:1;fill-rule:nonzero;stroke:none"
           id="path44" /></g><g
         id="g46"
         transform="translate(844.8345,688.4294)"><path
           d="m 0,0 c 0,-79.991 -64.845,-144.835 -144.835,-144.835 -79.99,0 -144.835,64.844 -144.835,144.835 0,79.99 64.845,144.835 144.835,144.835 C -64.845,144.835 0,79.99 0,0"
           style="fill:#66d7d3;fill-opacity:1;fill-rule:nonzero;stroke:none"
           id="path48" /></g><g
         id="g50"
         transform="translate(484.449,688.4294)"><path
           d="m 0,0 c 0,-79.991 -64.845,-144.835 -144.835,-144.835 -79.99,0 -144.834,64.844 -144.834,144.835 0,79.99 64.844,144.835 144.834,144.835 C -64.845,144.835 0,79.99 0,0"
           style="fill:#f7c84a;fill-opacity:1;fill-rule:nonzero;stroke:none"
           id="path52" /></g></g><g
       id="g54"><g
         clip-path="url(#clipPath60)"
         id="g56"><g
           transform="translate(1032.1409,372.1711)"
           id="g62"><path
             id="path64"
             style="fill:#51aeaf;fill-opacity:1;fill-rule:nonzero;stroke:none"
             d="m 0,0 h 5.977 c 6.409,-1.729 12.091,-4.663 16.329,-9.947 1.176,-1.465 2.789,-1.143 4.316,-1.146 8.107,-0.014 16.216,-0.112 24.32,0.047 3.104,0.061 5.374,-0.978 7.526,-3.155 10.894,-11.027 21.896,-21.949 32.857,-32.91 49.783,-49.779 99.553,-99.57 149.383,-149.302 2.395,-2.39 3.501,-4.876 3.41,-8.282 -0.199,-7.391 0.07,-14.793 -0.125,-22.184 -0.079,-2.957 0.877,-5.018 2.951,-7.078 19.979,-19.847 39.852,-39.798 59.797,-59.679 2.603,-2.595 5.066,-5.242 6.616,-8.621 v -3.415 c -4.596,-6.998 -7.834,-7.738 -15.271,-3.511 -2.435,1.384 -4.884,2.742 -7.326,4.112 -0.384,0.208 -0.795,0.443 -1.056,-0.11 -0.036,-0.076 0.354,-0.353 0.547,-0.538 4.84,-4.95 9.675,-9.902 14.518,-14.847 3.22,-3.288 6.892,-6.212 8.588,-10.721 v -3.416 c -5.242,-7.027 -8.072,-7.536 -15.662,-2.945 -16.767,10.145 -33.55,20.267 -50.335,30.383 -0.921,0.556 -1.726,1.55 -3.303,0.974 0,-3.605 0.384,-7.342 -0.073,-10.973 -1.295,-10.258 0.813,-18.926 9.853,-25.151 2.917,-2.009 2.764,-4.638 -0.249,-6.803 h -28.176 c -1.813,1.766 -3.646,3.512 -5.435,5.303 -62.223,62.271 -124.436,124.551 -186.661,186.819 -30.661,30.683 -61.345,61.344 -92.015,92.018 -3.788,3.787 -7.647,7.514 -10.462,12.14 v 3.416 c 6.348,8.189 9.63,8.486 17.406,1.194 6.513,-6.111 12.875,-12.384 19.243,-18.65 7.269,-7.152 14.31,-14.543 22.193,-21.048 0.288,-0.276 0.577,-0.552 0.867,-0.828 0.288,-0.284 0.578,-0.568 0.867,-0.852 0.288,-0.28 0.577,-0.56 0.865,-0.84 0.287,-0.282 0.574,-0.565 0.861,-0.848 0.287,-0.28 0.574,-0.562 0.862,-0.844 0.285,-0.284 0.57,-0.568 0.856,-0.851 0.282,-0.287 0.565,-0.574 0.848,-0.861 0.297,-0.269 0.595,-0.539 0.893,-0.809 0.158,-0.168 0.317,-0.338 0.475,-0.507 0.052,0.192 0.208,0.465 0.135,0.564 -0.259,0.347 -0.569,0.475 -0.71,-0.12 0.633,0.612 0.034,0.962 -0.292,1.371 -0.314,0.295 -0.628,0.588 -0.942,0.883 -0.288,0.287 -0.576,0.573 -0.864,0.858 -0.281,0.283 -0.562,0.566 -0.843,0.849 -0.281,0.282 -0.563,0.565 -0.843,0.848 -0.271,0.287 -0.541,0.575 -0.811,0.862 -0.272,0.269 -0.543,0.538 -0.815,0.807 -0.285,0.289 -0.569,0.579 -0.854,0.869 -0.882,0.926 -1.747,1.869 -2.65,2.775 -11.65,11.686 -23.459,23.221 -34.912,35.098 -8.922,9.251 -5.618,24.11 6.153,28.411 7.788,2.847 14.474,0.493 20.189,-5.234 12.462,-12.487 25.557,-24.411 37.21,-37.611 7.882,-8.93 16.388,-13.231 28.034,-11.223 1.518,0.262 3.76,-1.002 4.369,1.313 0.535,2.031 0.416,4.142 -1.492,5.844 -2.543,2.269 -4.822,4.829 -7.279,7.2 -17.207,16.603 -33.332,34.213 -49.037,52.231 -2.413,2.769 -1.486,3.775 1.043,5.332 C -5.572,-1.758 -2.507,-1.593 0,0" /></g><g
           transform="translate(1322.3923,66.4521)"
           id="g66"><path
             id="path68"
             style="fill:#fefefe;fill-opacity:1;fill-rule:evenodd;stroke:none"
             d="M 0,0 C -0.193,0.185 -0.584,0.462 -0.548,0.538 -0.287,1.091 0.125,0.856 0.509,0.648 0.349,0.424 0.18,0.209 0,0" /></g></g></g><g
       id="g70"><g
         clip-path="url(#clipPath76)"
         id="g72"><g
           transform="translate(973.2263,101.506)"
           id="g78"><path
             id="path80"
             style="fill:#eeae44;fill-opacity:1;fill-rule:nonzero;stroke:none"
             d="m 0,0 v -23.053 c -4.673,-2.51 -9.711,-0.693 -14.552,-1.226 -1.652,-0.182 -3.512,0.46 -4.884,-0.849 -8.564,-8.176 -17.776,-15.667 -25.817,-24.394 h -123.806 c -0.404,1.82 -2.011,2.684 -3.178,3.852 -47.328,47.374 -94.683,94.72 -142.033,142.071 -13.069,13.07 -26.131,26.146 -39.216,39.199 -1.435,1.432 -2.656,2.786 -2.604,5.081 0.134,5.826 0.11,11.658 0.016,17.486 -0.046,2.869 1.081,4.43 4.016,4.028 3.478,-0.476 4.284,1.034 4.231,4.282 -0.174,10.66 -10e-4,21.325 -0.102,31.987 -0.03,3.091 0.693,5.008 4.267,4.648 0.703,-0.071 1.748,-0.447 2.319,1.307 -9.546,6.955 -15.546,16.377 -16.907,28.471 -0.009,0.081 -0.235,0.138 -0.36,0.206 v 7.685 c 9.777,-8.188 21.531,-6.394 32.884,-6.429 22.752,-0.07 45.505,-0.082 68.257,0.027 5.029,0.025 8.968,-1.605 12.507,-5.213 11.952,-12.18 24.269,-24.004 36.056,-36.337 4.063,-4.249 8.189,-6.711 14.049,-5.695 5.103,0.884 8.643,-1.27 12.243,-4.884 C -123.092,122.517 -63.436,62.917 -3.791,3.308 -2.61,2.128 -1.688,0.612 0,0" /></g></g></g><g
       id="g82"><g
         clip-path="url(#clipPath88)"
         id="g84"><g
           transform="translate(578.2101,68.1531)"
           id="g90"><path
             id="path92"
             style="fill:#7a9029;fill-opacity:1;fill-rule:nonzero;stroke:none"
             d="m 0,0 c -0.197,0.204 -0.4,0.403 -0.603,0.603 -0.197,0.204 -0.4,0.403 -0.603,0.603 -0.197,0.204 -0.399,0.402 -0.602,0.602 -0.198,0.205 -0.401,0.404 -0.604,0.603 -0.197,0.206 -0.401,0.405 -0.604,0.604 -0.196,0.204 -0.398,0.402 -0.6,0.6 -0.197,0.206 -0.401,0.405 -0.604,0.605 -0.196,0.203 -0.399,0.401 -0.6,0.6 -0.199,0.206 -0.403,0.406 -0.608,0.607 -0.196,0.205 -0.399,0.402 -0.601,0.601 -0.197,0.205 -0.399,0.403 -0.602,0.603 -0.197,0.204 -0.4,0.402 -0.602,0.602 -0.197,0.204 -0.399,0.402 -0.602,0.602 -0.199,0.206 -0.405,0.408 -0.61,0.61 -0.195,0.202 -0.395,0.398 -0.595,0.594 -0.199,0.207 -0.404,0.408 -0.609,0.61 -0.195,0.202 -0.396,0.399 -0.596,0.595 -0.197,0.205 -0.4,0.405 -0.603,0.604 -0.2,0.207 -0.405,0.409 -0.61,0.61 -0.196,0.204 -0.398,0.401 -0.599,0.599 -0.197,0.204 -0.399,0.402 -0.6,0.6 -0.199,0.206 -0.404,0.406 -0.608,0.607 -0.195,0.204 -0.397,0.401 -0.598,0.599 -0.199,0.206 -0.403,0.406 -0.608,0.607 -0.196,0.204 -0.399,0.402 -0.6,0.601 -0.197,0.204 -0.398,0.401 -0.6,0.6 -0.199,0.207 -0.404,0.407 -0.608,0.609 -0.196,0.202 -0.397,0.399 -0.598,0.597 -0.199,0.206 -0.404,0.407 -0.609,0.608 -0.196,0.204 -0.398,0.402 -0.6,0.601 -0.147,0.152 -0.298,0.301 -0.448,0.451 v 18.006 h 4.227 c 0.738,0 1.337,0.6 1.337,1.337 v 1.783 c 0,0.525 -0.306,0.974 -0.746,1.193 -0.13,0.261 -0.341,0.472 -0.603,0.602 -0.008,0.016 -0.016,0.031 -0.025,0.046 1.77,0.209 3.148,1.697 3.148,3.524 v 80.565 c 0,1.139 -0.543,2.142 -1.374,2.794 -0.176,0.224 -0.378,0.426 -0.603,0.603 -0.176,0.224 -0.377,0.426 -0.603,0.602 -0.176,0.225 -0.377,0.427 -0.602,0.603 -0.177,0.225 -0.378,0.426 -0.603,0.603 -0.177,0.224 -0.378,0.426 -0.603,0.603 -0.176,0.224 -0.378,0.426 -0.603,0.603 -0.176,0.224 -0.378,0.426 -0.602,0.602 -0.177,0.225 -0.378,0.427 -0.604,0.604 -0.176,0.225 -0.377,0.426 -0.602,0.602 -0.177,0.225 -0.378,0.427 -0.603,0.603 -0.177,0.225 -0.378,0.426 -0.603,0.602 -0.177,0.225 -0.378,0.427 -0.603,0.604 -0.177,0.225 -0.378,0.426 -0.603,0.603 -0.176,0.224 -0.378,0.426 -0.602,0.603 -0.177,0.224 -0.378,0.425 -0.603,0.602 -0.177,0.225 -0.378,0.426 -0.603,0.603 -0.176,0.225 -0.378,0.426 -0.603,0.603 -0.177,0.225 -0.378,0.426 -0.603,0.602 -0.177,0.225 -0.378,0.427 -0.603,0.604 -0.177,0.225 -0.378,0.426 -0.603,0.603 -0.176,0.224 -0.377,0.425 -0.602,0.602 -0.177,0.225 -0.378,0.427 -0.604,0.604 -0.176,0.225 -0.377,0.426 -0.602,0.602 -0.177,0.225 -0.378,0.426 -0.603,0.603 -0.177,0.225 -0.377,0.426 -0.602,0.601 -0.177,0.226 -0.378,0.428 -0.604,0.605 -0.176,0.224 -0.377,0.426 -0.602,0.602 -0.177,0.225 -0.378,0.426 -0.602,0.603 -0.178,0.225 -0.379,0.428 -0.605,0.604 -0.177,0.225 -0.378,0.426 -0.602,0.602 -0.177,0.225 -0.378,0.426 -0.603,0.603 -0.177,0.225 -0.378,0.426 -0.603,0.603 -0.176,0.225 -0.378,0.426 -0.603,0.603 -0.177,0.225 -0.378,0.426 -0.603,0.603 -0.176,0.224 -0.377,0.425 -0.601,0.601 -0.177,0.226 -0.379,0.428 -0.605,0.604 -0.176,0.226 -0.377,0.427 -0.602,0.603 -0.176,0.225 -0.377,0.426 -0.602,0.602 -0.177,0.226 -0.378,0.427 -0.603,0.603 -0.177,0.225 -0.379,0.427 -0.604,0.604 -0.177,0.225 -0.378,0.426 -0.603,0.603 -0.177,0.224 -0.377,0.426 -0.602,0.602 -0.177,0.225 -0.378,0.427 -0.604,0.603 -0.176,0.226 -0.377,0.427 -0.602,0.603 -0.177,0.225 -0.378,0.426 -0.603,0.603 -0.177,0.224 -0.378,0.426 -0.603,0.603 -0.176,0.224 -0.377,0.425 -0.601,0.601 -0.177,0.225 -0.378,0.427 -0.603,0.604 -0.177,0.225 -0.379,0.427 -0.604,0.604 -0.177,0.225 -0.378,0.426 -0.603,0.602 -0.177,0.226 -0.378,0.427 -0.603,0.602 -0.176,0.226 -0.378,0.427 -0.603,0.604 -0.176,0.224 -0.377,0.425 -0.602,0.602 -0.177,0.226 -0.38,0.428 -0.605,0.605 -0.176,0.223 -0.376,0.423 -0.6,0.599 -0.177,0.226 -0.379,0.428 -0.605,0.606 -0.176,0.224 -0.376,0.425 -0.601,0.602 -0.177,0.225 -0.378,0.427 -0.603,0.603 -0.177,0.225 -0.379,0.426 -0.604,0.603 -0.176,0.225 -0.378,0.427 -0.604,0.604 -0.176,0.223 -0.376,0.423 -0.6,0.599 -0.177,0.226 -0.378,0.427 -0.603,0.605 -0.178,0.225 -0.379,0.427 -0.605,0.604 -0.176,0.225 -0.377,0.425 -0.602,0.602 -0.176,0.224 -0.377,0.426 -0.602,0.602 -0.177,0.226 -0.378,0.427 -0.604,0.604 -0.176,0.225 -0.378,0.427 -0.603,0.604 -0.177,0.224 -0.378,0.425 -0.603,0.602 -0.176,0.223 -0.376,0.424 -0.6,0.6 -0.177,0.226 -0.379,0.428 -0.605,0.606 -0.176,0.225 -0.378,0.426 -0.604,0.603 -0.176,0.224 -0.377,0.425 -0.602,0.602 -0.176,0.225 -0.378,0.425 -0.602,0.602 -0.177,0.226 -0.379,0.428 -0.605,0.605 -0.175,0.223 -0.375,0.423 -0.598,0.598 -0.178,0.227 -0.381,0.431 -0.609,0.609 -0.175,0.223 -0.375,0.423 -0.598,0.598 -0.178,0.226 -0.379,0.428 -0.605,0.604 -0.176,0.225 -0.377,0.426 -0.601,0.602 -0.178,0.227 -0.38,0.43 -0.607,0.607 -0.176,0.223 -0.375,0.422 -0.598,0.598 -0.178,0.226 -0.38,0.429 -0.606,0.607 -0.176,0.223 -0.376,0.423 -0.6,0.599 -0.177,0.226 -0.379,0.428 -0.605,0.605 -0.176,0.224 -0.377,0.425 -0.601,0.602 -0.177,0.225 -0.379,0.427 -0.604,0.604 -0.177,0.224 -0.378,0.426 -0.603,0.602 -0.177,0.226 -0.379,0.428 -0.604,0.605 -0.177,0.224 -0.378,0.424 -0.602,0.601 -0.177,0.225 -0.378,0.427 -0.604,0.604 -0.176,0.224 -0.377,0.425 -0.601,0.601 -0.177,0.225 -0.377,0.425 -0.601,0.602 -0.178,0.226 -0.38,0.428 -0.606,0.605 -0.177,0.225 -0.379,0.427 -0.604,0.604 -0.175,0.223 -0.375,0.423 -0.598,0.598 -0.178,0.227 -0.381,0.43 -0.608,0.608 -0.176,0.224 -0.376,0.425 -0.601,0.601 -0.176,0.225 -0.377,0.426 -0.603,0.603 -0.176,0.224 -0.377,0.425 -0.601,0.601 -0.177,0.226 -0.38,0.428 -0.605,0.605 -0.177,0.224 -0.378,0.425 -0.602,0.602 -0.177,0.225 -0.378,0.426 -0.603,0.603 -0.176,0.224 -0.377,0.425 -0.601,0.601 -0.177,0.226 -0.38,0.429 -0.606,0.606 -0.176,0.225 -0.376,0.425 -0.601,0.601 -0.176,0.225 -0.378,0.427 -0.603,0.603 -0.177,0.225 -0.378,0.426 -0.602,0.602 -0.177,0.226 -0.38,0.428 -0.606,0.606 -0.175,0.223 -0.375,0.422 -0.598,0.598 -0.178,0.227 -0.381,0.431 -0.608,0.608 -0.176,0.224 -0.376,0.424 -0.6,0.6 -0.177,0.225 -0.378,0.427 -0.604,0.603 -0.176,0.225 -0.376,0.426 -0.601,0.602 -0.177,0.226 -0.379,0.427 -0.605,0.605 -0.176,0.224 -0.377,0.424 -0.6,0.6 -0.178,0.227 -0.38,0.429 -0.606,0.607 -0.176,0.223 -0.377,0.423 -0.6,0.599 -0.177,0.226 -0.38,0.428 -0.605,0.605 -0.176,0.225 -0.377,0.426 -0.602,0.602 -0.176,0.225 -0.378,0.427 -0.603,0.603 -0.177,0.225 -0.377,0.426 -0.601,0.601 -0.178,0.226 -0.38,0.428 -0.606,0.606 -0.176,0.224 -0.376,0.424 -0.6,0.6 -0.178,0.227 -0.38,0.429 -0.606,0.606 -0.176,0.224 -0.376,0.425 -0.6,0.601 -0.178,0.225 -0.379,0.427 -0.605,0.604 -0.176,0.225 -0.378,0.426 -0.602,0.602 -0.177,0.225 -0.378,0.426 -0.603,0.603 -0.176,0.224 -0.377,0.425 -0.602,0.602 -0.177,0.226 -0.379,0.428 -0.605,0.605 -0.176,0.225 -0.377,0.425 -0.602,0.602 -0.176,0.224 -0.377,0.426 -0.603,0.603 -0.176,0.224 -0.377,0.426 -0.602,0.602 -0.177,0.225 -0.378,0.427 -0.603,0.603 -0.177,0.225 -0.378,0.426 -0.603,0.603 -0.176,0.224 -0.378,0.426 -0.603,0.603 -0.176,0.224 -0.378,0.426 -0.603,0.603 -0.176,0.224 -0.378,0.426 -0.603,0.603 -0.176,0.224 -0.377,0.426 -0.603,0.603 -0.176,0.224 -0.377,0.426 -0.602,0.602 -0.177,0.225 -0.378,0.426 -0.603,0.603 -0.177,0.225 -0.378,0.426 -0.603,0.603 -0.176,0.224 -0.377,0.425 -0.602,0.602 -0.177,0.226 -0.379,0.428 -0.605,0.605 -0.176,0.225 -0.377,0.425 -0.602,0.602 -0.176,0.224 -0.377,0.426 -0.603,0.602 -0.176,0.225 -0.377,0.427 -0.602,0.603 -0.177,0.225 -0.378,0.426 -0.603,0.603 -0.177,0.224 -0.378,0.426 -0.603,0.603 -0.176,0.224 -0.378,0.426 -0.603,0.603 -0.176,0.224 -0.378,0.426 -0.603,0.603 -0.176,0.224 -0.377,0.426 -0.603,0.603 -0.176,0.224 -0.377,0.426 -0.602,0.602 -0.177,0.225 -0.378,0.426 -0.603,0.603 -0.177,0.225 -0.378,0.426 -0.603,0.603 -0.177,0.224 -0.378,0.426 -0.603,0.603 -0.176,0.224 -0.378,0.426 -0.603,0.603 -0.176,0.224 -0.378,0.426 -0.603,0.603 -0.176,0.224 -0.377,0.426 -0.603,0.603 -0.176,0.224 -0.377,0.426 -0.602,0.602 -0.177,0.225 -0.378,0.426 -0.603,0.603 -0.177,0.225 -0.378,0.426 -0.603,0.603 -0.177,0.224 -0.378,0.426 -0.603,0.603 -0.176,0.224 -0.378,0.426 -0.603,0.603 -0.176,0.224 -0.377,0.425 -0.601,0.602 -0.177,0.225 -0.379,0.427 -0.604,0.604 -0.176,0.224 -0.377,0.425 -0.602,0.602 -0.177,0.225 -0.379,0.426 -0.605,0.604 -0.176,0.224 -0.377,0.425 -0.602,0.602 -0.177,0.224 -0.377,0.425 -0.602,0.602 -0.177,0.225 -0.379,0.427 -0.604,0.604 -0.177,0.225 -0.378,0.426 -0.602,0.602 -0.177,0.225 -0.378,0.427 -0.603,0.603 -0.177,0.225 -0.378,0.427 -0.603,0.603 -0.176,0.225 -0.378,0.426 -0.602,0.602 -0.177,0.225 -0.378,0.426 -0.603,0.603 -0.177,0.225 -0.378,0.426 -0.603,0.603 -0.176,0.225 -0.378,0.427 -0.604,0.604 -0.176,0.224 -0.377,0.426 -0.602,0.602 -0.177,0.225 -0.378,0.427 -0.603,0.603 -0.177,0.226 -0.378,0.427 -0.603,0.603 -0.177,0.225 -0.378,0.426 -0.604,0.603 -0.176,0.225 -0.377,0.426 -0.602,0.603 -0.176,0.224 -0.377,0.425 -0.602,0.602 -0.176,0.225 -0.378,0.426 -0.602,0.603 -0.177,0.225 -0.379,0.427 -0.605,0.604 -0.176,0.225 -0.377,0.426 -0.602,0.602 -0.176,0.225 -0.377,0.427 -0.603,0.602 -0.176,0.226 -0.378,0.427 -0.603,0.604 -0.177,0.224 -0.377,0.425 -0.602,0.602 -0.176,0.225 -0.379,0.427 -0.604,0.605 -0.177,0.224 -0.378,0.425 -0.602,0.602 -0.177,0.225 -0.378,0.427 -0.604,0.603 -0.176,0.225 -0.377,0.426 -0.602,0.602 -0.176,0.225 -0.377,0.426 -0.601,0.602 -0.177,0.225 -0.379,0.427 -0.604,0.604 -0.177,0.224 -0.378,0.426 -0.603,0.602 -0.177,0.225 -0.378,0.427 -0.603,0.604 -0.177,0.225 -0.379,0.426 -0.603,0.603 -0.177,0.224 -0.378,0.425 -0.603,0.602 -0.176,0.225 -0.377,0.426 -0.603,0.603 -0.176,0.225 -0.377,0.426 -0.602,0.602 -0.178,0.226 -0.38,0.429 -0.606,0.606 -0.176,0.223 -0.376,0.423 -0.599,0.599 -0.177,0.225 -0.378,0.427 -0.603,0.604 -0.177,0.224 -0.378,0.426 -0.603,0.603 -0.177,0.225 -0.379,0.428 -0.605,0.604 -0.176,0.225 -0.376,0.425 -0.6,0.601 -0.177,0.226 -0.379,0.427 -0.605,0.604 -0.177,0.225 -0.378,0.427 -0.603,0.604 -0.176,0.224 -0.377,0.425 -0.602,0.601 -0.176,0.225 -0.378,0.426 -0.603,0.603 -0.177,0.226 -0.379,0.428 -0.604,0.604 -0.176,0.225 -0.377,0.425 -0.601,0.601 -0.177,0.225 -0.378,0.427 -0.603,0.603 -0.177,0.226 -0.378,0.427 -0.603,0.603 -0.177,0.226 -0.378,0.427 -0.604,0.604 -0.176,0.225 -0.377,0.426 -0.602,0.602 -0.176,0.225 -0.378,0.427 -0.604,0.604 -0.176,0.224 -0.376,0.424 -0.6,0.6 -0.178,0.227 -0.381,0.43 -0.608,0.608 -0.175,0.223 -0.374,0.422 -0.597,0.597 -0.178,0.227 -0.38,0.429 -0.606,0.606 -0.176,0.225 -0.378,0.426 -0.602,0.602 -0.177,0.226 -0.379,0.428 -0.604,0.605 -0.176,0.223 -0.377,0.424 -0.6,0.6 -0.177,0.226 -0.38,0.428 -0.606,0.605 -0.175,0.224 -0.376,0.425 -0.6,0.601 -0.178,0.226 -0.379,0.427 -0.604,0.604 -0.177,0.225 -0.378,0.425 -0.602,0.602 -0.177,0.225 -0.379,0.427 -0.605,0.604 -0.176,0.225 -0.377,0.426 -0.602,0.603 -0.177,0.225 -0.379,0.426 -0.604,0.603 -0.176,0.224 -0.376,0.424 -0.6,0.6 -0.177,0.226 -0.379,0.429 -0.605,0.605 -0.177,0.226 -0.377,0.426 -0.602,0.602 -0.177,0.226 -0.378,0.427 -0.603,0.604 -0.177,0.224 -0.378,0.425 -0.603,0.602 -0.177,0.225 -0.378,0.427 -0.603,0.604 -0.177,0.224 -0.378,0.426 -0.603,0.603 -0.177,0.225 -0.378,0.426 -0.604,0.602 -0.175,0.225 -0.376,0.425 -0.6,0.601 -0.177,0.226 -0.379,0.428 -0.606,0.606 -0.176,0.223 -0.376,0.424 -0.6,0.6 -0.177,0.226 -0.379,0.427 -0.604,0.604 -0.177,0.225 -0.378,0.427 -0.604,0.604 -0.176,0.224 -0.376,0.424 -0.6,0.601 -0.178,0.226 -0.38,0.428 -0.605,0.605 -0.177,0.225 -0.379,0.426 -0.604,0.603 -0.176,0.224 -0.376,0.424 -0.599,0.6 -0.177,0.226 -0.38,0.427 -0.605,0.605 -0.177,0.225 -0.379,0.427 -0.604,0.603 -0.176,0.225 -0.378,0.426 -0.602,0.603 -0.177,0.224 -0.378,0.426 -0.603,0.602 -0.176,0.225 -0.377,0.426 -0.603,0.603 -0.176,0.225 -0.377,0.426 -0.602,0.603 -0.178,0.225 -0.379,0.427 -0.605,0.604 -0.176,0.223 -0.376,0.424 -0.6,0.599 -0.177,0.226 -0.378,0.428 -0.604,0.605 -0.176,0.225 -0.378,0.427 -0.603,0.604 -0.177,0.224 -0.378,0.426 -0.603,0.603 -0.177,0.224 -0.377,0.425 -0.602,0.602 -0.177,0.224 -0.377,0.425 -0.602,0.602 -0.177,0.226 -0.38,0.428 -0.606,0.605 -0.176,0.224 -0.376,0.424 -0.6,0.6 -0.177,0.225 -0.378,0.426 -0.602,0.602 -0.178,0.227 -0.38,0.429 -0.606,0.606 -0.176,0.225 -0.377,0.426 -0.602,0.603 -0.176,0.225 -0.378,0.426 -0.603,0.602 -0.176,0.225 -0.377,0.425 -0.601,0.601 -0.176,0.226 -0.378,0.427 -0.604,0.605 -0.177,0.225 -0.379,0.427 -0.604,0.604 -0.176,0.223 -0.377,0.424 -0.601,0.6 -0.176,0.225 -0.377,0.426 -0.602,0.603 -0.177,0.225 -0.379,0.427 -0.605,0.604 -0.176,0.226 -0.378,0.427 -0.604,0.604 -0.176,0.224 -0.377,0.425 -0.601,0.601 -0.176,0.225 -0.377,0.426 -0.602,0.602 -0.177,0.226 -0.38,0.429 -0.606,0.607 -0.176,0.223 -0.377,0.424 -0.6,0.6 -0.177,0.223 -0.377,0.424 -0.601,0.6 -0.178,0.227 -0.38,0.43 -0.607,0.607 -0.176,0.225 -0.376,0.425 -0.601,0.601 -0.176,0.225 -0.377,0.427 -0.603,0.603 -0.177,0.226 -0.379,0.428 -0.605,0.606 -0.176,0.223 -0.376,0.422 -0.599,0.598 -0.178,0.227 -0.38,0.43 -0.607,0.607 -0.176,0.224 -0.376,0.424 -0.6,0.6 -0.177,0.225 -0.378,0.426 -0.603,0.603 -0.177,0.226 -0.379,0.428 -0.605,0.605 -0.176,0.224 -0.376,0.425 -0.6,0.6 -0.177,0.226 -0.379,0.427 -0.604,0.604 -0.177,0.225 -0.378,0.426 -0.602,0.602 -0.177,0.226 -0.379,0.428 -0.604,0.605 -0.177,0.224 -0.378,0.426 -0.603,0.602 -0.176,0.224 -0.377,0.425 -0.601,0.602 -0.177,0.224 -0.378,0.426 -0.603,0.603 -0.177,0.225 -0.378,0.426 -0.604,0.604 -0.177,0.225 -0.379,0.427 -0.605,0.604 -0.176,0.224 -0.376,0.424 -0.599,0.599 -0.178,0.227 -0.381,0.43 -0.607,0.607 -0.175,0.224 -0.376,0.424 -0.599,0.599 -0.178,0.227 -0.38,0.429 -0.606,0.606 -0.176,0.224 -0.376,0.424 -0.599,0.6 -0.177,0.226 -0.379,0.427 -0.605,0.605 -0.177,0.224 -0.378,0.425 -0.602,0.601 -0.177,0.226 -0.379,0.428 -0.604,0.605 -0.177,0.224 -0.378,0.425 -0.602,0.601 -0.652,0.831 -1.654,1.375 -2.793,1.375 h -15.423 c -1.968,0 -3.564,-1.594 -3.564,-3.564 v -31.602 c -0.044,0.044 -0.091,0.085 -0.136,0.13 -0.202,0.207 -0.406,0.411 -0.613,0.613 -0.199,0.205 -0.4,0.405 -0.604,0.603 -0.199,0.204 -0.4,0.406 -0.605,0.605 -0.194,0.2 -0.391,0.397 -0.59,0.591 -0.202,0.207 -0.406,0.412 -0.614,0.614 -0.198,0.203 -0.399,0.404 -0.603,0.602 -0.197,0.203 -0.397,0.403 -0.6,0.6 -0.197,0.203 -0.396,0.402 -0.598,0.599 -0.2,0.205 -0.402,0.407 -0.608,0.607 -0.198,0.205 -0.399,0.406 -0.604,0.604 -0.199,0.204 -0.401,0.406 -0.605,0.606 -0.194,0.199 -0.391,0.395 -0.59,0.59 -0.203,0.208 -0.409,0.414 -0.617,0.617 -0.197,0.202 -0.396,0.401 -0.598,0.598 -0.197,0.202 -0.398,0.402 -0.6,0.6 -0.2,0.205 -0.403,0.408 -0.608,0.608 -0.196,0.2 -0.393,0.399 -0.594,0.594 -0.2,0.206 -0.404,0.409 -0.61,0.609 -0.2,0.206 -0.403,0.409 -0.608,0.609 -0.195,0.2 -0.392,0.397 -0.592,0.592 -0.201,0.206 -0.404,0.409 -0.611,0.61 -0.196,0.202 -0.396,0.401 -0.598,0.598 -0.198,0.203 -0.398,0.404 -0.601,0.601 -0.201,0.207 -0.405,0.41 -0.611,0.612 -0.196,0.2 -0.394,0.398 -0.594,0.594 -0.202,0.207 -0.406,0.411 -0.613,0.613 -0.195,0.199 -0.391,0.396 -0.591,0.59 -0.201,0.207 -0.405,0.41 -0.611,0.611 -0.197,0.203 -0.397,0.402 -0.599,0.6 -0.199,0.203 -0.4,0.404 -0.603,0.603 -0.198,0.202 -0.398,0.402 -0.601,0.6 -0.198,0.204 -0.399,0.405 -0.602,0.604 -0.202,0.207 -0.406,0.41 -0.613,0.612 -0.194,0.198 -0.39,0.394 -0.588,0.588 -0.204,0.209 -0.41,0.415 -0.618,0.618 -0.194,0.2 -0.391,0.396 -0.59,0.591 -0.203,0.208 -0.409,0.413 -0.618,0.617 -0.193,0.197 -0.388,0.392 -0.586,0.585 -0.203,0.209 -0.409,0.414 -0.617,0.618 -0.196,0.201 -0.394,0.398 -0.595,0.594 -0.198,0.204 -0.399,0.405 -0.603,0.604 -0.199,0.203 -0.4,0.405 -0.604,0.604 -5.827,5.982 -13.96,9.708 -22.951,9.708 -17.675,0 -32.054,-14.378 -32.054,-32.056 0,-8.988 3.724,-17.119 9.704,-22.945 0.199,-0.205 0.401,-0.407 0.605,-0.606 0.201,-0.206 0.404,-0.408 0.609,-0.608 0.196,-0.201 0.394,-0.4 0.595,-0.596 0.2,-0.204 0.402,-0.407 0.607,-0.606 0.2,-0.205 0.402,-0.408 0.608,-0.608 0.196,-0.201 0.395,-0.399 0.596,-0.595 0.196,-0.202 0.395,-0.4 0.596,-0.597 0.202,-0.207 0.405,-0.411 0.612,-0.612 0.2,-0.205 0.402,-0.407 0.606,-0.606 0.195,-0.201 0.392,-0.397 0.592,-0.592 0.201,-0.206 0.405,-0.411 0.611,-0.612 0.197,-0.201 0.396,-0.4 0.598,-0.597 0.199,-0.205 0.402,-0.407 0.607,-0.608 0.199,-0.204 0.401,-0.405 0.605,-0.604 0.198,-0.204 0.399,-0.404 0.603,-0.603 0.194,-0.199 0.391,-0.396 0.59,-0.59 0.203,-0.208 0.408,-0.414 0.616,-0.616 0.197,-0.202 0.395,-0.401 0.597,-0.597 0.199,-0.205 0.401,-0.407 0.606,-0.607 0.199,-0.203 0.4,-0.404 0.604,-0.603 0.196,-0.201 0.395,-0.4 0.596,-0.597 0.2,-0.205 0.402,-0.407 0.608,-0.607 0.201,-0.206 0.404,-0.41 0.611,-0.611 0.194,-0.198 0.389,-0.394 0.588,-0.588 0.201,-0.206 0.404,-0.41 0.611,-0.611 0.197,-0.201 0.395,-0.4 0.596,-0.597 0.201,-0.205 0.404,-0.408 0.61,-0.608 0.198,-0.204 0.399,-0.405 0.602,-0.603 0.198,-0.204 0.399,-0.405 0.603,-0.602 0.197,-0.203 0.396,-0.402 0.599,-0.6 0.109,-0.112 0.215,-0.228 0.326,-0.339 v -18 h -4.226 c -0.738,0 -1.337,-0.597 -1.337,-1.336 v -1.782 c 0,-0.525 0.306,-0.974 0.746,-1.193 0.13,-0.262 0.342,-0.473 0.604,-0.603 0.008,-0.016 0.017,-0.032 0.025,-0.047 -1.771,-0.207 -3.15,-1.696 -3.15,-3.521 v -80.568 c 0,-1.139 0.544,-2.142 1.375,-2.794 0.176,-0.224 0.377,-0.425 0.601,-0.601 0.177,-0.225 0.379,-0.428 0.604,-0.604 0.177,-0.226 0.379,-0.428 0.605,-0.605 0.176,-0.223 0.376,-0.424 0.6,-0.599 0.177,-0.227 0.38,-0.43 0.606,-0.607 0.176,-0.223 0.376,-0.423 0.599,-0.599 0.178,-0.226 0.38,-0.429 0.606,-0.606 0.176,-0.224 0.377,-0.425 0.6,-0.601 0.177,-0.224 0.378,-0.426 0.603,-0.602 0.177,-0.226 0.38,-0.428 0.606,-0.606 0.176,-0.223 0.376,-0.424 0.6,-0.6 0.177,-0.225 0.378,-0.426 0.603,-0.603 0.177,-0.226 0.379,-0.428 0.604,-0.605 0.177,-0.224 0.378,-0.426 0.603,-0.602 0.177,-0.225 0.378,-0.427 0.603,-0.603 0.176,-0.225 0.377,-0.426 0.602,-0.601 0.176,-0.226 0.378,-0.427 0.602,-0.604 0.177,-0.225 0.379,-0.427 0.604,-0.604 0.177,-0.224 0.378,-0.425 0.603,-0.602 0.176,-0.225 0.378,-0.427 0.603,-0.604 0.177,-0.224 0.378,-0.426 0.603,-0.602 0.177,-0.225 0.377,-0.426 0.601,-0.602 0.178,-0.226 0.38,-0.427 0.606,-0.605 0.176,-0.223 0.376,-0.424 0.6,-0.599 0.177,-0.226 0.379,-0.428 0.604,-0.605 0.177,-0.225 0.378,-0.426 0.603,-0.603 0.176,-0.225 0.378,-0.426 0.603,-0.603 0.177,-0.226 0.378,-0.427 0.604,-0.604 0.176,-0.224 0.376,-0.424 0.599,-0.599 0.178,-0.226 0.379,-0.428 0.605,-0.605 0.177,-0.225 0.379,-0.427 0.604,-0.604 0.176,-0.224 0.377,-0.425 0.601,-0.601 0.177,-0.225 0.378,-0.426 0.604,-0.604 0.176,-0.224 0.377,-0.424 0.601,-0.601 0.177,-0.225 0.379,-0.428 0.604,-0.604 0.177,-0.226 0.378,-0.427 0.603,-0.603 0.177,-0.226 0.379,-0.427 0.605,-0.604 0.176,-0.224 0.376,-0.424 0.6,-0.6 0.177,-0.226 0.379,-0.428 0.604,-0.605 0.177,-0.225 0.378,-0.426 0.603,-0.603 0.176,-0.224 0.377,-0.425 0.602,-0.602 0.177,-0.225 0.378,-0.426 0.603,-0.603 0.177,-0.225 0.378,-0.427 0.604,-0.603 0.176,-0.225 0.377,-0.426 0.602,-0.602 0.176,-0.225 0.378,-0.426 0.602,-0.603 0.177,-0.224 0.377,-0.425 0.602,-0.601 0.177,-0.226 0.379,-0.429 0.605,-0.606 0.176,-0.225 0.378,-0.426 0.602,-0.602 0.177,-0.225 0.378,-0.426 0.602,-0.603 0.177,-0.225 0.379,-0.426 0.604,-0.603 0.177,-0.225 0.378,-0.426 0.602,-0.602 0.177,-0.225 0.379,-0.427 0.604,-0.604 0.177,-0.225 0.378,-0.426 0.603,-0.603 0.176,-0.225 0.378,-0.426 0.603,-0.603 0.177,-0.225 0.378,-0.427 0.603,-0.603 0.176,-0.225 0.377,-0.426 0.602,-0.602 0.177,-0.225 0.378,-0.426 0.603,-0.603 0.177,-0.225 0.378,-0.426 0.602,-0.602 0.177,-0.226 0.379,-0.428 0.604,-0.605 0.177,-0.225 0.379,-0.427 0.604,-0.604 0.177,-0.224 0.377,-0.424 0.602,-0.601 0.176,-0.224 0.377,-0.425 0.601,-0.601 0.177,-0.226 0.379,-0.428 0.605,-0.604 0.176,-0.225 0.377,-0.426 0.602,-0.602 0.176,-0.226 0.378,-0.426 0.603,-0.603 0.176,-0.225 0.377,-0.426 0.601,-0.602 0.178,-0.226 0.38,-0.429 0.607,-0.607 0.176,-0.224 0.376,-0.424 0.6,-0.601 0.177,-0.224 0.378,-0.425 0.603,-0.602 0.176,-0.224 0.376,-0.425 0.601,-0.601 0.177,-0.227 0.38,-0.429 0.607,-0.607 0.176,-0.224 0.376,-0.424 0.6,-0.6 0.177,-0.225 0.378,-0.427 0.604,-0.603 0.176,-0.225 0.377,-0.426 0.601,-0.602 0.177,-0.226 0.38,-0.429 0.605,-0.605 0.177,-0.225 0.378,-0.426 0.602,-0.602 0.177,-0.226 0.379,-0.427 0.604,-0.604 0.176,-0.224 0.376,-0.424 0.6,-0.6 0.177,-0.226 0.379,-0.427 0.605,-0.605 0.177,-0.224 0.377,-0.425 0.601,-0.601 0.178,-0.225 0.379,-0.427 0.604,-0.604 0.177,-0.225 0.377,-0.426 0.602,-0.602 0.177,-0.226 0.379,-0.428 0.605,-0.604 0.176,-0.226 0.377,-0.427 0.602,-0.602 0.176,-0.226 0.378,-0.427 0.603,-0.603 0.176,-0.225 0.378,-0.426 0.602,-0.603 0.177,-0.225 0.378,-0.426 0.603,-0.603 0.177,-0.224 0.378,-0.426 0.602,-0.602 0.177,-0.226 0.38,-0.429 0.606,-0.605 0.176,-0.225 0.376,-0.425 0.6,-0.601 0.177,-0.226 0.379,-0.428 0.605,-0.605 0.176,-0.224 0.376,-0.424 0.6,-0.6 0.177,-0.226 0.38,-0.429 0.606,-0.607 0.176,-0.223 0.376,-0.423 0.599,-0.598 0.178,-0.227 0.381,-0.43 0.607,-0.607 0.176,-0.225 0.377,-0.425 0.601,-0.601 0.177,-0.225 0.378,-0.426 0.603,-0.603 0.176,-0.225 0.377,-0.426 0.602,-0.602 0.177,-0.226 0.379,-0.427 0.604,-0.604 0.177,-0.224 0.378,-0.425 0.602,-0.602 0.177,-0.225 0.378,-0.426 0.604,-0.603 0.176,-0.225 0.377,-0.427 0.602,-0.603 0.177,-0.225 0.378,-0.426 0.603,-0.603 0.177,-0.225 0.378,-0.426 0.603,-0.602 0.176,-0.226 0.378,-0.427 0.603,-0.603 0.176,-0.226 0.378,-0.426 0.602,-0.603 0.177,-0.225 0.379,-0.426 0.603,-0.603 0.177,-0.224 0.378,-0.425 0.602,-0.602 0.177,-0.226 0.379,-0.428 0.605,-0.605 0.177,-0.225 0.377,-0.426 0.602,-0.602 0.177,-0.225 0.377,-0.426 0.603,-0.602 0.176,-0.226 0.378,-0.427 0.603,-0.604 0.176,-0.225 0.378,-0.426 0.603,-0.602 0.176,-0.225 0.378,-0.426 0.602,-0.603 0.177,-0.225 0.378,-0.426 0.603,-0.603 0.177,-0.225 0.378,-0.426 0.603,-0.603 0.177,-0.225 0.378,-0.427 0.603,-0.603 0.176,-0.225 0.378,-0.426 0.603,-0.602 0.176,-0.226 0.378,-0.427 0.602,-0.603 0.177,-0.225 0.379,-0.427 0.604,-0.604 0.176,-0.224 0.378,-0.425 0.602,-0.602 0.177,-0.225 0.378,-0.427 0.603,-0.603 0.177,-0.225 0.378,-0.427 0.603,-0.603 0.177,-0.225 0.378,-0.426 0.603,-0.603 0.176,-0.225 0.378,-0.426 0.603,-0.602 0.176,-0.226 0.378,-0.426 0.602,-0.603 0.177,-0.225 0.379,-0.426 0.603,-0.603 0.177,-0.225 0.378,-0.427 0.604,-0.604 0.176,-0.224 0.377,-0.425 0.602,-0.602 0.177,-0.225 0.378,-0.427 0.603,-0.603 0.177,-0.225 0.378,-0.426 0.603,-0.603 0.176,-0.225 0.378,-0.426 0.603,-0.603 0.176,-0.224 0.377,-0.425 0.602,-0.602 0.177,-0.225 0.379,-0.427 0.604,-0.604 0.176,-0.224 0.377,-0.426 0.602,-0.602 0.177,-0.225 0.378,-0.427 0.603,-0.603 0.177,-0.225 0.378,-0.427 0.603,-0.603 0.177,-0.225 0.378,-0.427 0.603,-0.602 0.176,-0.226 0.378,-0.427 0.603,-0.603 0.176,-0.225 0.377,-0.426 0.602,-0.602 0.176,-0.226 0.378,-0.427 0.603,-0.604 0.177,-0.225 0.378,-0.427 0.603,-0.604 0.177,-0.224 0.378,-0.425 0.602,-0.601 0.177,-0.226 0.379,-0.428 0.605,-0.604 0.176,-0.226 0.377,-0.427 0.602,-0.602 0.177,-0.226 0.378,-0.427 0.603,-0.604 0.177,-0.224 0.377,-0.425 0.601,-0.601 0.177,-0.225 0.379,-0.428 0.605,-0.605 0.176,-0.224 0.377,-0.425 0.601,-0.601 0.177,-0.226 0.379,-0.428 0.604,-0.605 0.177,-0.225 0.378,-0.426 0.603,-0.602 0.177,-0.225 0.378,-0.426 0.603,-0.602 0.176,-0.226 0.377,-0.427 0.602,-0.603 0.177,-0.225 0.378,-0.426 0.603,-0.604 0.177,-0.224 0.378,-0.425 0.602,-0.602 0.177,-0.225 0.379,-0.427 0.605,-0.604 0.176,-0.224 0.377,-0.425 0.601,-0.602 0.177,-0.225 0.379,-0.426 0.604,-0.603 0.177,-0.225 0.377,-0.426 0.602,-0.602 0.177,-0.226 0.378,-0.427 0.603,-0.603 0.177,-0.225 0.379,-0.427 0.604,-0.604 0.176,-0.224 0.377,-0.426 0.602,-0.602 0.177,-0.225 0.378,-0.426 0.602,-0.603 0.177,-0.224 0.378,-0.426 0.603,-0.603 0.177,-0.225 0.379,-0.427 0.604,-0.603 0.176,-0.225 0.377,-0.426 0.602,-0.602 0.177,-0.226 0.378,-0.426 0.603,-0.603 0.177,-0.226 0.379,-0.428 0.605,-0.605 0.175,-0.222 0.375,-0.422 0.598,-0.598 0.177,-0.226 0.38,-0.429 0.606,-0.607 0.177,-0.225 0.378,-0.426 0.603,-0.602 0.177,-0.226 0.378,-0.427 0.603,-0.603 0.177,-0.225 0.377,-0.426 0.602,-0.601 0.176,-0.226 0.378,-0.427 0.603,-0.604 0.177,-0.225 0.378,-0.427 0.604,-0.604 0.176,-0.224 0.377,-0.425 0.602,-0.602 0.176,-0.224 0.377,-0.426 0.602,-0.603 0.177,-0.225 0.379,-0.427 0.604,-0.603 0.177,-0.225 0.377,-0.425 0.601,-0.601 0.177,-0.226 0.378,-0.428 0.605,-0.605 0.176,-0.224 0.377,-0.426 0.602,-0.602 0.177,-0.226 0.379,-0.427 0.604,-0.605 0.176,-0.224 0.377,-0.424 0.601,-0.601 0.177,-0.225 0.378,-0.426 0.603,-0.603 0.177,-0.225 0.379,-0.426 0.603,-0.603 0.177,-0.225 0.378,-0.426 0.602,-0.602 0.177,-0.225 0.378,-0.427 0.604,-0.603 0.177,-0.225 0.379,-0.427 0.604,-0.604 0.176,-0.223 0.376,-0.424 0.599,-0.6 0.178,-0.226 0.38,-0.429 0.607,-0.607 0.176,-0.223 0.376,-0.423 0.6,-0.599 0.177,-0.227 0.38,-0.429 0.606,-0.607 0.176,-0.223 0.376,-0.422 0.598,-0.597 0.178,-0.227 0.381,-0.43 0.607,-0.608 0.176,-0.223 0.377,-0.424 0.601,-0.599 0.177,-0.226 0.379,-0.428 0.604,-0.606 0.176,-0.223 0.377,-0.424 0.601,-0.6 0.177,-0.226 0.379,-0.428 0.605,-0.606 0.176,-0.224 0.377,-0.425 0.601,-0.601 0.177,-0.225 0.379,-0.427 0.603,-0.603 0.177,-0.225 0.378,-0.426 0.604,-0.603 0.177,-0.226 0.379,-0.428 0.604,-0.605 0.176,-0.223 0.377,-0.424 0.6,-0.599 0.177,-0.226 0.379,-0.428 0.605,-0.606 0.176,-0.224 0.378,-0.426 0.602,-0.602 0.177,-0.225 0.379,-0.427 0.604,-0.603 0.176,-0.225 0.377,-0.426 0.601,-0.602 0.177,-0.225 0.379,-0.427 0.605,-0.604 0.176,-0.224 0.377,-0.425 0.601,-0.602 0.177,-0.225 0.379,-0.426 0.604,-0.603 0.176,-0.224 0.377,-0.425 0.601,-0.602 0.177,-0.225 0.379,-0.427 0.605,-0.604 0.176,-0.224 0.377,-0.425 0.601,-0.601 0.177,-0.226 0.379,-0.428 0.604,-0.605 0.177,-0.224 0.377,-0.425 0.602,-0.601 0.177,-0.226 0.379,-0.428 0.605,-0.606 0.176,-0.222 0.376,-0.422 0.599,-0.598 0.178,-0.227 0.381,-0.43 0.607,-0.607 0.176,-0.224 0.377,-0.425 0.6,-0.6 0.177,-0.226 0.379,-0.428 0.605,-0.605 0.176,-0.224 0.376,-0.424 0.6,-0.6 0.178,-0.227 0.38,-0.429 0.607,-0.607 0.176,-0.223 0.375,-0.423 0.599,-0.598 0.177,-0.227 0.379,-0.43 0.606,-0.608 0.176,-0.223 0.376,-0.423 0.599,-0.598 0.178,-0.227 0.38,-0.429 0.606,-0.606 0.176,-0.225 0.377,-0.426 0.601,-0.602 0.177,-0.225 0.379,-0.427 0.604,-0.604 0.177,-0.225 0.379,-0.426 0.603,-0.603 0.177,-0.224 0.378,-0.426 0.603,-0.602 0.176,-0.225 0.377,-0.426 0.602,-0.603 0.177,-0.225 0.379,-0.427 0.605,-0.603 0.176,-0.225 0.376,-0.425 0.6,-0.601 0.177,-0.226 0.379,-0.428 0.605,-0.604 0.176,-0.225 0.376,-0.426 0.6,-0.602 0.177,-0.226 0.379,-0.427 0.605,-0.604 0.176,-0.224 0.377,-0.425 0.601,-0.601 0.177,-0.226 0.379,-0.428 0.604,-0.605 0.177,-0.224 0.378,-0.425 0.603,-0.602 0.176,-0.224 0.377,-0.426 0.602,-0.603 0.177,-0.225 0.378,-0.427 0.604,-0.603 0.176,-0.225 0.378,-0.426 0.603,-0.603 0.176,-0.225 0.378,-0.425 0.602,-0.602 0.177,-0.225 0.379,-0.427 0.604,-0.603 0.176,-0.225 0.377,-0.426 0.602,-0.603 0.176,-0.225 0.378,-0.426 0.603,-0.604 0.177,-0.224 0.378,-0.425 0.602,-0.601 0.177,-0.226 0.379,-0.428 0.604,-0.605 0.177,-0.224 0.377,-0.425 0.601,-0.6 0.178,-0.227 0.38,-0.429 0.606,-0.607 0.176,-0.223 0.376,-0.423 0.6,-0.599 0.177,-0.226 0.38,-0.429 0.606,-0.606 0.176,-0.225 0.377,-0.425 0.6,-0.6 0.177,-0.226 0.379,-0.428 0.605,-0.605 0.176,-0.225 0.377,-0.426 0.602,-0.602 0.176,-0.225 0.378,-0.426 0.602,-0.602 0.177,-0.225 0.379,-0.427 0.604,-0.604 0.176,-0.224 0.377,-0.425 0.602,-0.602 0.177,-0.225 0.378,-0.426 0.603,-0.603 0.177,-0.225 0.378,-0.427 0.603,-0.603 0.177,-0.225 0.378,-0.426 0.603,-0.603 0.176,-0.225 0.378,-0.426 0.603,-0.602 0.176,-0.225 0.377,-0.426 0.601,-0.602 0.177,-0.226 0.379,-0.428 0.605,-0.605 0.176,-0.225 0.377,-0.426 0.602,-0.603 0.177,-0.224 0.378,-0.426 0.603,-0.603 0.177,-0.224 0.378,-0.426 0.603,-0.603 0.177,-0.224 0.378,-0.426 0.603,-0.602 0.176,-0.225 0.378,-0.426 0.603,-0.602 0.176,-0.226 0.377,-0.426 0.602,-0.602 0.176,-0.226 0.379,-0.428 0.604,-0.605 0.176,-0.224 0.377,-0.426 0.602,-0.602 0.176,-0.225 0.378,-0.426 0.602,-0.602 0.177,-0.225 0.378,-0.427 0.603,-0.604 0.177,-0.225 0.379,-0.427 0.604,-0.603 0.176,-0.225 0.378,-0.426 0.602,-0.602 0.177,-0.225 0.378,-0.426 0.603,-0.603 0.177,-0.225 0.378,-0.427 0.604,-0.604 0.176,-0.225 0.378,-0.426 0.603,-0.603 0.176,-0.224 0.377,-0.425 0.601,-0.601 0.177,-0.225 0.378,-0.427 0.603,-0.604 0.178,-0.225 0.379,-0.427 0.604,-0.603 0.176,-0.225 0.377,-0.426 0.602,-0.602 0.176,-0.225 0.378,-0.426 0.603,-0.603 0.177,-0.225 0.378,-0.427 0.604,-0.604 0.176,-0.225 0.377,-0.426 0.602,-0.602 0.176,-0.225 0.378,-0.426 0.602,-0.603 0.177,-0.225 0.379,-0.426 0.604,-0.603 0.176,-0.225 0.377,-0.426 0.602,-0.602 0.177,-0.226 0.378,-0.427 0.603,-0.604 0.177,-0.224 0.378,-0.426 0.603,-0.603 0.177,-0.225 0.378,-0.426 0.604,-0.603 0.176,-0.224 0.377,-0.425 0.602,-0.602 0.176,-0.224 0.377,-0.426 0.602,-0.603 0.177,-0.225 0.378,-0.426 0.603,-0.603 0.177,-0.225 0.379,-0.426 0.604,-0.603 0.176,-0.225 0.377,-0.426 0.602,-0.602 0.176,-0.225 0.378,-0.426 0.603,-0.603 0.177,-0.225 0.378,-0.426 0.603,-0.603 0.176,-0.225 0.378,-0.426 0.603,-0.603 0.176,-0.225 0.378,-0.426 0.602,-0.603 0.177,-0.225 0.379,-0.426 0.603,-0.603 0.177,-0.225 0.378,-0.426 0.604,-0.603 0.176,-0.224 0.377,-0.425 0.602,-0.602 0.176,-0.225 0.378,-0.426 0.603,-0.603 0.177,-0.225 0.378,-0.426 0.603,-0.603 0.176,-0.225 0.378,-0.426 0.603,-0.603 0.176,-0.225 0.378,-0.426 0.602,-0.603 0.653,-0.83 1.654,-1.374 2.792,-1.374 h 15.424 c 1.968,0 3.563,1.596 3.563,3.564 v 31.582 c 0.106,-0.104 0.216,-0.204 0.323,-0.308 0.038,-0.042 0.066,-0.089 0.106,-0.129 0.163,-0.164 0.333,-0.316 0.499,-0.475 0.038,-0.041 0.065,-0.088 0.104,-0.128 0.162,-0.162 0.331,-0.314 0.496,-0.472 0.038,-0.042 0.066,-0.09 0.107,-0.131 0.163,-0.162 0.333,-0.316 0.498,-0.475 0.038,-0.041 0.065,-0.088 0.105,-0.128 0.163,-0.162 0.332,-0.315 0.497,-0.473 0.038,-0.042 0.066,-0.09 0.106,-0.13 0.162,-0.161 0.33,-0.314 0.495,-0.472 0.039,-0.041 0.066,-0.09 0.107,-0.13 0.163,-0.163 0.333,-0.316 0.499,-0.476 0.038,-0.041 0.065,-0.087 0.105,-0.127 0.161,-0.162 0.33,-0.315 0.495,-0.472 0.039,-0.042 0.066,-0.09 0.107,-0.131 0.163,-0.163 0.332,-0.315 0.497,-0.474 0.038,-0.041 0.066,-0.089 0.106,-0.129 0.163,-0.163 0.333,-0.316 0.499,-0.475 0.037,-0.041 0.065,-0.088 0.104,-0.128 0.162,-0.162 0.331,-0.313 0.495,-0.472 0.039,-0.041 0.067,-0.09 0.107,-0.131 0.163,-0.163 0.334,-0.316 0.5,-0.475 0.037,-0.041 0.064,-0.087 0.104,-0.128 0.162,-0.162 0.332,-0.315 0.497,-0.473 0.038,-0.042 0.065,-0.089 0.106,-0.129 0.161,-0.162 0.33,-0.314 0.495,-0.472 0.039,-0.042 0.066,-0.09 0.107,-0.131 0.163,-0.164 0.333,-0.316 0.499,-0.476 0.038,-0.04 0.065,-0.087 0.104,-0.127 0.162,-0.162 0.331,-0.314 0.496,-0.472 0.038,-0.042 0.066,-0.09 0.107,-0.131 0.162,-0.163 0.332,-0.315 0.497,-0.474 0.038,-0.041 0.066,-0.089 0.106,-0.129 0.163,-0.163 0.333,-0.316 0.499,-0.475 0.038,-0.041 0.064,-0.088 0.104,-0.128 0.162,-0.161 0.33,-0.314 0.496,-0.472 0.038,-0.041 0.065,-0.09 0.106,-0.13 0.163,-0.163 0.332,-0.316 0.498,-0.474 0.038,-0.042 0.065,-0.089 0.105,-0.129 0.163,-0.163 0.332,-0.316 0.498,-0.474 0.038,-0.042 0.065,-0.089 0.105,-0.129 0.163,-0.163 0.332,-0.315 0.497,-0.474 0.038,-0.041 0.066,-0.089 0.106,-0.129 0.163,-0.163 0.333,-0.316 0.499,-0.475 0.037,-0.041 0.065,-0.088 0.104,-0.128 0.162,-0.162 0.331,-0.313 0.495,-0.472 0.039,-0.042 0.067,-0.09 0.108,-0.131 0.162,-0.162 0.331,-0.315 0.497,-0.473 0.038,-0.042 0.065,-0.09 0.105,-0.13 0.163,-0.163 0.334,-0.316 0.499,-0.475 0.038,-0.041 0.065,-0.087 0.105,-0.127 0.161,-0.162 0.33,-0.315 0.495,-0.472 0.039,-0.042 0.066,-0.09 0.107,-0.131 0.163,-0.163 0.332,-0.316 0.497,-0.474 0.038,-0.042 0.066,-0.089 0.106,-0.129 0.163,-0.163 0.332,-0.315 0.497,-0.474 0.038,-0.041 0.066,-0.089 0.106,-0.129 0.162,-0.162 0.33,-0.314 0.494,-0.471 0.039,-0.043 0.067,-0.091 0.109,-0.133 0.163,-0.163 0.333,-0.316 0.499,-0.475 0.037,-0.041 0.064,-0.087 0.104,-0.128 0.163,-0.162 0.333,-0.316 0.498,-0.474 0.038,-0.041 0.065,-0.088 0.104,-0.128 0.163,-0.162 0.332,-0.315 0.498,-0.473 0.038,-0.042 0.065,-0.089 0.105,-0.129 0.163,-0.163 0.332,-0.316 0.498,-0.474 0.038,-0.042 0.065,-0.089 0.105,-0.129 0.163,-0.163 0.332,-0.316 0.498,-0.474 0.037,-0.042 0.065,-0.089 0.105,-0.129 0.163,-0.163 0.332,-0.315 0.497,-0.474 0.038,-0.041 0.065,-0.089 0.106,-0.129 0.162,-0.163 0.332,-0.315 0.497,-0.474 0.038,-0.041 0.066,-0.089 0.106,-0.129 0.162,-0.162 0.332,-0.315 0.497,-0.473 0.038,-0.042 0.065,-0.09 0.106,-0.13 0.163,-0.162 0.333,-0.316 0.499,-0.475 0.037,-0.041 0.064,-0.088 0.104,-0.128 0.162,-0.161 0.33,-0.313 0.495,-0.471 0.039,-0.042 0.066,-0.091 0.107,-0.131 0.163,-0.163 0.332,-0.316 0.498,-0.474 0.038,-0.042 0.065,-0.089 0.105,-0.129 0.163,-0.163 0.332,-0.315 0.497,-0.474 0.038,-0.042 0.066,-0.089 0.106,-0.129 0.162,-0.163 0.332,-0.315 0.497,-0.474 0.038,-0.041 0.066,-0.089 0.106,-0.129 6.054,-6.053 14.104,-9.389 22.666,-9.389 17.675,0 32.055,14.38 32.055,32.056 C 9.584,-13.9 5.909,-5.818 0,0" /></g></g></g><g
       id="g94"><g
         clip-path="url(#clipPath100)"
         id="g96"><g
           transform="translate(992.0107,715.4119)"
           id="g102"><path
             id="path104"
             style="fill:#7a9029;fill-opacity:1;fill-rule:nonzero;stroke:none"
             d="m 0,0 v 18.784 c 1.45,1.192 1.215,3.029 1.679,4.574 4.444,14.764 13.605,24.474 29.099,27.615 1.691,0.343 3.69,-0.581 5.083,1.111 h 2.561 c 0.187,-0.644 0.674,-0.829 1.278,-0.833 8.741,-0.049 16.665,-2.923 24.086,-7.255 3.839,-2.241 7.344,-2.197 11.128,0.061 6.012,3.585 12.49,5.95 19.456,7.001 1.553,0.234 3.419,-0.626 4.675,1.026 h 3.415 c 0.188,-0.647 0.679,-0.815 1.284,-0.833 10.274,-0.313 18.464,-5.069 25.517,-12.119 60.577,-60.558 121.136,-121.134 181.706,-181.7 7.148,-7.148 11.63,-15.634 13.289,-25.646 0.234,-1.406 -0.637,-3.192 1.054,-4.26 v -8.539 c -1.321,-0.479 -0.788,-1.67 -0.92,-2.555 -1.008,-6.787 -2.852,-13.3 -5.799,-19.527 -0.988,-2.086 -2.131,-3.001 -4.5,-2.873 -3.746,0.201 -7.511,0.053 -11.486,0.053 0.946,-3.144 5.206,-3.998 3.716,-7.628 -1.066,-2.596 -0.899,-4.642 1.283,-6.877 1.749,-1.791 1.128,-4.754 0.457,-6.933 -0.484,-1.572 -2.801,-0.54 -4.286,-0.752 -1.698,-0.244 -3.547,0.485 -5.882,-0.967 3.994,-1.595 3.323,-4.305 2.367,-6.911 -0.824,-2.245 -0.705,-3.971 1.192,-5.705 2.203,-2.015 1.56,-4.924 0.915,-7.228 -0.64,-2.283 -3.2,-0.827 -4.885,-1.14 -1.543,-0.289 -3.261,0.43 -5.129,-0.788 3.381,-1.861 3.074,-4.462 2.05,-7.094 -0.855,-2.196 -0.792,-3.894 1.027,-5.742 2.009,-2.041 1.285,-4.992 0.687,-7.289 -0.484,-1.861 -2.987,-0.9 -4.577,-0.933 -5.212,-0.11 -10.427,-0.041 -16.021,-0.041 4.292,-5.95 4.241,-6.633 -0.391,-12.22 -2.207,-2.663 -4.802,-4.861 -7.933,-6.33 -2.498,-1.173 -5.083,-2.157 -7.63,-3.226 h -8.538 c -10.67,3.201 -17.681,11.293 -25.016,18.886 -2.053,2.126 -4.166,3.306 -7.096,2.881 -2.472,-0.36 -4.184,0.699 -5.935,2.46 -20.039,20.158 -40.163,40.229 -60.271,60.318 -40.518,40.477 -81.044,80.948 -121.559,121.428 -3.209,3.206 -3.264,6.605 -0.097,9.804 0.909,0.919 0.457,1.817 0.373,2.748 -0.418,4.581 -4.069,6.968 -6.832,9.931 -3.468,3.721 -2.731,8.108 1.566,9.631 -0.015,5.052 -3.087,8.267 -6.524,11.402 -3.864,3.524 -3.657,6.862 0.323,10.108 0.987,0.803 0.445,1.522 -0.097,2.128 -1.138,1.268 -2.375,2.445 -3.567,3.665 -4.831,4.943 -10.121,9.393 -12.369,16.462 C 2.668,-7.913 2.378,-3.589 0,0" /></g></g></g><g
       id="g106"><g
         clip-path="url(#clipPath112)"
         id="g108"><g
           transform="translate(729.884,730.7809)"
           id="g114"><path
             id="path116"
             style="fill:#51adaf;fill-opacity:1;fill-rule:nonzero;stroke:none"
             d="m 0,0 h 6.831 c 0.542,-1.232 1.697,-0.771 2.606,-0.904 7.562,-1.103 14.078,-4.288 19.497,-9.69 1.713,-1.708 3.508,-3.342 5.114,-5.146 1.806,-2.028 2.762,-2.572 4.283,0.552 4.32,8.881 11.854,13.114 21.599,13.456 8.849,0.311 16.173,-2.803 22.527,-9.175 59.775,-59.941 119.64,-119.792 179.577,-179.572 4.713,-4.7 8.558,-9.696 10.339,-16.149 v -11.953 c -2.52,-0.227 -4.92,-0.847 -7.627,-2.188 2.715,-2.565 5.172,-4.885 7.627,-7.204 v -16.223 c -2.213,-4.92 -4.812,-9.459 -9.655,-12.421 -9.987,-6.107 -29.921,-8.037 -39.681,3.577 -0.408,0.486 -0.92,1.118 -1.749,0.631 -1.556,-12.163 -5.538,-16.357 -17.641,-18.823 -1.284,-0.261 -2.917,0.375 -3.85,-1.141 h -21.346 c -0.298,0.841 -1.048,0.826 -1.738,0.909 -7.372,0.886 -13.514,4.071 -18.403,9.698 -0.678,0.782 -1.281,1.879 -2.695,1.844 -2.662,-6.377 -7.872,-9.342 -14.304,-10.871 -2.133,-0.507 -4.528,-0.05 -6.405,-1.58 h -20.492 c -0.174,0.211 -0.334,0.596 -0.521,0.608 -9.956,0.696 -17.115,6.23 -23.321,13.425 -1.258,1.46 -2.224,2.323 -4.528,0.964 -12.366,-7.286 -29.799,-4.973 -40.178,5.394 -61.062,60.977 -122.06,122.018 -183.078,183.039 -3.288,3.288 -5.661,7.088 -6.506,11.732 -0.044,3.975 0.03,7.956 -0.171,11.923 -0.169,3.333 1.078,3.823 4.046,2.868 2.247,-0.723 4.583,-1.692 7.529,-1.427 -2.319,2.407 -4.388,4.334 -6.19,6.485 -1.714,2.046 -4.407,3.353 -5.187,6.078 -3.351,11.7 3.273,24.354 14.906,28.01 10.118,3.179 19.663,2.087 27.89,-5.227 2.65,-2.355 5.177,-4.858 7.649,-7.402 1.462,-1.504 2.245,-2.072 3.525,0.372 4.083,7.803 10.865,12.043 19.295,14.087 1.837,0.446 4.018,-0.231 5.535,1.444 h 6.83 c 0.233,-0.608 0.724,-0.775 1.322,-0.829 7.691,-0.686 14.057,-4.222 19.48,-9.469 3.44,-3.329 6.534,-7.015 10.147,-10.935 5.484,12.401 14.109,19.109 26.612,20.615 0.189,0.023 0.335,0.404 0.5,0.618" /></g></g></g><g
       id="g118"><g
         clip-path="url(#clipPath124)"
         id="g120"><g
           transform="translate(270.5218,730.7809)"
           id="g126"><path
             id="path128"
             style="fill:#eeae44;fill-opacity:1;fill-rule:nonzero;stroke:none"
             d="m 0,0 v 4.269 c 1.457,0.845 0.746,2.299 0.912,3.468 2.467,17.387 10.691,30.048 28.479,34.948 0.49,0.135 0.9,0.567 1.347,0.86 h 15.369 c 7.436,-2.194 14.573,-5.12 21.436,-8.722 1.629,-0.856 3.34,-0.835 4.926,0 6.868,3.61 14.022,6.503 21.453,8.722 h 14.515 c 11.804,-2.655 19.825,-10.733 27.988,-18.923 57.722,-57.909 115.428,-115.838 173.508,-173.388 14.38,-14.249 17.953,-30.572 13.844,-49.503 -2.15,-9.907 -7.209,-18.485 -12.594,-26.865 -2.981,-4.641 -4.19,-9.42 -3.369,-14.955 1.794,-12.081 3.708,-24.198 2.078,-36.469 -2.227,-16.774 -5.224,-33.149 -23.858,-40.214 h -3.415 c -12.557,12.302 -25.114,24.605 -37.942,37.174 -0.502,-4.12 -0.64,-7.559 -1.377,-10.864 -2.262,-10.145 -4.749,-20.241 -14.473,-26.31 h -2.561 c -7.352,2.478 -12.561,7.794 -17.878,13.119 -59.158,59.257 -118.373,118.459 -177.614,177.634 -4.725,4.721 -8.24,10.12 -10.37,16.403 -5.371,15.845 -5.969,32.042 -2.914,48.359 1.772,9.461 1.267,18.048 -4.772,26.229 -5.412,7.333 -8.839,15.817 -10.845,24.81 C 1.116,-6.829 1.588,-3.225 0,0" /></g></g></g><g
       id="g130"><g
         clip-path="url(#clipPath136)"
         id="g132"><g
           transform="translate(408.7369,733.8531)"
           id="g138"><path
             id="path140"
             style="fill:#ffffff;fill-opacity:1;fill-rule:nonzero;stroke:none"
             d="m 0,0 c 0,23.862 -15.499,41.179 -36.855,41.179 -12.812,0 -20.08,-3.876 -25.387,-6.708 -6.425,-3.427 -7.335,-3.427 -13.76,0 -5.307,2.832 -12.576,6.708 -25.387,6.708 -21.356,0 -36.856,-17.317 -36.856,-41.179 0,-17.784 7.342,-29.725 12.703,-38.446 2.648,-4.312 5.15,-8.386 5.15,-10.845 0,-7.788 -0.694,-11.839 -1.428,-16.13 -1,-5.829 -2.034,-11.858 -0.956,-25.828 2.163,-28.017 14.819,-40.777 25.661,-40.777 6.814,0 16.682,18.991 16.07,39.109 -0.125,4.14 1.147,7.803 3.585,10.316 2.151,2.219 5.035,3.389 8.338,3.389 3.303,0 6.186,-1.17 8.336,-3.389 2.438,-2.513 3.711,-6.176 3.585,-10.316 -0.61,-20.118 9.064,-39.109 16.073,-39.109 10.842,0 23.496,12.758 25.657,40.777 1.081,13.97 0.047,19.999 -0.952,25.828 -0.735,4.291 -1.431,8.342 -1.431,16.13 0,2.459 2.504,6.533 5.154,10.846 C -7.341,-29.725 0,-17.784 0,0" /></g><g
           transform="translate(678.2295,675.5269)"
           id="g142"><path
             id="path144"
             style="fill:#ffffff;fill-opacity:1;fill-rule:nonzero;stroke:none"
             d="m 0,0 c 0,-4.181 -3.389,-7.571 -7.571,-7.571 h -5.679 c -4.182,0 -7.572,3.39 -7.572,7.571 v 2.19 c -7.511,0.649 -14.544,1.434 -21.06,2.291 V -9.937 c 0,-16.727 13.56,-19.629 30.287,-19.629 h 2.367 c 16.727,0 30.288,2.902 30.288,19.629 V 0.365 C 13.775,0.376 6.743,0.542 0,0.837 Z" /></g><g
           transform="translate(657.4073,688.778)"
           id="g146"><path
             id="path148"
             style="fill:#ffffff;fill-opacity:1;fill-rule:nonzero;stroke:none"
             d="m 0,0 c 0,4.182 3.39,7.572 7.572,7.572 h 5.679 c 4.182,0 7.571,-3.39 7.571,-7.572 v -3.165 c 6.725,-0.305 13.763,-0.481 21.06,-0.492 v 15.489 c 0,16.728 -13.56,30.288 -30.288,30.288 H 9.227 C -7.499,42.12 -21.06,31.402 -21.06,14.675 V 0.578 C -14.674,-0.279 -7.629,-1.09 0,-1.767 Z" /></g><g
           transform="translate(613.0414,675.0612)"
           id="g150"><path
             id="path152"
             style="fill:#ffffff;fill-opacity:1;fill-rule:nonzero;stroke:none"
             d="M 0,0 H -5.679 C -9.86,0 -13.25,3.39 -13.25,7.572 v 3.795 c -7.303,1.646 -12.268,3.021 -14.553,3.688 V 2.874 c 0,-13.268 11.297,-19.652 24.024,-21.254 10.048,-1.266 25.904,2.301 25.904,15.57 V 5.103 C 16.919,5.801 12.054,6.544 7.558,7.301 7.414,3.245 4.09,0 0,0" /></g><g
           transform="translate(586.6122,699.3363)"
           id="g154"><path
             id="path156"
             style="fill:#ffffff;fill-opacity:1;fill-rule:nonzero;stroke:none"
             d="m 0,0 c 0.12,-0.038 4.795,-1.475 13.181,-3.414 0.021,4.164 3.401,7.533 7.569,7.533 h 5.679 c 4.182,0 7.572,-3.39 7.572,-7.572 V -7.58 c 4.328,-0.743 9.2,-1.507 14.553,-2.24 V 6.378 c 0,13.269 -10.757,24.026 -24.026,24.026 H 22.65 C 9.383,30.404 -1.374,21.902 -1.374,8.633 V 0.21 C -0.919,0.21 -0.457,0.143 0,0" /></g><g
           transform="translate(742.5922,675.5269)"
           id="g158"><path
             id="path160"
             style="fill:#ffffff;fill-opacity:1;fill-rule:nonzero;stroke:none"
             d="m 0,0 c 0,-4.181 -3.389,-7.571 -7.571,-7.571 h -5.679 c -4.183,0 -7.572,3.39 -7.572,7.571 V 0.837 C -27.564,0.542 -34.597,0.376 -41.882,0.365 V -9.937 c 0,-16.727 13.56,-19.629 30.288,-19.629 h 2.367 c 16.726,0 30.287,2.902 30.287,19.629 V 4.481 C 14.544,3.624 7.511,2.839 0,2.19 Z" /></g><g
           transform="translate(721.77,688.778)"
           id="g162"><path
             id="path164"
             style="fill:#ffffff;fill-opacity:1;fill-rule:nonzero;stroke:none"
             d="m 0,0 c 0,4.182 3.389,7.572 7.572,7.572 h 5.679 c 4.182,0 7.571,-3.39 7.571,-7.572 v -1.767 c 7.63,0.677 14.675,1.488 21.06,2.345 v 14.097 c 0,16.727 -13.56,27.445 -30.287,27.445 H 9.228 C -7.499,42.12 -21.06,28.56 -21.06,11.832 V -3.657 c 7.298,0.011 14.335,0.187 21.06,0.492 z" /></g><g
           transform="translate(800.2084,682.6328)"
           id="g166"><path
             id="path168"
             style="fill:#ffffff;fill-opacity:1;fill-rule:nonzero;stroke:none"
             d="m 0,0 c 0,-4.182 -3.389,-7.572 -7.571,-7.572 h -5.679 c -4.09,0 -7.415,3.246 -7.558,7.301 -4.496,-0.756 -9.361,-1.5 -14.567,-2.198 v -7.913 c 0,-13.268 15.855,-16.836 25.904,-15.57 12.727,1.602 24.024,7.986 24.024,21.255 V 7.483 C 12.268,6.817 7.303,5.441 0,3.796 Z" /></g><g
           transform="translate(779.387,695.8838)"
           id="g170"><path
             id="path172"
             style="fill:#ffffff;fill-opacity:1;fill-rule:nonzero;stroke:none"
             d="m 0,0 c 0,4.182 3.39,7.572 7.571,7.572 h 5.679 c 4.169,0 7.549,-3.369 7.57,-7.533 8.43,1.949 13.109,3.392 13.182,3.414 0.457,0.142 0.919,0.21 1.372,0.21 v 8.422 c 0,13.269 -10.756,21.771 -24.024,21.771 H 9.473 C -3.796,33.856 -14.553,23.1 -14.553,9.831 V -6.368 C -9.2,-5.635 -4.329,-4.871 0,-4.127 Z" /></g><g
           transform="translate(321.0439,203.1138)"
           id="g174"><path
             id="path176"
             style="fill:#ffffff;fill-opacity:1;fill-rule:nonzero;stroke:none"
             d="m 0,0 c 0,-1.968 -1.595,-3.564 -3.563,-3.564 h -15.424 c -1.968,0 -3.563,1.596 -3.563,3.564 v 80.569 c 0,1.966 1.595,3.562 3.563,3.562 H -3.563 C -1.595,84.131 0,82.535 0,80.569 Z" /></g><g
           transform="translate(319.2695,290.8284)"
           id="g178"><path
             id="path180"
             style="fill:#ffffff;fill-opacity:1;fill-rule:nonzero;stroke:none"
             d="M 0,0 C 0,0.739 -0.598,1.336 -1.337,1.336 H -17.664 C -18.402,1.336 -19,0.739 -19,0 v -1.783 c 0,-0.737 0.598,-1.335 1.336,-1.335 H -1.337 C -0.598,-3.118 0,-2.52 0,-1.783 Z" /></g><g
           transform="translate(309.7693,375.7181)"
           id="g182"><path
             id="path184"
             style="fill:#ffffff;fill-opacity:1;fill-rule:nonzero;stroke:none"
             d="m 0,0 c -13.334,0 -24.182,-10.848 -24.182,-24.183 0,-13.332 10.848,-24.18 24.182,-24.18 13.334,0 24.182,10.848 24.182,24.18 C 24.182,-10.848 13.334,0 0,0 m 0,-56.236 c -17.675,0 -32.055,14.38 -32.055,32.053 0,17.678 14.38,32.056 32.055,32.056 17.675,0 32.055,-14.378 32.055,-32.056 0,-17.673 -14.38,-32.053 -32.055,-32.053" /></g><path
           id="path186"
           style="fill:#ffffff;fill-opacity:1;fill-rule:nonzero;stroke:none"
           d="m 313.706,278.149 h -7.874 v 45.27 h 7.874 z" /><g
           transform="translate(358.1843,380.0273)"
           id="g188"><path
             id="path190"
             style="fill:#ffffff;fill-opacity:1;fill-rule:nonzero;stroke:none"
             d="M 0,0 C 0,1.969 1.596,3.564 3.564,3.564 H 18.987 C 20.955,3.564 22.55,1.969 22.55,0 v -80.566 c 0,-1.969 -1.595,-3.565 -3.563,-3.565 H 3.564 C 1.596,-84.131 0,-82.535 0,-80.566 Z" /></g><g
           transform="translate(359.9591,292.3144)"
           id="g192"><path
             id="path194"
             style="fill:#ffffff;fill-opacity:1;fill-rule:nonzero;stroke:none"
             d="m 0,0 c 0,-0.737 0.598,-1.338 1.337,-1.338 h 16.327 c 0.738,0 1.337,0.601 1.337,1.338 v 1.783 c 0,0.737 -0.599,1.335 -1.337,1.335 H 1.337 C 0.598,3.118 0,2.52 0,1.783 Z" /></g><g
           transform="translate(369.4588,199.55)"
           id="g196"><path
             id="path198"
             style="fill:#ffffff;fill-opacity:1;fill-rule:nonzero;stroke:none"
             d="m 0,0 c -8.562,0 -16.612,3.335 -22.666,9.389 -1.537,1.537 -1.537,4.029 0,5.566 1.537,1.538 4.029,1.538 5.568,0 4.567,-4.566 10.639,-7.08 17.098,-7.08 13.334,0 24.182,10.846 24.182,24.18 0,13.333 -10.848,24.183 -24.182,24.183 -2.174,0 -3.936,1.763 -3.936,3.936 v 49.207 c 0,2.174 1.762,3.935 3.936,3.935 2.175,0 3.937,-1.761 3.937,-3.935 V 63.871 C 19.762,61.923 32.055,48.398 32.055,32.055 32.055,14.38 17.675,0 0,0" /></g><g
           transform="translate(785.7383,266.4967)"
           id="g200"><path
             id="path202"
             style="fill:#ffffff;fill-opacity:1;fill-rule:nonzero;stroke:none"
             d="m 0,0 c 0,-1.156 -0.937,-2.094 -2.094,-2.094 h -16.31 l -27.133,-25.119 h -121.578 c -1.156,0 -2.094,0.938 -2.094,2.094 v 20.932 c 0,1.156 0.938,2.093 2.094,2.093 H -53.204 L -21.11,23.024 H -2.094 C -0.937,23.024 0,22.087 0,20.931 Z" /></g><g
           transform="translate(635.0146,253.6692)"
           id="g204"><path
             id="path206"
             style="fill:#ffffff;fill-opacity:1;fill-rule:nonzero;stroke:none"
             d="m 0,0 c 0,-1.157 -0.937,-2.094 -2.093,-2.094 h -6.28 c -1.156,0 -2.094,0.937 -2.094,2.094 v 49.541 c 0,1.155 0.938,2.093 2.094,2.093 h 6.28 C -0.937,51.634 0,50.696 0,49.541 Z" /></g><g
           transform="translate(648.272,253.6692)"
           id="g208"><path
             id="path210"
             style="fill:#ffffff;fill-opacity:1;fill-rule:nonzero;stroke:none"
             d="m 0,0 c 0,-1.157 -0.937,-2.094 -2.093,-2.094 h -6.28 c -1.156,0 -2.094,0.937 -2.094,2.094 v 49.541 c 0,1.155 0.938,2.093 2.094,2.093 h 6.28 C -0.937,51.634 0,50.696 0,49.541 Z" /></g><g
           transform="translate(661.5297,253.6692)"
           id="g212"><path
             id="path214"
             style="fill:#ffffff;fill-opacity:1;fill-rule:nonzero;stroke:none"
             d="m 0,0 c 0,-1.157 -0.937,-2.094 -2.093,-2.094 h -6.28 c -1.157,0 -2.094,0.937 -2.094,2.094 v 49.541 c 0,1.155 0.937,2.093 2.094,2.093 h 6.28 C -0.937,51.634 0,50.696 0,49.541 Z" /></g><g
           transform="translate(674.7871,253.6692)"
           id="g216"><path
             id="path218"
             style="fill:#ffffff;fill-opacity:1;fill-rule:nonzero;stroke:none"
             d="m 0,0 c 0,-1.157 -0.937,-2.094 -2.093,-2.094 h -6.281 c -1.155,0 -2.092,0.937 -2.092,2.094 v 49.541 c 0,1.155 0.937,2.093 2.092,2.093 h 6.281 C -0.937,51.634 0,50.696 0,49.541 Z" /></g><g
           transform="translate(688.0444,253.6692)"
           id="g220"><path
             id="path222"
             style="fill:#ffffff;fill-opacity:1;fill-rule:nonzero;stroke:none"
             d="m 0,0 c 0,-1.157 -0.937,-2.094 -2.094,-2.094 h -6.28 c -1.155,0 -2.092,0.937 -2.092,2.094 v 49.541 c 0,1.155 0.937,2.093 2.092,2.093 h 6.28 C -0.937,51.634 0,50.696 0,49.541 Z" /></g><g
           transform="translate(701.3022,253.6692)"
           id="g224"><path
             id="path226"
             style="fill:#ffffff;fill-opacity:1;fill-rule:nonzero;stroke:none"
             d="m 0,0 c 0,-1.157 -0.938,-2.094 -2.094,-2.094 h -6.28 c -1.156,0 -2.093,0.937 -2.093,2.094 v 49.541 c 0,1.155 0.937,2.093 2.093,2.093 h 6.28 C -0.938,51.634 0,50.696 0,49.541 Z" /></g><g
           transform="translate(714.5591,253.6692)"
           id="g228"><path
             id="path230"
             style="fill:#ffffff;fill-opacity:1;fill-rule:nonzero;stroke:none"
             d="m 0,0 c 0,-1.157 -0.937,-2.094 -2.094,-2.094 h -6.278 c -1.158,0 -2.095,0.937 -2.095,2.094 v 49.541 c 0,1.155 0.937,2.093 2.095,2.093 h 6.278 C -0.937,51.634 0,50.696 0,49.541 Z" /></g><g
           transform="translate(727.816,253.6692)"
           id="g232"><path
             id="path234"
             style="fill:#ffffff;fill-opacity:1;fill-rule:nonzero;stroke:none"
             d="m 0,0 c 0,-1.157 -0.937,-2.094 -2.094,-2.094 h -6.278 c -1.157,0 -2.094,0.937 -2.094,2.094 v 49.541 c 0,1.155 0.937,2.093 2.094,2.093 h 6.278 C -0.937,51.634 0,50.696 0,49.541 Z" /></g><g
           transform="translate(729.3895,324.0579)"
           id="g236"><path
             id="path238"
             style="fill:#ffffff;fill-opacity:1;fill-rule:nonzero;stroke:none"
             d="m 0,0 c 0,6.937 -5.623,12.56 -12.56,12.56 h -84.084 c -14.996,0 -18.485,7.24 -18.485,7.24 0,-30.004 13.084,-34.452 24.247,-34.452 h 78.322 c 6.937,0 12.56,5.622 12.56,12.56 z" /></g><g
           transform="translate(1121.9417,696.7531)"
           id="g240"><path
             id="path242"
             style="fill:#ffffff;fill-opacity:1;fill-rule:nonzero;stroke:none"
             d="m 0,0 c 3.986,7.614 7.566,17.182 7.566,29.602 0,23.862 -15.499,41.179 -36.855,41.179 -12.812,0 -20.08,-3.876 -25.386,-6.707 -6.426,-3.428 -7.336,-3.428 -13.76,0 -5.308,2.831 -12.576,6.707 -25.388,6.707 -21.356,0 -36.855,-17.317 -36.855,-41.179 0,-12.42 3.58,-21.988 7.568,-29.602 z" /></g><g
           transform="translate(1109.0575,681.698)"
           id="g244"><path
             id="path246"
             style="fill:#ffffff;fill-opacity:1;fill-rule:nonzero;stroke:none"
             d="M 0,0 2.647,9.877 H -99.278 L -96.752,0 h -4.014 V -7.246 H 4.134 V 0 Z" /></g><g
           transform="translate(1106.1442,670.8292)"
           id="g248"><path
             id="path250"
             style="fill:#ffffff;fill-opacity:1;fill-rule:nonzero;stroke:none"
             d="m 0,0 h -91.058 l 2.806,-10.974 h -3.922 v -7.247 H 1.367 v 7.247 H -2.94 Z" /></g><g
           transform="translate(1097.8275,639.7947)"
           id="g252"><path
             id="path254"
             style="fill:#ffffff;fill-opacity:1;fill-rule:nonzero;stroke:none"
             d="M 0,0 2.463,9.19 H -77.153 L -74.804,0 c 0,-0.599 0.02,-1.193 0.049,-1.784 h -2.95 V -9.031 H 3.532 v 7.247 h -3.58 C -0.02,-1.193 0,-0.599 0,0" /></g><g
           transform="translate(1060.4258,609.3249)"
           id="g256"><path
             id="path258"
             style="fill:#ffffff;fill-opacity:1;fill-rule:nonzero;stroke:none"
             d="M 0,0 C 10.985,0 20.335,6.991 23.847,16.766 H -23.849 C -20.334,6.991 -10.985,0 0,0" /></g><g
           transform="translate(1084.5657,210.5481)"
           id="g260"><path
             id="path262"
             style="fill:#ffffff;fill-opacity:1;fill-rule:nonzero;stroke:none"
             d="m 0,0 c -2.394,0 -4.331,1.937 -4.331,4.33 v 138.228 h -33.205 c -2.394,0 -4.331,1.937 -4.331,4.33 0,2.394 1.937,4.331 4.331,4.331 H 0 c 2.395,0 4.332,-1.937 4.332,-4.331 V 4.33 C 4.332,1.937 2.395,0 0,0" /></g><g
           transform="translate(1049.6853,333.9587)"
           id="g264"><path
             id="path266"
             style="fill:#ffffff;fill-opacity:1;fill-rule:nonzero;stroke:none"
             d="m 0,0 c 4.34,4.082 7.089,9.832 7.089,16.258 0,12.359 -10.02,22.377 -22.374,22.377 -5.498,0 -10.468,-2.059 -14.363,-5.349 z" /></g><g
           transform="translate(996.2448,318.5305)"
           id="g268"><path
             id="path270"
             style="fill:#ffffff;fill-opacity:1;fill-rule:nonzero;stroke:none"
             d="m 0,0 c 9.496,0 17.194,7.697 17.194,17.194 0,9.491 -7.698,17.189 -17.194,17.189 -9.491,0 -17.189,-7.698 -17.189,-17.189 C -17.189,7.697 -9.491,0 0,0" /></g><g
           transform="translate(1006.9569,318.8131)"
           id="g272"><path
             id="path274"
             style="fill:#ffffff;fill-opacity:1;fill-rule:nonzero;stroke:none"
             d="m 0,0 c -3.026,-3.172 -2.905,-8.194 0.263,-11.218 l 24.872,-23.731 c 1.476,-1.406 3.441,-2.192 5.48,-2.192 h 50.786 l 57.679,-33.005 c 1.244,-0.708 2.595,-1.046 3.931,-1.046 2.755,0 5.428,1.434 6.897,3.994 2.174,3.805 0.856,8.651 -2.949,10.828 l -59.511,34.052 c -1.201,0.685 -2.557,1.046 -3.941,1.046 H 33.791 L 11.22,0.265 C 8.051,3.286 3.03,3.165 0,0" /></g><g
           transform="translate(1154.0789,233.585)"
           id="g276"><path
             id="path278"
             style="fill:#ffffff;fill-opacity:1;fill-rule:nonzero;stroke:none"
             d="m 0,0 -70.584,42.648 c -1.371,0.824 -2.927,1.158 -4.473,1.084 l 0.038,0.14 h -51.685 l -51.036,49.887 c -3.133,3.064 -8.151,3.006 -11.22,-0.123 -3.063,-3.135 -3.006,-8.159 0.124,-11.22 l 73.723,-72.068 c 2.53,-2.472 6.393,-2.974 9.469,-1.224 l 30.838,17.535 66.601,-40.241 c 1.281,-0.776 2.696,-1.143 4.094,-1.143 2.689,0 5.308,1.364 6.8,3.831 C 4.955,-7.143 3.751,-2.266 0,0" /></g><g
           transform="translate(1100.8185,213.3706)"
           id="g280"><path
             id="path282"
             style="fill:#ffffff;fill-opacity:1;fill-rule:nonzero;stroke:none"
             d="m 0,0 c 0,-1.559 -1.263,-2.822 -2.823,-2.822 h -26.536 c -1.559,0 -2.822,1.263 -2.822,2.822 0,1.558 1.263,2.822 2.822,2.822 H -2.823 C -1.263,2.822 0,1.558 0,0" /></g><g
           transform="translate(408.7369,733.8531)"
           id="g284"><path
             id="path286"
             style="fill:#ffffff;fill-opacity:1;fill-rule:nonzero;stroke:none"
             d="m 0,0 c 0,23.862 -15.499,41.179 -36.855,41.179 -12.812,0 -20.08,-3.876 -25.387,-6.708 -6.425,-3.427 -7.335,-3.427 -13.76,0 -5.307,2.832 -12.576,6.708 -25.387,6.708 -21.356,0 -36.856,-17.317 -36.856,-41.179 0,-17.784 7.342,-29.725 12.703,-38.446 2.648,-4.312 5.15,-8.386 5.15,-10.845 0,-7.788 -0.694,-11.839 -1.428,-16.13 -1,-5.829 -2.034,-11.858 -0.956,-25.828 2.163,-28.017 14.819,-40.777 25.661,-40.777 6.814,0 16.682,18.991 16.07,39.109 -0.125,4.14 1.147,7.803 3.585,10.316 2.151,2.219 5.035,3.389 8.338,3.389 3.303,0 6.186,-1.17 8.336,-3.389 2.438,-2.513 3.711,-6.176 3.585,-10.316 -0.61,-20.118 9.064,-39.109 16.073,-39.109 10.842,0 23.496,12.758 25.657,40.777 1.081,13.97 0.047,19.999 -0.952,25.828 -0.735,4.291 -1.431,8.342 -1.431,16.13 0,2.459 2.504,6.533 5.154,10.846 C -7.341,-29.725 0,-17.784 0,0" /></g><g
           transform="translate(678.2295,675.5269)"
           id="g288"><path
             id="path290"
             style="fill:#ffffff;fill-opacity:1;fill-rule:nonzero;stroke:none"
             d="m 0,0 c 0,-4.181 -3.389,-7.571 -7.571,-7.571 h -5.679 c -4.182,0 -7.572,3.39 -7.572,7.571 v 2.19 c -7.511,0.649 -14.544,1.434 -21.06,2.291 V -9.937 c 0,-16.727 13.56,-19.629 30.287,-19.629 h 2.367 c 16.727,0 30.288,2.902 30.288,19.629 V 0.365 C 13.775,0.376 6.743,0.542 0,0.837 Z" /></g><g
           transform="translate(657.4073,688.778)"
           id="g292"><path
             id="path294"
             style="fill:#ffffff;fill-opacity:1;fill-rule:nonzero;stroke:none"
             d="m 0,0 c 0,4.182 3.39,7.572 7.572,7.572 h 5.679 c 4.182,0 7.571,-3.39 7.571,-7.572 v -3.165 c 6.725,-0.305 13.763,-0.481 21.06,-0.492 v 15.489 c 0,16.728 -13.56,30.288 -30.288,30.288 H 9.227 C -7.499,42.12 -21.06,31.402 -21.06,14.675 V 0.578 C -14.674,-0.279 -7.629,-1.09 0,-1.767 Z" /></g><g
           transform="translate(613.0414,675.0612)"
           id="g296"><path
             id="path298"
             style="fill:#ffffff;fill-opacity:1;fill-rule:nonzero;stroke:none"
             d="M 0,0 H -5.679 C -9.86,0 -13.25,3.39 -13.25,7.572 v 3.795 c -7.303,1.646 -12.268,3.021 -14.553,3.688 V 2.874 c 0,-13.268 11.297,-19.652 24.024,-21.254 10.048,-1.266 25.904,2.301 25.904,15.57 V 5.103 C 16.919,5.801 12.054,6.544 7.558,7.301 7.414,3.245 4.09,0 0,0" /></g><g
           transform="translate(586.6122,699.3363)"
           id="g300"><path
             id="path302"
             style="fill:#ffffff;fill-opacity:1;fill-rule:nonzero;stroke:none"
             d="m 0,0 c 0.12,-0.038 4.795,-1.475 13.181,-3.414 0.021,4.164 3.401,7.533 7.569,7.533 h 5.679 c 4.182,0 7.572,-3.39 7.572,-7.572 V -7.58 c 4.328,-0.743 9.2,-1.507 14.553,-2.24 V 6.378 c 0,13.269 -10.757,24.026 -24.026,24.026 H 22.65 C 9.383,30.404 -1.374,21.902 -1.374,8.633 V 0.21 C -0.919,0.21 -0.457,0.143 0,0" /></g><g
           transform="translate(742.5922,675.5269)"
           id="g304"><path
             id="path306"
             style="fill:#ffffff;fill-opacity:1;fill-rule:nonzero;stroke:none"
             d="m 0,0 c 0,-4.181 -3.389,-7.571 -7.571,-7.571 h -5.679 c -4.183,0 -7.572,3.39 -7.572,7.571 V 0.837 C -27.564,0.542 -34.597,0.376 -41.882,0.365 V -9.937 c 0,-16.727 13.56,-19.629 30.288,-19.629 h 2.367 c 16.726,0 30.287,2.902 30.287,19.629 V 4.481 C 14.544,3.624 7.511,2.839 0,2.19 Z" /></g><g
           transform="translate(721.77,688.778)"
           id="g308"><path
             id="path310"
             style="fill:#ffffff;fill-opacity:1;fill-rule:nonzero;stroke:none"
             d="m 0,0 c 0,4.182 3.389,7.572 7.572,7.572 h 5.679 c 4.182,0 7.571,-3.39 7.571,-7.572 v -1.767 c 7.63,0.677 14.675,1.488 21.06,2.345 v 14.097 c 0,16.727 -13.56,27.445 -30.287,27.445 H 9.228 C -7.499,42.12 -21.06,28.56 -21.06,11.832 V -3.657 c 7.298,0.011 14.335,0.187 21.06,0.492 z" /></g><g
           transform="translate(800.2084,682.6328)"
           id="g312"><path
             id="path314"
             style="fill:#ffffff;fill-opacity:1;fill-rule:nonzero;stroke:none"
             d="m 0,0 c 0,-4.182 -3.389,-7.572 -7.571,-7.572 h -5.679 c -4.09,0 -7.415,3.246 -7.558,7.301 -4.496,-0.756 -9.361,-1.5 -14.567,-2.198 v -7.913 c 0,-13.268 15.855,-16.836 25.904,-15.57 12.727,1.602 24.024,7.986 24.024,21.255 V 7.483 C 12.268,6.817 7.303,5.441 0,3.796 Z" /></g><g
           transform="translate(779.387,695.8838)"
           id="g316"><path
             id="path318"
             style="fill:#ffffff;fill-opacity:1;fill-rule:nonzero;stroke:none"
             d="m 0,0 c 0,4.182 3.39,7.572 7.571,7.572 h 5.679 c 4.169,0 7.549,-3.369 7.57,-7.533 8.43,1.949 13.109,3.392 13.182,3.414 0.457,0.142 0.919,0.21 1.372,0.21 v 8.422 c 0,13.269 -10.756,21.771 -24.024,21.771 H 9.473 C -3.796,33.856 -14.553,23.1 -14.553,9.831 V -6.368 C -9.2,-5.635 -4.329,-4.871 0,-4.127 Z" /></g><g
           transform="translate(321.0439,203.1138)"
           id="g320"><path
             id="path322"
             style="fill:#ffffff;fill-opacity:1;fill-rule:nonzero;stroke:none"
             d="m 0,0 c 0,-1.968 -1.595,-3.564 -3.563,-3.564 h -15.424 c -1.968,0 -3.563,1.596 -3.563,3.564 v 80.569 c 0,1.966 1.595,3.562 3.563,3.562 H -3.563 C -1.595,84.131 0,82.535 0,80.569 Z" /></g><g
           transform="translate(319.2695,290.8284)"
           id="g324"><path
             id="path326"
             style="fill:#ffffff;fill-opacity:1;fill-rule:nonzero;stroke:none"
             d="M 0,0 C 0,0.739 -0.598,1.336 -1.337,1.336 H -17.664 C -18.402,1.336 -19,0.739 -19,0 v -1.783 c 0,-0.737 0.598,-1.335 1.336,-1.335 H -1.337 C -0.598,-3.118 0,-2.52 0,-1.783 Z" /></g><g
           transform="translate(309.7693,375.7181)"
           id="g328"><path
             id="path330"
             style="fill:#ffffff;fill-opacity:1;fill-rule:nonzero;stroke:none"
             d="m 0,0 c -13.334,0 -24.182,-10.848 -24.182,-24.183 0,-13.332 10.848,-24.18 24.182,-24.18 13.334,0 24.182,10.848 24.182,24.18 C 24.182,-10.848 13.334,0 0,0 m 0,-56.236 c -17.675,0 -32.055,14.38 -32.055,32.053 0,17.678 14.38,32.056 32.055,32.056 17.675,0 32.055,-14.378 32.055,-32.056 0,-17.673 -14.38,-32.053 -32.055,-32.053" /></g><path
           id="path332"
           style="fill:#ffffff;fill-opacity:1;fill-rule:nonzero;stroke:none"
           d="m 313.706,278.149 h -7.874 v 45.27 h 7.874 z" /><g
           transform="translate(358.1843,380.0273)"
           id="g334"><path
             id="path336"
             style="fill:#ffffff;fill-opacity:1;fill-rule:nonzero;stroke:none"
             d="M 0,0 C 0,1.969 1.596,3.564 3.564,3.564 H 18.987 C 20.955,3.564 22.55,1.969 22.55,0 v -80.566 c 0,-1.969 -1.595,-3.565 -3.563,-3.565 H 3.564 C 1.596,-84.131 0,-82.535 0,-80.566 Z" /></g><g
           transform="translate(359.9591,292.3144)"
           id="g338"><path
             id="path340"
             style="fill:#ffffff;fill-opacity:1;fill-rule:nonzero;stroke:none"
             d="m 0,0 c 0,-0.737 0.598,-1.338 1.337,-1.338 h 16.327 c 0.738,0 1.337,0.601 1.337,1.338 v 1.783 c 0,0.737 -0.599,1.335 -1.337,1.335 H 1.337 C 0.598,3.118 0,2.52 0,1.783 Z" /></g><g
           transform="translate(369.4588,199.55)"
           id="g342"><path
             id="path344"
             style="fill:#ffffff;fill-opacity:1;fill-rule:nonzero;stroke:none"
             d="m 0,0 c -8.562,0 -16.612,3.335 -22.666,9.389 -1.537,1.537 -1.537,4.029 0,5.566 1.537,1.538 4.029,1.538 5.568,0 4.567,-4.566 10.639,-7.08 17.098,-7.08 13.334,0 24.182,10.846 24.182,24.18 0,13.333 -10.848,24.183 -24.182,24.183 -2.174,0 -3.936,1.763 -3.936,3.936 v 49.207 c 0,2.174 1.762,3.935 3.936,3.935 2.175,0 3.937,-1.761 3.937,-3.935 V 63.871 C 19.762,61.923 32.055,48.398 32.055,32.055 32.055,14.38 17.675,0 0,0" /></g><g
           transform="translate(785.7383,266.4967)"
           id="g346"><path
             id="path348"
             style="fill:#ffffff;fill-opacity:1;fill-rule:nonzero;stroke:none"
             d="m 0,0 c 0,-1.156 -0.937,-2.094 -2.094,-2.094 h -16.31 l -27.133,-25.119 h -121.578 c -1.156,0 -2.094,0.938 -2.094,2.094 v 20.932 c 0,1.156 0.938,2.093 2.094,2.093 H -53.204 L -21.11,23.024 H -2.094 C -0.937,23.024 0,22.087 0,20.931 Z" /></g><g
           transform="translate(635.0146,253.6692)"
           id="g350"><path
             id="path352"
             style="fill:#ffffff;fill-opacity:1;fill-rule:nonzero;stroke:none"
             d="m 0,0 c 0,-1.157 -0.937,-2.094 -2.093,-2.094 h -6.28 c -1.156,0 -2.094,0.937 -2.094,2.094 v 49.541 c 0,1.155 0.938,2.093 2.094,2.093 h 6.28 C -0.937,51.634 0,50.696 0,49.541 Z" /></g><g
           transform="translate(648.272,253.6692)"
           id="g354"><path
             id="path356"
             style="fill:#ffffff;fill-opacity:1;fill-rule:nonzero;stroke:none"
             d="m 0,0 c 0,-1.157 -0.937,-2.094 -2.093,-2.094 h -6.28 c -1.156,0 -2.094,0.937 -2.094,2.094 v 49.541 c 0,1.155 0.938,2.093 2.094,2.093 h 6.28 C -0.937,51.634 0,50.696 0,49.541 Z" /></g><g
           transform="translate(661.5297,253.6692)"
           id="g358"><path
             id="path360"
             style="fill:#ffffff;fill-opacity:1;fill-rule:nonzero;stroke:none"
             d="m 0,0 c 0,-1.157 -0.937,-2.094 -2.093,-2.094 h -6.28 c -1.157,0 -2.094,0.937 -2.094,2.094 v 49.541 c 0,1.155 0.937,2.093 2.094,2.093 h 6.28 C -0.937,51.634 0,50.696 0,49.541 Z" /></g><g
           transform="translate(674.7871,253.6692)"
           id="g362"><path
             id="path364"
             style="fill:#ffffff;fill-opacity:1;fill-rule:nonzero;stroke:none"
             d="m 0,0 c 0,-1.157 -0.937,-2.094 -2.093,-2.094 h -6.281 c -1.155,0 -2.092,0.937 -2.092,2.094 v 49.541 c 0,1.155 0.937,2.093 2.092,2.093 h 6.281 C -0.937,51.634 0,50.696 0,49.541 Z" /></g><g
           transform="translate(688.0444,253.6692)"
           id="g366"><path
             id="path368"
             style="fill:#ffffff;fill-opacity:1;fill-rule:nonzero;stroke:none"
             d="m 0,0 c 0,-1.157 -0.937,-2.094 -2.094,-2.094 h -6.28 c -1.155,0 -2.092,0.937 -2.092,2.094 v 49.541 c 0,1.155 0.937,2.093 2.092,2.093 h 6.28 C -0.937,51.634 0,50.696 0,49.541 Z" /></g><g
           transform="translate(701.3022,253.6692)"
           id="g370"><path
             id="path372"
             style="fill:#ffffff;fill-opacity:1;fill-rule:nonzero;stroke:none"
             d="m 0,0 c 0,-1.157 -0.938,-2.094 -2.094,-2.094 h -6.28 c -1.156,0 -2.093,0.937 -2.093,2.094 v 49.541 c 0,1.155 0.937,2.093 2.093,2.093 h 6.28 C -0.938,51.634 0,50.696 0,49.541 Z" /></g><g
           transform="translate(714.5591,253.6692)"
           id="g374"><path
             id="path376"
             style="fill:#ffffff;fill-opacity:1;fill-rule:nonzero;stroke:none"
             d="m 0,0 c 0,-1.157 -0.937,-2.094 -2.094,-2.094 h -6.278 c -1.158,0 -2.095,0.937 -2.095,2.094 v 49.541 c 0,1.155 0.937,2.093 2.095,2.093 h 6.278 C -0.937,51.634 0,50.696 0,49.541 Z" /></g><g
           transform="translate(727.816,253.6692)"
           id="g378"><path
             id="path380"
             style="fill:#ffffff;fill-opacity:1;fill-rule:nonzero;stroke:none"
             d="m 0,0 c 0,-1.157 -0.937,-2.094 -2.094,-2.094 h -6.278 c -1.157,0 -2.094,0.937 -2.094,2.094 v 49.541 c 0,1.155 0.937,2.093 2.094,2.093 h 6.278 C -0.937,51.634 0,50.696 0,49.541 Z" /></g><g
           transform="translate(729.3895,324.0579)"
           id="g382"><path
             id="path384"
             style="fill:#ffffff;fill-opacity:1;fill-rule:nonzero;stroke:none"
             d="m 0,0 c 0,6.937 -5.623,12.56 -12.56,12.56 h -84.084 c -14.996,0 -18.485,7.24 -18.485,7.24 0,-30.004 13.084,-34.452 24.247,-34.452 h 78.322 c 6.937,0 12.56,5.622 12.56,12.56 z" /></g><g
           transform="translate(1121.9417,696.7531)"
           id="g386"><path
             id="path388"
             style="fill:#ffffff;fill-opacity:1;fill-rule:nonzero;stroke:none"
             d="m 0,0 c 3.986,7.614 7.566,17.182 7.566,29.602 0,23.862 -15.499,41.179 -36.855,41.179 -12.812,0 -20.08,-3.876 -25.386,-6.707 -6.426,-3.428 -7.336,-3.428 -13.76,0 -5.308,2.831 -12.576,6.707 -25.388,6.707 -21.356,0 -36.855,-17.317 -36.855,-41.179 0,-12.42 3.58,-21.988 7.568,-29.602 z" /></g><g
           transform="translate(1109.0575,681.698)"
           id="g390"><path
             id="path392"
             style="fill:#ffffff;fill-opacity:1;fill-rule:nonzero;stroke:none"
             d="M 0,0 2.647,9.877 H -99.278 L -96.752,0 h -4.014 V -7.246 H 4.134 V 0 Z" /></g><g
           transform="translate(1106.1442,670.8292)"
           id="g394"><path
             id="path396"
             style="fill:#ffffff;fill-opacity:1;fill-rule:nonzero;stroke:none"
             d="m 0,0 h -91.058 l 2.806,-10.974 h -3.922 v -7.247 H 1.367 v 7.247 H -2.94 Z" /></g><g
           transform="translate(1097.8275,639.7947)"
           id="g398"><path
             id="path400"
             style="fill:#ffffff;fill-opacity:1;fill-rule:nonzero;stroke:none"
             d="M 0,0 2.463,9.19 H -77.153 L -74.804,0 c 0,-0.599 0.02,-1.193 0.049,-1.784 h -2.95 V -9.031 H 3.532 v 7.247 h -3.58 C -0.02,-1.193 0,-0.599 0,0" /></g><g
           transform="translate(1060.4258,609.3249)"
           id="g402"><path
             id="path404"
             style="fill:#ffffff;fill-opacity:1;fill-rule:nonzero;stroke:none"
             d="M 0,0 C 10.985,0 20.335,6.991 23.847,16.766 H -23.849 C -20.334,6.991 -10.985,0 0,0" /></g><g
           transform="translate(1084.5657,210.5481)"
           id="g406"><path
             id="path408"
             style="fill:#ffffff;fill-opacity:1;fill-rule:nonzero;stroke:none"
             d="m 0,0 c -2.394,0 -4.331,1.937 -4.331,4.33 v 138.228 h -33.205 c -2.394,0 -4.331,1.937 -4.331,4.33 0,2.394 1.937,4.331 4.331,4.331 H 0 c 2.395,0 4.332,-1.937 4.332,-4.331 V 4.33 C 4.332,1.937 2.395,0 0,0" /></g><g
           transform="translate(1049.6853,333.9587)"
           id="g410"><path
             id="path412"
             style="fill:#ffffff;fill-opacity:1;fill-rule:nonzero;stroke:none"
             d="m 0,0 c 4.34,4.082 7.089,9.832 7.089,16.258 0,12.359 -10.02,22.377 -22.374,22.377 -5.498,0 -10.468,-2.059 -14.363,-5.349 z" /></g><g
           transform="translate(996.2448,318.5305)"
           id="g414"><path
             id="path416"
             style="fill:#ffffff;fill-opacity:1;fill-rule:nonzero;stroke:none"
             d="m 0,0 c 9.496,0 17.194,7.697 17.194,17.194 0,9.491 -7.698,17.189 -17.194,17.189 -9.491,0 -17.189,-7.698 -17.189,-17.189 C -17.189,7.697 -9.491,0 0,0" /></g><g
           transform="translate(1006.9569,318.8131)"
           id="g418"><path
             id="path420"
             style="fill:#ffffff;fill-opacity:1;fill-rule:nonzero;stroke:none"
             d="m 0,0 c -3.026,-3.172 -2.905,-8.194 0.263,-11.218 l 24.872,-23.731 c 1.476,-1.406 3.441,-2.192 5.48,-2.192 h 50.786 l 57.679,-33.005 c 1.244,-0.708 2.595,-1.046 3.931,-1.046 2.755,0 5.428,1.434 6.897,3.994 2.174,3.805 0.856,8.651 -2.949,10.828 l -59.511,34.052 c -1.201,0.685 -2.557,1.046 -3.941,1.046 H 33.791 L 11.22,0.265 C 8.051,3.286 3.03,3.165 0,0" /></g><g
           transform="translate(1154.0789,233.585)"
           id="g422"><path
             id="path424"
             style="fill:#ffffff;fill-opacity:1;fill-rule:nonzero;stroke:none"
             d="m 0,0 -70.584,42.648 c -1.371,0.824 -2.927,1.158 -4.473,1.084 l 0.038,0.14 h -51.685 l -51.036,49.887 c -3.133,3.064 -8.151,3.006 -11.22,-0.123 -3.063,-3.135 -3.006,-8.159 0.124,-11.22 l 73.723,-72.068 c 2.53,-2.472 6.393,-2.974 9.469,-1.224 l 30.838,17.535 66.601,-40.241 c 1.281,-0.776 2.696,-1.143 4.094,-1.143 2.689,0 5.308,1.364 6.8,3.831 C 4.955,-7.143 3.751,-2.266 0,0" /></g><g
           transform="translate(1100.8185,213.3706)"
           id="g426"><path
             id="path428"
             style="fill:#ffffff;fill-opacity:1;fill-rule:nonzero;stroke:none"
             d="m 0,0 c 0,-1.559 -1.263,-2.822 -2.823,-2.822 h -26.536 c -1.559,0 -2.822,1.263 -2.822,2.822 0,1.558 1.263,2.822 2.822,2.822 H -2.823 C -1.263,2.822 0,1.558 0,0" /></g></g></g></g></svg>
