<?xml version="1.0" encoding="UTF-8"?>
<svg width="1400px" height="980px" enable-background="new 0 0 1400 980" version="1.1" viewBox="0 0 1400 980" xml:space="preserve" xmlns="http://www.w3.org/2000/svg" xmlns:cc="http://creativecommons.org/ns#" xmlns:dc="http://purl.org/dc/elements/1.1/" xmlns:rdf="http://www.w3.org/1999/02/22-rdf-syntax-ns#" xmlns:xlink="http://www.w3.org/1999/xlink"><metadata><rdf:RDF><cc:Work rdf:about=""><dc:format>image/svg+xml</dc:format><dc:type rdf:resource="http://purl.org/dc/dcmitype/StillImage"/><dc:title/></cc:Work></rdf:RDF></metadata>
<style type="text/css">
	.st0{clip-path:url(#SVGID_2_);fill-rule:evenodd;clip-rule:evenodd;fill:#A6DCF4;}
	.st1{clip-path:url(#SVGID_2_);fill-rule:evenodd;clip-rule:evenodd;fill:#66CCED;}
	.st2{clip-path:url(#SVGID_2_);}
	.st3{fill-rule:evenodd;clip-rule:evenodd;fill:#6D6E70;}
	.st4{fill-rule:evenodd;clip-rule:evenodd;fill:#FFFFFF;}
	.st5{fill-rule:evenodd;clip-rule:evenodd;fill:#58595B;}
	.st6{fill-rule:evenodd;clip-rule:evenodd;fill:#FFDC6C;}
	.st7{fill-rule:evenodd;clip-rule:evenodd;fill:#FDF38B;}
	.st8{fill-rule:evenodd;clip-rule:evenodd;fill:#FDD24A;}
	.st9{fill-rule:evenodd;clip-rule:evenodd;fill:#FFF8C1;}
	.st10{fill-rule:evenodd;clip-rule:evenodd;fill:#F7AAAC;}
	.st11{fill-rule:evenodd;clip-rule:evenodd;fill:#66CCED;}
	.st12{fill-rule:evenodd;clip-rule:evenodd;fill:#E6E7E8;}
	.st13{fill-rule:evenodd;clip-rule:evenodd;fill:#EFEDED;}
	.st14{fill-rule:evenodd;clip-rule:evenodd;fill:#929497;}
	.st15{fill-rule:evenodd;clip-rule:evenodd;fill:#30A9E0;}
	.st16{opacity:0.58;clip-path:url(#SVGID_2_);fill:#66CCED;}
	.st17{fill-rule:evenodd;clip-rule:evenodd;fill:#A6DCF4;}
	.st18{clip-path:url(#SVGID_2_);fill-rule:evenodd;clip-rule:evenodd;fill:#FFFFFF;}
</style>

	<defs>
		<rect id="SVGID_1_" width="1400" height="980"/>
	</defs>
	<clipPath id="SVGID_2_">
		<use xlink:href="#SVGID_1_"/>
	</clipPath>
	<rect class="st0" width="1400" height="980" clip-path="url(#SVGID_2_)"/>
	<path class="st1" d="m469.3 760.6c-30-40-127.3 10.6-106.5 50.2-15.5 16.4-32 32.5-48 48.6-7.1 7.2-14.7 17.6-23.8 20.3-8.1 2.4-16.8 6.3-24.6 11.7-12.8 8.9-122 120.9-142.5 141.4l-94.3 94.8c-13.3 13.4-41.1 32.4-27.5 49.4 15.9 19.9 34.9-6.8 48.2-20.2l143.9-145c16.6-16.7 84.9-83.4 94-96.5 23.2-33.6-2.9-14.1 30.9-48.2 15.2-15.4 32.7-34.8 48.7-48.8 43 34.9 128.9-21.2 101.5-57.7zm-92.7 58.6c-42-28.6 37.6-90.2 81.5-62.5 12.4 7.8 13.1 21.2 8.9 31.1-13 30.8-65.7 48.3-90.4 31.4z" clip-path="url(#SVGID_2_)"/>
	<path class="st1" d="m1136.2 250.8c4.6 4.6 9 8.8 13 12.6l23.3 25.7c5.2 5 8 10.4 14 6.5 5.3-3.2 10.8-8.3 16.1-12.1 5.5-4 10.6-7.9 16.2-12.2 10.5-8 23.9-18.9 33.4-24.6 6.1 1.2 5 1.3 8.8 4.5 8.7 7.3 9.5 9.7 22.4 15.5 6.6 3 16 6.1 22 5.9 5.6-0.2 6.7 0 14.2-7.1 26.2-15.5 45.5-37.7 66.3-55.9 11.3-9.9 48.8-52.3 59.9-65.4 18.9-22.2 97.5-125.3 109.7-153l-25.3-7.8-134.2-41.5-25-7.8c-3.5 6.5-17.8 23.5-22.9 29.3-41.5 47.3-75.9 81.4-125.2 118.2l-41.7 27.5c-4.5 2.4-10 4.3-10.5 9.7-5.4 20.6 1.4 33 9.1 49.7 2.1 4.5 4.7 9.4 9.3 12.7l-1.3 5.8-46.7 54.7-0.9 1.6c-0.1 0-0.1 0 0 0.1l-4 7.4zm4.2-7.4zm0.2 0.2c-0.1 0-0.3-0.1-0.3-0.2 0 0.1 0.1 0.2 0.3 0.2z" clip-path="url(#SVGID_2_)"/>
	<path class="st1" d="m-129.1 112.7 0.2-0.4 298.8 140.1c26.3 6.5 37.6-6.5 49.9-29.1 11.4 7.9 67.1 32.8 74.6 25.4l27.2-48.5c-10.7-9.9-49.9-42.8-63.1-47.1 29-51.4 17.1-50.4-87.7-120.4-61.3-40.7-123.9-83.1-185.8-122.7l0.3-0.6c-12.8-9.1-20.8-17.6-36.6-19.1-13.3-1.2-19.6-0.6-28.6 12.9l-89 158.3c-10.3 25.6 11.1 42.5 39.8 51.2z" clip-path="url(#SVGID_2_)"/>
	<path class="st1" d="m1072.2 974.8c2.2-28.1-4.8-66-38.9-70.1-21.5-2.6-25.2 14.1-34.1 22.6-2.2 2.2-4.6 3.5-7.1 4.2l-1.2 0.3h-0.3c-0.4 0.1-0.8 0.1-1.2 0.2-0.4 0-0.8 0-1.2 0.1h-0.3c-0.4 0-0.8 0-1.2-0.1-0.4 0-0.8-0.1-1.2-0.1h-0.3c-0.4-0.1-0.8-0.1-1.2-0.2l-1.2-0.3c-0.1 0-0.2-0.1-0.3-0.1-0.4-0.1-0.8-0.3-1.2-0.4s-0.8-0.3-1.2-0.5c-0.1 0-0.2-0.1-0.3-0.1-0.4-0.2-0.8-0.4-1.2-0.5-0.4-0.2-0.8-0.4-1.1-0.6-0.1 0-0.2-0.1-0.3-0.2-0.4-0.2-0.8-0.4-1.1-0.7-0.4-0.2-0.7-0.5-1.1-0.7-0.1-0.1-0.2-0.1-0.3-0.2-0.4-0.2-0.7-0.5-1.1-0.8-0.3-0.3-0.7-0.5-1-0.8-0.1-0.1-0.2-0.1-0.3-0.2-0.3-0.3-0.7-0.5-1-0.8-0.3-0.2-0.6-0.5-0.9-0.7-1.2-0.9-2.5-1.7-3.9-2.4-0.3-0.2-0.7-0.3-1.1-0.5-2.8-1.2-6-1.7-9.2-1.8-12.5-0.1-26.7 8.1-32.5 24.5-0.4 1.1-0.7 2.1-1 3.3-0.3 1.1-0.6 2.3-0.8 3.5-0.5 2.4-0.7 4.9-0.9 7.6-0.1 1.3-0.1 2.7 0 4.1 0.2 6.3 1.3 13.2 3.7 20.9 0.9 2.8 1.8 5.4 2.7 7.8 5.3 13.7 11 20.4 12.7 29 0.4 1.8 0.6 3.6 0.6 5.7 0 4.1 0.1 8.4 0.4 12.8 0.9 15.1 3.9 31.8 10.8 45.2 0.9 1.7 1.8 3.3 2.8 4.9 1.4 2.2 2.9 4.2 4.5 6.2 0.9 1.1 1.9 2.1 2.9 3 0.5 0.5 1 1 1.6 1.4 0.3 0.2 0.6 0.5 0.9 0.7 4 3.2 8.5 5.8 13.1 7.5 0.8 0.3 1.7 0.6 2.5 0.9 5.9 1.8 11.8 2 16.2 0.4 3.2-1.2 4.8-2.7 5.3-4.5 2.1-7-10.1-19.3-9.1-38.2 0-0.4 0.1-0.8 0.1-1.2v-0.2c0-0.3 0.1-0.6 0.1-0.9 0-0.1 0-0.3 0.1-0.4 0-0.2 0.1-0.5 0.1-0.7s0.1-0.3 0.1-0.4c0-0.2 0.1-0.4 0.1-0.6s0.1-0.3 0.1-0.5c0.1-0.2 0.1-0.4 0.2-0.6s0.1-0.3 0.2-0.5 0.1-0.3 0.2-0.5 0.1-0.3 0.2-0.5 0.1-0.3 0.2-0.5 0.2-0.3 0.2-0.5c0.1-0.1 0.1-0.3 0.2-0.4 0.1-0.2 0.2-0.3 0.3-0.5 0.1-0.1 0.1-0.3 0.2-0.4 0.1-0.2 0.2-0.3 0.3-0.5 0.1-0.1 0.1-0.2 0.2-0.4s0.2-0.3 0.3-0.5c0.1-0.1 0.2-0.2 0.2-0.3 0.1-0.2 0.3-0.3 0.4-0.5 0.1-0.1 0.1-0.2 0.2-0.3 0.1-0.2 0.3-0.3 0.4-0.5 0.1-0.1 0.1-0.2 0.2-0.3l0.5-0.5c0.1-0.1 0.1-0.2 0.2-0.2l0.7-0.7c0.2-0.2 0.4-0.3 0.6-0.5l0.2-0.2c0.2-0.2 0.4-0.3 0.6-0.5 0.1 0 0.1-0.1 0.2-0.1 0.2-0.2 0.4-0.3 0.7-0.5 0.1 0 0.1-0.1 0.2-0.1 0.2-0.2 0.5-0.3 0.7-0.5l0.1-0.1c0.2-0.2 0.5-0.3 0.8-0.5 0 0 0.1 0 0.1-0.1 0.3-0.2 0.5-0.3 0.8-0.5 0 0 0.1 0 0.1-0.1 0.3-0.2 0.6-0.3 0.8-0.5h0.1c0.3-0.2 0.6-0.3 0.9-0.4s0.6-0.3 0.9-0.4 0.6-0.3 1-0.4c2.3-0.9 4.7-1.5 7.1-1.9 11.3-1.8 23.4 1.9 26.9 11.2 9.4 24.8-0.9 43.2 13.7 41 8.6-1.3 13.9-7.2 18.2-11.2 16.9-15.6 13.7-41 7.4-64.3-5.1-20.2-10.4-24.7-8.7-46.7z" clip-path="url(#SVGID_2_)"/>
	<path class="st1" d="m586.1 932.1c-14-12.6-25.1-2.6-35.7-0.9-2.7 0.4-5.1 0.2-7.1-0.6-0.3-0.1-0.6-0.3-1-0.4-0.1 0-0.1-0.1-0.2-0.1-0.3-0.2-0.6-0.3-1-0.5l-0.9-0.6c-0.1 0-0.1-0.1-0.2-0.1-0.3-0.2-0.6-0.4-0.9-0.7-0.3-0.2-0.5-0.5-0.8-0.7l-1-1c-0.2-0.3-0.5-0.5-0.7-0.8 0-0.1-0.1-0.1-0.1-0.2-0.2-0.3-0.4-0.6-0.7-0.9l-0.6-0.9c0-0.1-0.1-0.1-0.1-0.2-0.2-0.3-0.4-0.6-0.6-1-0.2-0.3-0.3-0.7-0.5-1 0-0.1-0.1-0.2-0.1-0.2-0.2-0.3-0.3-0.7-0.5-1-0.1-0.3-0.3-0.7-0.4-1.1 0-0.1-0.1-0.2-0.1-0.3-0.1-0.4-0.3-0.7-0.4-1.1s-0.2-0.7-0.3-1.1c0-0.1-0.1-0.2-0.1-0.3-0.1-0.4-0.2-0.7-0.3-1.1-0.1-0.3-0.2-0.6-0.3-1-5.2-16.5-34.1-24.2-52.4-0.3-3.9 5.1-7.3 11.5-9.9 19.7-0.8 2.5-1.4 4.8-2 6.9-2.5 10.2-2.5 17.2-4.1 23.2-0.2 0.6-0.4 1.3-0.6 1.9-0.7 2.2-1.7 4.2-3.2 6.3-3.1 4.4-6.3 9.4-9.3 14.7-0.3 0.6-0.7 1.2-1 1.8-4.7 8.8-8.6 18.4-10.4 27.9-0.9 4.8-1.2 9.6-0.8 14.2 0.4 4.7 1.9 9.4 4 13.6 0.2 0.3 0.3 0.6 0.5 0.9 0.7 1.3 1.5 2.6 2.3 3.8 0.2 0.3 0.5 0.6 0.7 1 3.5 4.7 7.8 8.2 12.1 9.4 3.4 0.9 5.4 0.4 6.8-1.2 4.1-4.7 2.2-18.8 11.9-31.2 0.4-0.5 0.9-1 1.3-1.5l0.4-0.4c0.3-0.3 0.6-0.6 1-0.9 0.2-0.2 0.4-0.3 0.6-0.4 0.3-0.2 0.6-0.5 0.9-0.7 0.2-0.2 0.5-0.3 0.7-0.4 0.3-0.2 0.6-0.4 0.9-0.5s0.5-0.2 0.8-0.4c0.3-0.1 0.5-0.3 0.8-0.4s0.6-0.2 0.9-0.3 0.5-0.2 0.8-0.3 0.6-0.2 1-0.2c0.3-0.1 0.5-0.1 0.8-0.2s0.7-0.1 1-0.2c0.2 0 0.5-0.1 0.7-0.1 0.4 0 0.7 0 1.1-0.1h0.7 1.2 0.6c0.4 0 0.8 0.1 1.2 0.1 0.2 0 0.4 0 0.6 0.1 0.4 0.1 0.8 0.1 1.2 0.2 0.2 0 0.4 0.1 0.5 0.1 0.4 0.1 0.9 0.2 1.3 0.3 0.2 0 0.3 0.1 0.5 0.1 0.4 0.1 0.9 0.3 1.3 0.4 0.2 0.1 0.3 0.1 0.5 0.1 0.4 0.1 0.9 0.3 1.3 0.5 0.1 0.1 0.3 0.1 0.4 0.2l1.2 0.6c9.2 4.3 16.2 13.1 14 21.7-5.7 22.4-22.3 30.4-10.8 36.1 6.8 3.4 13.5 1.8 18.6 1.1 19.9-2.7 30.3-22.4 37.5-42.2 6.2-17 4.6-22.9 16.9-37.7 16-19 30-49.5 7.6-69.5z" clip-path="url(#SVGID_2_)"/>
	<path class="st1" d="m0.9 483.6c-23.4 12.9-43.3 5.3-39 19.6 2.5 8.4 9.2 12.8 13.8 16.6 18 14.6 42.9 7.8 65.3-1.8 19.2-8.3 23-14.2 45.2-15.7 28.4-1.9 65.1-14.3 64.3-49-0.5-21.8-17.7-23.2-27.5-30.8-2.5-1.9-4.1-4.1-5.2-6.5-0.2-0.4-0.3-0.7-0.4-1.1 0-0.1-0.1-0.2-0.1-0.3l-0.3-1.2c-0.1-0.4-0.2-0.8-0.2-1.2v-0.3c-0.1-0.4-0.1-0.8-0.1-1.2v-1.2-0.3c0-0.4 0-0.8 0.1-1.3 0-0.4 0.1-0.8 0.1-1.2v-0.3c0.1-0.4 0.1-0.8 0.2-1.3 0.1-0.4 0.2-0.8 0.3-1.3 0-0.1 0-0.2 0.1-0.3 0.1-0.4 0.2-0.8 0.4-1.3 0.1-0.4 0.3-0.8 0.4-1.2 0-0.1 0.1-0.2 0.1-0.3 0.2-0.4 0.3-0.8 0.5-1.2l0.6-1.2c0-0.1 0.1-0.2 0.1-0.3l0.6-1.2c0.2-0.4 0.4-0.8 0.6-1.1 0.1-0.1 0.1-0.2 0.2-0.3 0.2-0.4 0.4-0.7 0.7-1.1 0.8-1.3 1.5-2.7 2-4.1 0.2-0.6 0.4-1.3 0.6-2 0-0.2 0.1-0.3 0.1-0.5 0.3-1.4 0.5-2.8 0.6-4.3v-0.1c0.7-15.8-13.2-34.4-38.2-34.6h-1.9c-1.9 0.1-3.8 0.2-5.7 0.5-0.2 0-0.3 0-0.5 0.1-1.3 0.2-2.6 0.4-3.9 0.7-5.7 1.2-11.7 3.2-18.2 6.3-2.7 1.3-5.1 2.6-7.4 3.8-11.2 6.3-17 12.1-23.8 15.5-0.3 0.2-0.7 0.3-1 0.5-2.4 1.1-4.9 1.9-7.9 2.3-4.1 0.6-8.5 1.3-13 2.3-16.9 3.6-35.3 9.9-48.1 21-1.9 1.6-3.7 3.4-5.3 5.2-1 1.2-2 2.4-2.9 3.7-0.4 0.7-0.9 1.3-1.3 2l-1.5 2.7c-0.4 0.8-0.9 1.7-1.2 2.6-0.3 0.7-0.6 1.5-0.9 2.2-0.8 2.1-1.5 4.2-2 6.4-1.7 7.4-1.4 14.6 1.3 19.6 1.6 2.9 3.3 4.3 5.2 4.6 7.3 1.3 17.8-12.9 37-14.5 0.8-0.1 1.5-0.1 2.3-0.1h0.2 0.9 0.3c0.2 0 0.5 0 0.7 0.1 0.1 0 0.3 0 0.4 0.1 0.2 0 0.4 0.1 0.6 0.1s0.3 0.1 0.5 0.1 0.4 0.1 0.6 0.1 0.3 0.1 0.5 0.1 0.3 0.1 0.5 0.1 0.3 0.1 0.5 0.2 0.3 0.1 0.5 0.2 0.4 0.1 0.5 0.2 0.3 0.1 0.4 0.2c0.2 0.1 0.4 0.2 0.6 0.2 0.1 0.1 0.3 0.1 0.4 0.2l0.6 0.3c0.1 0.1 0.2 0.1 0.3 0.2l0.6 0.3c0.1 0.1 0.2 0.1 0.3 0.2 0.2 0.1 0.4 0.2 0.6 0.4 0.1 0.1 0.2 0.1 0.3 0.2 0.2 0.1 0.4 0.3 0.6 0.4 0.1 0.1 0.2 0.1 0.3 0.2 0.2 0.1 0.4 0.3 0.6 0.4l0.2 0.2c0.2 0.2 0.4 0.3 0.6 0.5l0.2 0.2c0.2 0.2 0.4 0.4 0.6 0.5 0.1 0 0.1 0.1 0.2 0.1l1.4 1.4c0.2 0.2 0.4 0.5 0.6 0.7l0.1 0.1c0.2 0.2 0.4 0.5 0.6 0.7l0.1 0.1c0.2 0.3 0.4 0.5 0.6 0.8v0.1c0.2 0.3 0.4 0.5 0.6 0.8l0.6 0.9c0.2 0.3 0.4 0.6 0.5 0.9 1.2 2.1 2.2 4.5 3 6.8 3.4 10.8 1.4 23.4-7.4 28.2z" clip-path="url(#SVGID_2_)"/>
	<path class="st1" d="m705.7-64.5c7.9-9.5 12.6-14.3 21.7-22.7 8.4 9.4 28 28.2 38.5 34.1l-15.7 18.8c-4.7 5.4-9.3 10.6-14 16.4-4.6 5.6-13.8 13.9-14.3 18.3 0.5 6.7 1.3 8.6 9.7 10.5 10.4-2.8 13.2-11.1 19.9-18.3l162.1 137.8c23.1 20.1 29.4-3.6 42.2-14.1 5.9-4.9 14.4-4.5 16.2-3.6l93.2 78.8c16.5 15.2 18.4 23.5 33.7 20.9l-101.1-88c-39-32.9-12.1-9.6-22.5-31.5 35.3-38.3 26.2-32.5-47.8-95.7-17-14.5-33.5-30.1-50.9-44.9-16.6-14.3-36.3-29.3-52-44.1 9.7-10.9 13.2-11.9 15.8-25-13-16.8-22.3 1-32.5 13.3l-23.8 28.5-36.9-34.5c5.8-13.4 23.5-25 23.6-32.7 0-3.8-4.1-9.7-8.3-10.4-12.2-2.1-76.2 83.9-76.2 83.9-2.1 10.2 8.8 16.9 19.4 4.2z" clip-path="url(#SVGID_2_)"/>
	<path class="st1" d="m1415.7 690.8c27.8-0.1 56.9-4.3 69.1-27.7 3.1-6 8.1-13.7 6.9-23.6-2-16.9-19.3 0.2-49.6-2.7-11.4-1.1-19.2-13.4-20.6-26.5-0.1-0.8-0.2-1.6-0.2-2.4s-0.1-1.6 0-2.4c0-0.8 0-1.6 0.1-2.4s0.1-1.6 0.3-2.4c0.1-0.8 0.3-1.6 0.4-2.3 0.2-0.8 0.4-1.5 0.6-2.3v-0.1c0.2-0.7 0.5-1.5 0.7-2.2v-0.1c0.3-0.7 0.6-1.4 0.9-2.1v-0.1c0.3-0.7 0.7-1.3 1.1-2v-0.1c0.4-0.6 0.8-1.3 1.2-1.9v-0.1c0.4-0.6 0.9-1.2 1.4-1.8v-0.1c0.5-0.6 1-1.1 1.6-1.6h0.1l1.8-1.5h0.1c0.6-0.5 1.3-0.9 2-1.3s1.4-0.8 2.2-1.1 1.6-0.7 2.4-0.9c19.7-6.6 36.3 2.1 44-0.9 0.1 0 0.2-0.1 0.3-0.1l0.6-0.3c2-1.2 3.3-3.4 3.6-7.4 0.4-4.9-1.2-10.5-4.3-16-2.5-4.5-6-8.9-10.2-12.7l-0.2-0.2c-1.6-1.4-3.2-2.7-5-4-0.4-0.3-0.9-0.6-1.4-0.9-0.9-0.6-1.8-1.2-2.8-1.7s-1.9-1-2.9-1.5c-6-2.8-12.7-4.6-19.6-5.7-5.2-0.8-10.6-1.1-16-1.1-2.6 0-5.3 0.1-7.9 0.3h-0.4c-13.5 0.9-26.9 3.7-38.3 6.8-3.8 1.1-7.3 1.3-10.8 1.1-2.9-0.2-5.9-0.7-9.1-1.4l-1-14.2c18.2-5.2 25.8-1.7 47-1.8 27.8-0.1 56.9-4.3 69.1-27.7 3.1-6 8.1-13.7 6.9-23.6-2-16.9-19.3 0.2-49.6-2.7-11.4-1.1-19.2-13.4-20.6-26.5-0.3-2.4-0.3-4.9-0.1-7.3 0.1-0.8 0.1-1.6 0.3-2.4 0.1-0.8 0.3-1.6 0.4-2.3 0.2-0.8 0.4-1.5 0.6-2.3 0.2-0.7 0.5-1.5 0.7-2.2v-0.1c0.3-0.7 0.6-1.4 0.9-2.1v-0.1c0.3-0.7 0.7-1.3 1.1-2v-0.1c0.4-0.6 0.8-1.3 1.2-1.9v-0.1c0.4-0.6 0.9-1.2 1.4-1.8v-0.1c0.5-0.6 1-1.1 1.6-1.6l1.8-1.5c0.6-0.5 1.3-0.9 2-1.3s1.4-0.8 2.2-1.1 1.6-0.7 2.4-0.9c26.2-8.7 47 9.5 48.5-8.8 0.7-8.6-4.8-19.4-13.4-27.7-0.4-0.4-0.8-0.8-1.3-1.2-2.8-2.5-5.9-4.8-9.2-6.6-0.9-0.5-1.9-1-2.9-1.5-8.3-3.9-17.7-5.9-27.5-6.5-3.5-0.2-7.1-0.3-10.7-0.2-1 0-1.9 0.1-2.9 0.1l-5.1 0.3c-1.2 0.1-2.3 0.2-3.5 0.3-11.5 1.2-22.7 3.6-32.5 6.3-1.5 0.4-3 0.7-4.4 0.9-5.2 0.7-10 0-15.5-1.2l-0.7-9.8c-0.2-3.1-2.9-5.4-5.9-5.2-3.1 0.2-5.4 2.9-5.2 5.9l0.5 6.7c-3.3-0.6-7-1.2-11.1-1.6-2.9-0.3-6-0.5-9.4-0.6-65.3-2.2-74 53.6-50.7 69.4l1.2 0.9c0.1 0.1 0.2 0.1 0.3 0.2 0.8 0.6 1.6 1.2 2.4 1.9 0.1 0.1 0.2 0.2 0.3 0.2 0.4 0.3 0.8 0.7 1.1 1 0.4 0.3 0.7 0.7 1.1 1.1l0.2 0.2c0.3 0.4 0.7 0.7 1 1.1s0.7 0.8 1 1.1c0.1 0.1 0.1 0.2 0.2 0.3 0.3 0.4 0.6 0.8 0.9 1.2s0.6 0.8 0.8 1.2c0.1 0.1 0.1 0.2 0.2 0.3 0.2 0.4 0.5 0.8 0.7 1.2s0.4 0.9 0.6 1.3c0 0.1 0.1 0.2 0.1 0.3 0.2 0.4 0.4 0.8 0.5 1.3 0.2 0.4 0.3 0.9 0.4 1.4 0 0.1 0.1 0.2 0.1 0.3 0.1 0.4 0.2 0.9 0.3 1.3v0.1c0.1 0.5 0.1 0.9 0.2 1.4v0.3c0 0.4 0.1 0.9 0.1 1.4 0 2.9-0.7 6-2.5 9.1-6.8 12.4-24.1 21.7-14.8 44.7 14.3 35.2 55.6 33.1 85.8 23.2l0.6 8.2c-2.7-0.5-5.7-1-9-1.4-3.5-0.4-7.3-0.7-11.6-0.9-2-0.1-4-0.1-6 0s-3.8 0.1-5.6 0.3c-0.9 0.1-1.8 0.2-2.7 0.3-28.1 3.1-42.8 18.7-46.9 34.6-0.3 1.3-0.6 2.7-0.8 4-0.1 0.4-0.1 0.9-0.2 1.3-0.1 0.7-0.1 1.4-0.2 2.1v0.6c-0.5 10.8 3.7 20.9 11.7 26.3l1.2 0.9c0.1 0.1 0.2 0.1 0.3 0.2 0.8 0.6 1.6 1.2 2.4 1.9 0.1 0.1 0.2 0.2 0.3 0.2 0.8 0.7 1.5 1.3 2.2 2.1l0.2 0.2c0.3 0.4 0.7 0.7 1 1.1s0.7 0.8 1 1.1c0.1 0.1 0.1 0.2 0.2 0.3 0.3 0.4 0.6 0.8 0.9 1.2s0.6 0.8 0.8 1.2c0.1 0.1 0.1 0.2 0.2 0.3 0.2 0.4 0.5 0.8 0.7 1.2s0.4 0.9 0.6 1.3c0 0.1 0.1 0.2 0.1 0.3 0.2 0.4 0.4 0.8 0.5 1.3 0.2 0.4 0.3 0.9 0.4 1.4 0 0.1 0.1 0.2 0.1 0.3 0.1 0.4 0.2 0.9 0.3 1.3v0.1c0.1 0.5 0.1 0.9 0.2 1.4v0.3c0 0.4 0.1 0.9 0.1 1.3 0 2.9-0.7 6-2.5 9.1-6.8 12.4-24.1 21.7-14.8 44.7 14.3 35.2 55.6 33.1 85.8 23.2l0.6 8.6c0.2 3.1 2.9 5.4 5.9 5.2 3.1-0.2 5.4-2.9 5.2-5.9l-0.8-11.5c19.1-5.1 26.7-1.6 47.9-1.6z" clip-path="url(#SVGID_2_)"/>
	<path class="st1" d="m932.8 836.6c8.6-0.5 3 0.8 7.5-2.2-2.4-3.1-0.3-1.6-4.9-3.9l-57.7-13.5 5-37.9c-18.3-5.4-53.4-7.5-74.1-10.1-24.6-3.1-51-8.9-67.7 2.7-14.6 10.2-26.2 37.5-15.6 57.5 10 18.7 26.4 23.3 53.1 27.8l-8.7 42.6c12.7 2.5 12.3 1.2 17.1 6.6l-9.2 0.7c-2.5-0.1-2.2-0.6-5.5-0.5-5.4 0.1-1-1-4.7 0.8-1.4 13.8 4.5 3.1 15.6 12.9-7.9 3.8-12.3-2.2-19.2 1-1.9 10.5-4.6 4.5 4.9 8.5 6.5 2.7 4.9-0.9 10.6 4.4-7.9 10.7-16.5-11.3-21.1 6.9 6.4 4.2 11.3 2.3 16.9 6.9-3.8 6-1 3.5-11.1 1.4-10.2-2.1-8.1-4.2-10.9 5.3 5.8 4 4 1.6 10.3 3.8 10 3.6 5.2-1.1 7.8 5.3-5.3 2.5-5.1 0.7-13-0.4-11.2-1.5-6.6-5.7-10.6 4.8 6.2 5.6 13.1 2.8 20 7.4-2.3 8.7-13.7 1.9-23.7-0.3-7.7 28-40.2 80.3-73.4 130.7l12.5 81.1 22.1-33.4c37.9-59.1 81.2-128.4 98.4-198.2 5-20.4 8.3-43.2 16.3-61.5 10.8-24.8 20.2-21.6 46.8-18.8l7.6-43.2 51.4 4.4c1.1 0 6.5 0.4 7.2 0.4z" clip-path="url(#SVGID_2_)"/>
	<path class="st1" d="m49.5 794.5c17-7.1 14.3-15 32.7-22.8 17.4-7.4 40.2 1.2 74.7-26.7 11.4-9.3 9.4-9.8 24.9-17 20.3-9.4 41.9-19 61.7-29.3 18.6-9.7 28.3-29.8 46.6-34.5 9.7-2.5 41 4.2 51.4 5.5-14.4-2.8-30.8-10.3-48.1-10.7-18.3-0.5-34.7 23.4-48.6 31.6-18.5 10.8-71.1 29.6-94 31.4-10 0.8-20.2 3.2-30 7.2l-85.8 35.6c7.9-14.5 13.2-24.8 13.9-27.1 3.5-12.3-1.2-14.7 8.3-31.9 10.3-18.5 25.4-14.4 37.8-56.6 3.4-11.5 2.7-20.9 7.9-31.7 5.6-11.6 11-23 16.6-34.5 28.6-59.5 22.9-62.8 61.6-80.2 4.5-2 8.3-3.5 13.7-3.7 5.5-0.2 10.1 2.4 15 1.5 3.1-5.6 2.4-8.5 0.5-12.8-9.7-1.7-11.2 4.2-24.9 8.8-45.6 15.3-40.1 22-67.1 69.1-14 24.4-22.8 43.5-40.8 61.1-17.8 17.4-27.6 39.9-40 62.7l-52 95.9-115.1 48.1c-15.5 6.5-39.5 10.7-32.8 29.5 7.4 20.8 29.6 7.6 48.5-0.3l74.4-31-55.1 101.3c-6.8 12.8-4.2 23.2 6.6 26.5 12.6 3.9 15.7-4.2 22.8-16.4 6.4-11.1 12.6-22.1 18.9-33.2 5.8-10.3 32.1-56.6 55.7-98.7l40.1-16.7z" clip-path="url(#SVGID_2_)"/>
	<path class="st1" d="m1392.3 952.4c-30-19.4-56.4-36.9-86.6-54.5-28.8-16.7-63.1-4.5-95.4-24.4-1-1.7-2.1-3.4-3.2-5.1 8.4-10.7 12.8-21.6 19.2-31 6.5-9.4 16.9-22.9 22.7-30.4 1.6 2.1-0.1 2.1 3.9 3.4 2.3-2.5 2.5-6.2 3.3-10.1 6.1-20.1-2-40.2-10.4-50.4-35.3-42.9-96.1-29.7-127.5-63-7.9-8.3-7.3-10.3-9.6-21.7l-10.4 27.1c-1.4 5.3-2 10.7-1.7 15.4l4.4 17.5c0.3 0.7 0.8 2.1 1.2 2.9 0.4 0.7 0.8 1.4 1.2 2 1.9 3.1 4 6.1 7.3 8.7 2.3 1.8 5.4 3.8 8.9 5.9-11.4 13.8-19.8 31.6-28.5 45.4-14.9 1.9-26.9 12.2-32.4 34.8 9.5 10.5 46.7 31.5 59.6 40.1 19.9 13.1 41 22.1 60.1 36.9 8.9 6.9 20.4 14 29.9 19.3 11 6.1 20.7 5.6 33.1 4.6 39.5-3 46.1 6.2 64.5 15.4l120 74.5c0.2 0.1 0.4 0.3 0.6 0.5l86.8 10.5c-12.8-7.8-25.1-15.4-34.1-21.5-28.1-19.6-57.1-33.6-86.9-52.8zm-208.1-179.9c0.2 0.1 0.4 0.1 0.7 0.2 8 2.2 13.2 3.6 17.5 5.1l-16.7 9.5c-3.1-11.2-1.6-12.4-1.5-14.8zm-26.1-9.4c3.4 1.4 6.7 2.7 9.9 3.9l-10 2c-0.1-2.3 0-4.2 0.1-5.9zm52.5 42.9c-3.6-15.1 2.7-15.4-3.6-26.5 4.8 1.9 9.4 4.3 17.4 8.3 3.7 1.8 7.1 4.5 10.6 7.3-5.7-1.2-9.9 4.4-24.4 10.9zm-77.1-54c-0.9 0.2-1.9 0.4-3 0.5-0.1-0.7-0.2-1.4-0.2-2.2 1 0.6 2.1 1.1 3.2 1.7z" clip-path="url(#SVGID_2_)"/>
	<g class="st2" clip-path="url(#SVGID_2_)">
		<path class="st3" d="m352.7 799.3c-15.5 16.4-32 32.5-48 48.6-7.1 7.2-14.7 17.6-23.8 20.3-8.1 2.4-16.8 6.3-24.6 11.7-12.8 8.9-122 120.9-142.5 141.4l-94.1 94.7c-13.3 13.4-41.1 32.4-27.5 49.4 15.9 19.9 34.9-6.8 48.2-20.2l143.9-145c16.6-16.7 84.9-83.4 94-96.5 23.2-33.6-2.9-14.1 30.9-48.2 15.2-15.4 32.7-34.8 48.7-48.8 43.1 34.8 128.9-21.2 101.5-57.7-30.1-39.8-127.4 10.7-106.7 50.3zm95.4-54.1c12.4 7.8 13.1 21.2 8.9 31.1-13 30.8-65.7 48.3-90.4 31.4-42-28.6 37.6-90.2 81.5-62.5z"/>
		<path class="st4" d="m279.3 875.4c0.7 0.2 1.1 0.9 0.9 1.5-0.2 0.7-0.9 1.1-1.5 0.9 0 0-15.9-5-66.9 51.5-0.5 0.5-1.2 0.5-1.7 0.1-0.5-0.5-0.5-1.2-0.1-1.7 52-57.7 69.3-52.3 69.3-52.3z"/>
	</g>
	<g class="st2" clip-path="url(#SVGID_2_)">
		<path class="st5" d="m1520.2-28-134.2-41.6c-10 15.7-25.7 33.7-37.7 47.8-33.1 38.7-45.7 49.3-80.1 81.4-11.2 10.4-40 31.4-43.8 36.4 34.5 7.9 63.2 51.8 78.5 78.1 8.7 15 8.4 19.4 15.8 31 20.1-9.7 51.3-44.2 69.2-61.2 18.8-17.9 72.4-86.6 86.3-106 9.6-13.6 39.8-54.3 46-65.9z"/>
		<path class="st6" d="m1545.5-20.2-25.3-7.8c-6.3 11.6-36.4 52.4-46.1 65.9-13.9 19.4-67.5 88.1-86.3 106-17.9 17-49 51.6-69.2 61.2-7.3-11.6-7.1-16-15.8-31-15.3-26.3-44-70.2-78.5-78.1 3.9-5 32.6-26 43.8-36.4 34.4-32.1 47-42.7 80.1-81.4 12-14 27.7-32 37.7-47.8l-25-7.8c-3.5 6.5-17.8 23.5-22.9 29.3-41.5 47.3-75.9 81.4-125.2 118.2l-41.7 27.5c-4.5 2.4-10 4.3-10.5 9.7 46.7 0 138.4 83.4 147.2 134.5 0.7 4 0 8.8 1.7 12.2 26.2-15.5 45.5-37.7 66.3-55.9 11.3-9.9 48.8-52.3 59.9-65.4 18.9-22.1 97.6-125.2 109.8-152.9z"/>
		<path class="st7" d="m1242.2 235.2c5.2-5.4 11.2-7.8 17.4-13.9-0.3-33.3-32.7-56.9-63.6-67.7-4.6 7.6-11.6 16.2-18.2 21.8l-46.7 54.7c0.1 4.3-2.9-0.7 1.3 3.2 14.4-0.9 36 26.3 39.9 34.4 3 6.1 2.3 11.5 4.2 16.3 5.3-3.2 10.8-8.3 16.1-12.1 5.5-4 10.6-7.9 16.2-12.2 10.5-7.8 23.9-18.8 33.4-24.5z"/>
		<path class="st8" d="m1309.5 254.1c-1.7-3.4-1-8.2-1.7-12.2-8.8-51.2-100.4-134.5-147.2-134.5-5.4 20.6 1.4 33 9.1 49.7 2.1 4.5 4.7 9.4 9.3 12.7l-1.3 5.8c6.5-5.6 13.5-14.3 18.2-21.8 30.9 10.8 63.3 34.3 63.6 67.7-6.2 6.2-12.2 8.5-17.4 13.9 6.1 1.2 5 1.3 8.8 4.5 8.7 7.3 9.5 9.7 22.4 15.5 6.6 3 16 6.1 22 5.9 5.6-0.4 6.8-0.2 14.2-7.2z"/>
		<path class="st9" d="m1176.5 284.2c-1.9-4.8-1.2-10.2-4.2-16.3-3.9-8.1-25.5-35.3-39.9-34.4-4.1-3.9-1.1 1.1-1.3-3.2l-4.9 9.1c4.6 4.6 9 8.8 13 12.6l23.3 25.7c5.2 5 7.9 10.4 14 6.5z"/>
	</g>
	<g class="st2" clip-path="url(#SVGID_2_)">
		<path class="st6" d="m-26-102.1-113.7 202.5 299.6 140.5c38.2 9.4 44.7-22.3 68.8-64.9 49.9-88.4 56-71.9-68-154.7-61.5-41.1-124.5-83.7-186.7-123.4z"/>
		<path class="st10" d="m25.5-16.4-65.5 116c8.3 6.3 150.7 73.4 173.3 81.1 24.7 8.4 28.6-13.3 41.1-35.4 10.6-18.7 28.6-40.2 13.4-55-8.5-8.3-42.9-27.1-55.4-35.4-29.2-19.5-78.3-57.5-106.9-71.3z"/>
		<path class="st8" d="m247.4 141.4-39.4 69c4.6 5.5 68.3 34.8 76.3 26.9l27.2-48.5c-11-10.2-52-44.5-64.1-47.4z"/>
	</g>
	<g class="st2" clip-path="url(#SVGID_2_)">
		<path class="st11" d="m561.4-47.2v0c-1.3-1.1-2.5-2.2-3.8-3.2-2.8-2.1-5.8-3.9-9-5.3-1.4-0.6-2.8-1.2-4.3-1.7l-1.8-0.6c-1.1-0.3-2.2-0.6-3.3-0.9-2.2-0.5-4.5-0.9-6.7-1.2-0.5-0.1-1-0.1-1.5-0.1-7-0.5-13.5 0.6-18.1 3.5-2.4 1.5-3.8 3-4.4 4.6-3.4 8.6 15.3 19.1 18.9 41.8 0.1 0.4 0.1 0.9 0.2 1.3v0.2c0 0.4 0.1 0.7 0.1 1.1v0.4 0.9 0.5 0.7 0.5c0 0.2 0 0.5-0.1 0.7 0 0.2 0 0.4-0.1 0.5 0 0.2-0.1 0.4-0.1 0.7 0 0.2-0.1 0.4-0.1 0.6s-0.1 0.4-0.1 0.6-0.1 0.4-0.1 0.6-0.1 0.4-0.1 0.6c-0.1 0.2-0.1 0.4-0.2 0.6 0 0.2-0.1 0.3-0.1 0.5-0.1 0.2-0.1 0.4-0.2 0.6s-0.1 0.3-0.2 0.5l-0.3 0.6c-0.1 0.1-0.1 0.3-0.2 0.4-0.1 0.2-0.2 0.4-0.3 0.7-0.1 0.1-0.1 0.3-0.2 0.4-0.1 0.2-0.2 0.4-0.3 0.7-0.1 0.1-0.1 0.2-0.2 0.4s-0.3 0.4-0.4 0.7c-0.1 0.1-0.1 0.2-0.2 0.3-0.1 0.2-0.3 0.5-0.4 0.7-0.1 0.1-0.1 0.2-0.2 0.3-0.2 0.2-0.3 0.5-0.5 0.7-0.1 0.1-0.1 0.2-0.2 0.2-0.2 0.2-0.4 0.5-0.5 0.7l-0.2 0.2c-0.2 0.2-0.4 0.5-0.6 0.7l-0.2 0.2c-0.2 0.2-0.4 0.5-0.7 0.7l-0.9 0.9c-0.2 0.2-0.5 0.5-0.8 0.7l-0.1 0.1c-0.3 0.2-0.5 0.5-0.8 0.7l-0.1 0.1c-0.3 0.2-0.6 0.5-0.9 0.7h-0.1c-0.3 0.2-0.6 0.5-0.9 0.7s-0.6 0.4-1 0.7c-2.3 1.5-4.8 2.8-7.4 3.9-12.1 4.7-26.4 3.5-32.5-5.9-16.4-25.1-9.4-48.1-25.1-42.1-9.2 3.5-13.6 11.3-17.5 16.8-14.9 21.4-5.3 48.7 7.3 73 10.8 20.9 17.8 24.6 21.2 49.4 4.4 31.7 21.2 71.9 60 68.2 24.4-2.3 24.5-21.7 32.3-33.3 2-2.9 4.3-5 6.8-6.3l1.2-0.6c0.1 0 0.2-0.1 0.3-0.1 0.4-0.2 0.9-0.3 1.3-0.5 0.4-0.1 0.9-0.2 1.3-0.3 0.1 0 0.2 0 0.3-0.1 0.5-0.1 0.9-0.2 1.4-0.2 0.5-0.1 0.9-0.1 1.4-0.1h0.3 1.4c0.5 0 0.9 0 1.4 0.1h0.3c0.5 0 1 0.1 1.4 0.2 0.5 0.1 0.9 0.2 1.4 0.2 0.1 0 0.2 0 0.3 0.1 0.5 0.1 1 0.2 1.4 0.3 0.5 0.1 0.9 0.3 1.4 0.4 0.1 0 0.2 0.1 0.3 0.1 0.5 0.1 0.9 0.3 1.4 0.5s0.9 0.3 1.4 0.5c0.1 0 0.2 0.1 0.3 0.1 0.5 0.2 0.9 0.4 1.4 0.6 0.4 0.2 0.9 0.4 1.3 0.6 0.1 0.1 0.2 0.1 0.3 0.2 0.4 0.2 0.9 0.4 1.3 0.7l1.2 0.6c0.8 0.4 1.6 0.7 2.4 1s1.7 0.5 2.5 0.7c2.5 0.6 5.2 0.8 7.9 0.6 0.6 0 1.2-0.1 1.9-0.2 0.6-0.1 1.1-0.2 1.7-0.3s1.2-0.2 1.8-0.4c4-1 7.9-2.8 11.6-5.3 0.4-0.3 0.9-0.6 1.3-1 10.8-8.2 18.4-23 15.7-42.7-1.2-8.7-4.5-18.5-10.4-29l-1.2-2.1c-0.8-1.4-1.6-2.7-2.4-4s-1.6-2.5-2.4-3.6c-1.2-1.7-2.3-3.3-3.4-4.8-0.4-0.5-0.8-1-1.1-1.5-4.7-6.1-8.9-10.6-12-15.1 0-0.1-0.1-0.1-0.1-0.2-0.5-0.7-0.9-1.4-1.3-2.1-0.2-0.4-0.4-0.7-0.6-1.1-1.4-2.6-2.5-5.4-3.2-8.6-0.9-4.3-2-8.7-3.3-13.3-5.3-18.8-13.9-39.3-27.3-53-0.4-1.5-1.3-2.4-2.3-3.2z"/>
		
			<path class="st12" d="m507.9 175.5c-38.8 3.7-55.7-36.5-60-68.2-3.4-24.8-10.4-28.5-21.2-49.4-12.6-24.3-22.2-51.6-7.3-73 3.8-5.5 8.3-13.3 17.5-16.8 15.7-5.9 8.7 17 25.1 42.1 12.2 18.8 56.5 4.9 52.1-23-4.3-26.9-29.8-36.7-14.5-46.4 10.4-6.6 31-3.9 44.5 6.4 20.9 16 32 47.6 37.2 72.1 3.2 14.9 14.7 19.7 28 43.1 31.7 56.1-13 89.2-37.5 76-10.4-5.6-23.7-7.8-31.4 3.8-7.9 11.6-8.1 31-32.5 33.3z"/>
			<path class="st13" d="m494.5 16.2c11.9-4.7 21.8-15.1 19.5-28.9-4.3-26.9-29.8-36.7-14.5-46.4 10.4-6.6 31-3.9 44.5 6.4 20.9 16 32 47.6 37.2 72.1 3.2 14.9 14.7 19.7 28 43.1 31.7 56.1-13 89.2-37.5 76-7.7-4.2-17.1-6.4-24.6-2.5l-52.6-119.8z"/>
			<path class="st4" d="m470.4 114.5c5.7 5.9 0 15.5 10.3 30.5 3.6 5.3 9.7 10.6 15.2 12.2 9.5 2.8 11.8-9.6 18.2 0.3-3.3 4.8-12.7 8.5-20.4 5.8-19.8-7.1-27.6-27.6-28.6-42.9-0.2-4.4 0-5.6 5.3-5.9z"/>
		
	</g>
	<g class="st2" clip-path="url(#SVGID_2_)">
		<path class="st12" d="m1023.3 893.3c34.2 4.1 41.1 41.9 38.9 70.1-1.7 22 3.6 26.5 9 46.5 6.3 23.3 9.4 48.7-7.4 64.3-4.3 4-9.6 9.9-18.2 11.2-14.6 2.2-4.3-16.3-13.7-41-7-18.5-47.8-14.9-49.2 10-1.3 24 18.8 37.3 3.8 42.8-10.3 3.7-27.5-2.5-37.2-13.9-15-17.7-18.6-47.1-18.5-69.2 0.1-13.4-9-19.8-16-42.4-16.8-54.3 28-74.4 46.6-58.5 7.9 6.8 19 11.2 27.8 2.7s12.6-25.2 34.1-22.6z"/>
		<path class="st13" d="m1004.9 1033.2c-11.2 1.8-21.6 8.9-22.3 21.3-1.3 24 18.8 37.3 3.8 42.8-10.3 3.7-27.5-2.5-37.2-13.9-15-17.7-18.6-47.1-18.5-69.2 0.1-13.4-9-19.8-16-42.4-16.8-54.3 28-74.4 46.6-58.5 5.9 5.1 13.6 8.8 20.8 6.8l22.8 113.1z"/>
		<path class="st4" d="m1044.2 952.9c-3.8-6.2 2.9-13.3-3.2-28.2-2.1-5.2-6.4-11-10.8-13.4-7.6-4.2-12 6-15.7-3.7 3.7-3.5 12.6-5 18.7-1.2 15.7 9.8 18.6 29 16.6 42.4-0.7 3.9-1.1 4.9-5.6 4.1z"/>
	</g>
	<g class="st2" clip-path="url(#SVGID_2_)">
		<path class="st12" d="m576.1 920.6c22.3 20 8.4 50.5-7.3 69.5-12.2 14.8-10.7 20.7-16.9 37.7-7.2 19.8-17.6 39.5-37.5 42.2-5.1 0.7-11.9 2.3-18.6-1.1-11.5-5.8 5.1-13.8 10.8-36.1 4.3-16.7-26.7-34.6-40.2-17.5-13 16.5-5.3 36-18.7 32.4-9.2-2.5-18.4-15.5-19.6-28.6-1.9-20.2 10.3-42.9 21.4-58.6 6.8-9.6 3.5-18.6 9.8-38.3 15.2-47.2 57.2-39.1 62.5-18.4 2.2 8.8 7.9 17.5 18.5 15.8 10.7-1.6 21.8-11.6 35.8 1z"/>
		<path class="st13" d="m493 1011.3c-8.9-4.3-19.9-4.5-26.5 4-13 16.5-5.3 36-18.7 32.4-9.2-2.5-18.4-15.5-19.6-28.6-1.9-20.2 10.3-42.9 21.4-58.6 6.8-9.6 3.5-18.6 9.8-38.3 15.2-47.2 57.2-39.1 62.5-18.4 1.7 6.6 5.3 13.1 11.4 15.2l-40.3 92.3z"/>
		<path class="st4" d="m561.2 973.6c0.4-6.3 8.8-8 11.9-21.7 1.1-4.8 0.9-11-1-15-3.3-6.8-11.6-1.7-9.3-10.5 4.4-0.6 11.5 2.7 13.9 8.5 6.3 14.9-1.2 30-9.4 38.5-2.4 2.6-3.2 3.1-6.1 0.2z"/>
	</g>
	<g class="st2" clip-path="url(#SVGID_2_)">
		<path class="st12" d="m140.5 441.8c0.8 34.7-35.9 47.1-64.3 49-22.2 1.5-25.9 7.4-45.2 15.7-22.4 9.6-47.3 16.4-65.3 1.8-4.6-3.8-11.3-8.2-13.8-16.6-4.3-14.3 15.6-6.6 39-19.6 17.5-9.7 8-49.9-17.1-47.7-24.2 2.1-34.5 24.1-42.1 9.9-5.2-9.7-1.5-27.8 8.5-39.1 15.5-17.6 44.3-25.3 66.4-28.4 13.4-1.8 18.4-11.8 40-22 51.8-24.6 78.3 17.2 65.1 38.1-5.6 8.8-8.4 20.5 1.4 28.1 9.7 7.6 26.9 9 27.4 30.8z"/>
		<path class="st13" d="m-1.7 443.6c-3.4-10.9-12-20.3-24.4-19.2-24.2 2.1-34.5 24.1-42.1 9.9-5.2-9.7-1.5-27.8 8.5-39.1 15.5-17.6 44.3-25.3 66.4-28.4 13.3-1.8 18.3-11.8 39.9-22 51.8-24.6 78.3 17.2 65.1 38.1-4.2 6.6-6.8 14.8-3.8 21.7l-109.6 39z"/>
		<path class="st4" d="m84 471.2c5.6-4.7 13.7 1 27.7-7.2 4.9-2.9 10-8 11.8-12.7 3.1-8.2-7.7-11.1 1.4-16.2 4 3.2 6.8 11.8 3.8 18.5-7.5 17.1-26.2 22.8-39.9 22.6-3.8 0-4.9-0.3-4.8-5z"/>
	</g>
	<g class="st2" clip-path="url(#SVGID_2_)">
		<path class="st3" d="m965.4 81.4c35.3-38.3 26.2-32.5-47.8-95.7-17-14.5-33.5-30.1-50.9-44.9-16.7-14.2-36.4-29.3-52.1-44.1 9.7-10.9 13.2-11.9 15.8-25-13-16.8-22.3 1-32.5 13.3l-57.7 69.1c-4.7 5.4-9.3 10.6-14 16.4-4.6 5.6-13.8 13.9-14.3 18.3 0.5 6.7 1.3 8.6 9.7 10.5 10.4-2.7 13.3-11.1 19.9-18.2l162.1 137.8c23.1 20.1 29.4-3.6 42.2-14.1 5.9-4.9 14.4-4.5 16.2-3.6l93.2 78.8c16.5 15.2 18.4 23.5 33.7 20.9l-101.1-88c-38.9-32.9-12-9.6-22.4-31.5z"/>
		<path class="st9" d="m971.6 51.8c-6.1-9.5-151.9-134.6-165.3-142.7-8.4 5.9-48.9 51.5-53.1 59.8 2.3 6 104.2 93.3 123 108.1 12.8 10.1 31 25 42.8 36l52.6-61.2z"/>
		<path class="st8" d="m807.2-80c-9.3 2-26.1 24.9-36 36.7-6 7.1-8 7.7-3.8 15 8.5-9 2.8-4.9 7.5-7.4 4.6-2.5 0.5-1.4 4.8-1.5 0.5 8.7-4.4 6-7.5 15l6.8 7.9c4.1-4.3 8.1-11.3 14-12.1 2.8 6.1-3.6 10.3-9.3 15.5l9.3 8.9c9.4-4.4 6.7-11.1 15.8-10.7 0.8 7.3-5 8.4-8.5 15.8l7.3 7.7c5.2-5.5 8-11.5 14.2-12.4 2.7 5.9 4.3-0.8-1.2 7.5-1.1 1.7-5.2 5.8-7.1 8.2l9.2 9.1c5.3-4.9 8.1-11.2 15.2-11.5 0.3 9.5-5.9 8-8.8 16l8 6.5c4.6-4.3 7.5-10 13.5-11.3 1.3 3.5 6.9 1.9-8.7 15.2l8.6 8.2c2.4-0.5 0.9 0.3 4-1.9 9.6-6.7 2.7-7.2 10.8-7.1 1.7 6-2.9 8-9.4 12.9l10 9.2c4.9-5.1 6.7-10.1 12.6-11.2 4.2 10.1-4.2 4.5-5.6 15.9 14.6 2.6 19.2-12.1 37.6-32.9 16.3-18.5 6.9-20.3-18.6-41.8l-62.9-52.8c-8.6-7.8-12.1-16.7-21.8-16.6z"/>
	</g>
	<g class="st2" clip-path="url(#SVGID_2_)">
		
			<path class="st12" d="m1262 661.4c14.9 36.6 58.9 32.9 89.5 22 23.9-8.6 30.5-4 54.3-4.1 27.8-0.1 56.9-4.3 69.1-27.7 3.1-6 8.1-13.7 6.9-23.6-2-16.9-19.3 0.2-49.6-2.7-22.6-2.2-31-48.5-3.8-57.6 26.2-8.7 47 9.5 48.5-8.8 1-12.5-11.1-29.7-26.7-37-24.2-11.3-57.8-6.4-82.3 0.4-14.9 4.1-24.6-4-51.9-4.9-65.3-2.2-74 53.6-50.7 69.4 9.9 6.7 18.1 17.6 11.4 30s-24.1 21.6-14.7 44.6z"/>
			<path class="st13" d="m1411.5 598.7c-1.4-12.9 3.3-26.6 16.8-31.1 26.2-8.7 47 9.5 48.5-8.8 1-12.5-11.1-29.7-26.7-37-24.2-11.3-57.8-6.4-82.3 0.4-14.9 4.1-24.6-4-51.9-4.9-65.3-2.2-74 53.6-50.7 69.4 7.4 5 13.8 12.4 13.8 21l132.5-9z"/>
			<path class="st4" d="m1334.4 666.5c-8-2.4-13.9 7.3-32.2 5-6.4-0.8-14.1-3.8-18.1-7.9-7-7.2 3.1-15.1-8.9-16.2-2.8 5.2-1.7 15.4 4.4 21.1 15.6 14.5 37.8 11.9 52 5.5 4-1.9 5-2.6 2.8-7.5z"/>
		
		
			<path class="st12" d="m1250.2 488.2c14.9 36.6 58.9 32.9 89.5 22 23.9-8.6 30.5-4 54.3-4.1 27.8-0.1 56.9-4.3 69.1-27.7 3.1-6 8.1-13.7 6.9-23.6-2-16.9-19.3 0.2-49.6-2.7-22.6-2.2-31-48.5-3.8-57.6 26.2-8.7 47 9.5 48.5-8.8 1-12.5-11.1-29.7-26.7-37-24.2-11.3-57.8-6.4-82.3 0.4-14.9 4.1-24.6-4-51.9-4.9-65.3-2.2-74 53.6-50.7 69.4 9.9 6.7 18.1 17.6 11.4 30s-24.1 21.6-14.7 44.6z"/>
			<path class="st13" d="m1399.7 425.5c-1.4-12.9 3.3-26.6 16.8-31.1 26.2-8.7 47 9.5 48.5-8.8 1-12.5-11.1-29.7-26.7-37-24.2-11.3-57.8-6.4-82.3 0.4-14.9 4.1-24.6-4-51.9-4.9-65.3-2.2-74 53.6-50.7 69.4 7.4 5 13.8 12.4 13.8 21l132.5-9z"/>
			<path class="st4" d="m1322.7 493.3c-8-2.4-13.9 7.3-32.2 5-6.4-0.8-14.1-3.8-18.1-7.9-7-7.2 3.1-15.1-8.9-16.2-2.8 5.2-1.7 15.4 4.4 21.1 15.6 14.5 37.8 11.9 52 5.5 4-1.9 5-2.6 2.8-7.5z"/>
		
		<path class="st5" d="m1348.4 693.2-24-353.5c-0.2-3.1 2.1-5.7 5.2-5.9s5.7 2.1 5.9 5.2l24 353.5c0.2 3.1-2.1 5.7-5.2 5.9-3 0.2-5.7-2.1-5.9-5.2z"/>
		<path class="st3" d="m1351.7 696.1-24.4-359.7c-0.1-1.4 0.9-2.5 2.3-2.6s2.5 0.9 2.6 2.3l24.4 359.7c0.1 1.4-0.9 2.5-2.3 2.6-1.3 0.1-2.5-0.9-2.6-2.3z"/>
		<path class="st5" d="m1338.7 610.7-1.1-16.7c-0.1-1.4 0.9-2.5 2.3-2.6l16.7-1.1c1.4-0.1 2.5 0.9 2.6 2.3l1.1 16.7c0.1 1.4-0.9 2.5-2.3 2.6l-16.7 1.1c-1.3 0.1-2.5-1-2.6-2.3z"/>
		<path class="st3" d="m1340.5 609.1-0.9-13.8c-0.1-1.1 0.8-2.1 1.9-2.2l13.8-0.9c1.1-0.1 2.1 0.8 2.2 1.9l0.9 13.8c0.1 1.1-0.8 2.1-1.9 2.2l-13.8 0.9c-1.1 0.1-2.1-0.8-2.2-1.9z"/>
		
			<path class="st5" d="m1324.8 437.6-1.1-16.7c-0.1-1.4 0.9-2.5 2.3-2.6l16.7-1.1c1.4-0.1 2.5 0.9 2.6 2.3l1.1 16.7c0.1 1.4-0.9 2.5-2.3 2.6l-16.7 1.1c-1.3 0.1-2.5-0.9-2.6-2.3z"/>
			<path class="st3" d="m1326.6 436-0.9-13.8c-0.1-1.1 0.8-2.1 1.9-2.2l13.8-0.9c1.1-0.1 2.1 0.8 2.2 1.9l0.9 13.8c0.1 1.1-0.8 2.1-1.9 2.2l-13.8 0.9c-1.1 0.1-2.1-0.8-2.2-1.9z"/>
		
	</g>
	<g class="st2" clip-path="url(#SVGID_2_)">
		<path class="st3" d="m768.6 845.6-8.7 42.6c12.7 2.5 12.3 1.2 17.1 6.6l-9.2 0.7c-2.5-0.1-2.2-0.6-5.5-0.5-5.4 0.1-1-1-4.7 0.8-1.4 13.8 4.5 3.1 15.6 12.9-7.9 3.8-12.3-2.2-19.2 1-1.9 10.5-4.6 4.5 4.9 8.5 6.5 2.7 4.9-0.9 10.6 4.4-7.9 10.7-16.5-11.3-21.1 6.9 6.4 4.2 11.3 2.3 16.9 6.9-3.8 6-1 3.5-11.1 1.4-10.2-2.1-8.1-4.2-10.9 5.3 5.8 4 4 1.6 10.3 3.8 10 3.6 5.2-1.1 7.8 5.3-5.3 2.5-5.1 0.7-13-0.4-11.2-1.5-6.6-5.7-10.6 4.8 6.2 5.6 13.1 2.8 20 7.4-2.3 8.7-13.7 1.9-23.7-0.3-7.7 28-40.2 80.3-73.4 130.7l12.5 81.1 22.1-33.4c37.9-59.1 81.2-128.4 98.4-198.2 5-20.4 8.3-43.2 16.3-61.5 10.8-24.8 20.2-21.6 46.8-18.8l7.6-43.2 51.4 4.4c1.2 0.1 6.5 0.6 7.3 0.5 8.6-0.5 3 0.8 7.5-2.2-2.4-3.1-0.3-1.6-4.9-3.9l-57.7-13.4 5-37.9c-18.3-5.4-53.4-7.5-74.1-10.1-24.6-3.1-51-8.9-67.7 2.7-14.6 10.2-26.2 37.5-15.6 57.5 9.8 18.5 26.2 23 53 27.6z"/>
		<path class="st4" d="m725.7 811.7c3.7-6.8-3.6-12.3 2.1-28.1 2-5.5 6.1-12 10.6-15.3 7.7-5.7 12.6 3.4 16-6.8-4-2.6-13.2-2.2-19.4 2.7-15.9 12.8-18 32-15.3 44.6 0.8 3.7 1.2 4.6 6 2.9z"/>
	</g>
	<g class="st2" clip-path="url(#SVGID_2_)">
		
			<path class="st3" d="m199.9 489.1c3.1-5.6 2.4-8.5 0.5-12.8-9.7-1.7-11.2 4.2-24.9 8.8-45.6 15.3-40.1 22-67.1 69.1-14 24.4-22.8 43.5-40.8 61.1-17.8 17.4-27.6 39.9-40 62.7l-132.1 243.5c-6.8 12.8-4.2 23.2 6.6 26.5 12.6 3.9 15.7-4.2 22.8-16.4 6.4-11.1 12.6-22.1 18.9-33.2 10.8-19.1 92.5-162.6 95.3-172.3 3.5-12.3-1.2-14.7 8.3-31.9 10.3-18.5 25.4-14.4 37.8-56.6 3.4-11.5 2.7-20.9 7.9-31.7 5.6-11.6 11-23 16.6-34.5 28.6-59.5 22.9-62.8 61.6-80.2 4.5-2 8.3-3.5 13.7-3.7s9.9 2.5 14.9 1.6z"/>
		
		
			<path class="st14" d="m110.7 717.5-250.3 104.5c-15.5 6.5-39.5 10.7-32.8 29.5 7.4 20.8 29.6 7.6 48.5-0.3l163.4-68.2c17-7.1 14.3-15 32.7-22.8 17.4-7.4 40.2 1.2 74.7-26.7 11.4-9.3 9.4-9.8 24.9-17 20.3-9.4 41.9-19 61.7-29.3 18.6-9.7 28.3-29.8 46.6-34.5 9.7-2.5 41 4.2 51.4 5.5-14.4-2.8-30.8-10.3-48.1-10.7-18.3-0.5-34.7 23.4-48.6 31.6-18.5 10.8-71.1 29.6-94 31.4-10 0.6-20.3 2.9-30.1 7z"/>
		
	</g>
	<g class="st2" clip-path="url(#SVGID_2_)">
		<path class="st8" d="m1200.4 862c32.3 19.9 66.6 7.7 95.4 24.4 30.2 17.5 56.6 35.1 86.6 54.5 29.8 19.2 58.8 33.2 87 52.7 8.9 6.2 21.3 13.8 34.1 21.5l-86.8-10.5c-0.2-0.2-0.4-0.3-0.6-0.5l-120-74.5c-18.4-9.2-25-18.4-64.5-15.4-12.4 0.9-22.1 1.5-33.1-4.6-9.6-5.3-21-12.4-29.9-19.3-19.1-14.9-40.2-23.8-60.1-36.9-12.9-8.5-50.1-29.6-59.6-40.1 19.8-80.7 120.6-3.8 151.5 48.7z"/>
		<path class="st12" d="m1120.4 741c12.8-1.7 12.3-7.6 25.5-8 3.9 11.2 1.8 13.8 2.1 24.4l12-2.4c4.4-1.3 5.1-2.5 10.7-3.8 7.3 15-0.1 6 4.9 24.6l19.4-11c9.6 14.4 1.6 13.3 5.6 29.7 23.3-10.5 20-18.6 39.1 0.2-5.7 7.3-16.6 21.4-23.3 31.2-7.2 10.5-11.8 22.9-22.3 34.7-32.3-23.5-82.3-46.6-117.5-75.2 13.6-18.6 24.8-48.9 45.7-64.4-3.4 4.8-2.7 12.3-1.9 20z"/>
		
			<path class="st15" d="m1246.3 788.7c-0.8 3.9-1 7.7-3.3 10.1-5.8-1.8 0.4-1-8.8-7.8-6.6-4.9-12.7-11.2-19.7-14.7-17.2-8.6-18.8-9.6-39.6-15.2-17-4.6-59.3-22.4-74-33.9-3.4-2.7-5.4-5.6-7.3-8.7-0.4-0.6-0.8-1.3-1.2-2-0.4-0.8-0.9-2.2-1.2-2.9l-4.4-17.5c-0.3-4.7 0.4-10.1 1.7-15.4 21.1 45.1 45.4 29.5 88.9 47.9 23.1 9.8 44.4 21.4 58.3 41.1 4.6 6.6 6.4 11.7 10.6 19z"/>
			<path class="st11" d="m1246.3 788.7c-4.2-7.3-6-12.4-10.6-19-13.9-19.7-35.2-31.3-58.3-41.1-43.5-18.3-67.8-2.8-88.9-47.9l10.4-27.1c2.3 11.4 1.7 13.4 9.6 21.7 31.4 33.3 92.2 20.1 127.5 63 8.3 10.2 16.4 30.4 10.3 50.4z"/>
		
	</g>
	<rect class="st16" x="468.3" y="332.3" width="514" height="363.4" clip-path="url(#SVGID_2_)"/>
	<g class="st2" clip-path="url(#SVGID_2_)">
		<rect class="st4" x="443" y="308.3" width="514" height="363.4"/>
		
	</g>
	<path class="st18" d="m90 258.5 11.7 4.7c5.8 2.3 12.1 2.9 18.2 1.7l12.4-2.4-4.7 11.7c-2.3 5.8-2.9 12.1-1.7 18.2l2.4 12.4-11.7-4.7c-5.8-2.3-12.1-2.9-18.2-1.7l-12.4 2.3 4.7-11.7c2.3-5.8 2.9-12.1 1.7-18.2l-2.4-12.3z" clip-path="url(#SVGID_2_)"/>
	<path class="st18" d="m195 575 11.7 4.7c5.8 2.3 12.1 2.9 18.2 1.7l12.4-2.4-4.7 11.7c-2.3 5.8-2.9 12.1-1.7 18.2l2.4 12.4-11.7-4.7c-5.8-2.3-12.1-2.9-18.2-1.7l-12.4 2.4 4.7-11.7c2.3-5.8 2.9-12.1 1.7-18.2l-2.4-12.4z" clip-path="url(#SVGID_2_)"/>
	<path class="st18" d="m292.6 60.4 8.5-8.6c4.2-4.3 7.1-9.6 8.3-15.5l2.5-11.8 8.6 8.5c4.3 4.2 9.6 7.1 15.5 8.3l11.8 2.5-8.5 8.6c-4.2 4.3-7.1 9.6-8.3 15.5l-2.5 11.8-8.6-8.5c-4.3-4.2-9.6-7.1-15.5-8.3l-11.8-2.5z" clip-path="url(#SVGID_2_)"/>
	<path class="st18" d="m1196.1 372.4-6.8-8.1c-3.4-4-7.8-7-12.8-8.6l-10.1-3.2 8.1-6.8c4-3.4 7-7.8 8.6-12.8l3.2-10.1 6.8 8.1c3.4 4 7.8 7 12.8 8.6l10.1 3.2-8.1 6.8c-4 3.4-7 7.8-8.6 12.8l-3.2 10.1z" clip-path="url(#SVGID_2_)"/>
	<path class="st18" d="m1082.6 100.3-10.4-3.7c-5.1-1.8-10.7-2.2-16-1l-10.8 2.5 3.7-10.4c1.8-5.1 2.2-10.7 1-16l-2.5-10.8 10.4 3.7c5.1 1.8 10.7 2.2 16 1l10.8-2.5-3.7 10.4c-1.8 5.1-2.2 10.7-1 16l2.5 10.8z" clip-path="url(#SVGID_2_)"/>
	<path class="st18" d="m1410.4 293.7-10.9-3.9c-5.4-1.9-11.2-2.3-16.8-1l-11.3 2.6 3.9-10.9c1.9-5.4 2.3-11.2 1-16.8l-2.6-11.3 10.9 3.9c5.4 1.9 11.2 2.3 16.8 1l11.3-2.6-3.9 10.9c-1.9 5.4-2.3 11.2-1 16.8l2.6 11.3z" clip-path="url(#SVGID_2_)"/>
	<path class="st18" d="m1215.9 630.5-8.2 2.7c-4.1 1.3-7.7 3.8-10.4 7.1l-5.5 6.7-2.7-8.2c-1.3-4.1-3.8-7.7-7.1-10.4l-6.7-5.5 8.2-2.7c4.1-1.3 7.7-3.8 10.4-7.1l5.5-6.7 2.7 8.2c1.3 4.1 3.8 7.7 7.1 10.4l6.7 5.5z" clip-path="url(#SVGID_2_)"/>
	<path class="st18" d="m1416.9 852.2-11.9 3.8c-5.9 1.9-11.1 5.4-15 10.2l-8 9.7-3.8-11.9c-1.9-5.9-5.4-11.1-10.2-15l-9.7-8 11.9-3.8c5.9-1.9 11.1-5.4 15-10.2l8-9.7 3.8 11.9c1.9 5.9 5.4 11.1 10.2 15l9.7 8z" clip-path="url(#SVGID_2_)"/>
	<path class="st18" d="m640.3 857.6-9.6 3.1c-4.8 1.5-9 4.4-12.2 8.2l-6.4 7.8-3.1-9.6c-1.5-4.8-4.4-9-8.2-12.2l-7.8-6.4 9.6-3.1c4.8-1.5 9-4.4 12.2-8.2l6.4-7.8 3.1 9.6c1.5 4.8 4.4 9 8.2 12.2l7.8 6.4z" clip-path="url(#SVGID_2_)"/>
	<path class="st18" d="m747.9 65.4-8.3 10.4c-4.1 5.1-6.7 11.3-7.4 17.9l-1.4 13.2-10.4-8.3c-5.1-4.1-11.3-6.7-17.9-7.4l-13.2-1.4 8.3-10.4c4.1-5.1 6.7-11.3 7.4-17.9l1.4-13.2 10.4 8.3c5.1 4.1 11.3 6.7 17.9 7.4l13.2 1.4z" clip-path="url(#SVGID_2_)"/>
	<path class="st18" d="m88.1 884.4 9.2 3.7c4.5 1.8 9.5 2.3 14.3 1.4l9.7-1.9-3.7 9.2c-1.8 4.5-2.3 9.5-1.4 14.3l1.9 9.7-9.2-3.7c-4.5-1.8-9.5-2.3-14.3-1.4l-9.7 1.9 3.7-9.2c1.8-4.5 2.3-9.5 1.4-14.3l-1.9-9.7z" clip-path="url(#SVGID_2_)"/>

<g fill="#81d2f0" aria-label="clean"><path d="m619.07 472.98q0-1.248 1.248-2.112 0-0.096 0-0.192 0-0.672 1.44-2.4 1.536-1.728 1.728-2.112 2.112-1.248 2.784-1.44 0.768 0.192 1.056 0.192h0.192q2.784-0.672 6.336 0.192 3.648 0.864 5.088 3.072 0.768 1.44 1.536 3.84 1.152 3.36 1.152 4.896 0.576 2.496 0.096 4.608l-0.096 0.96q0 0.384-0.48 0.768t-1.152 0.384q-0.576-0.096-1.056 0.48-0.48 0.48-2.016 0.48-1.44 0-1.536-0.864-0.288-0.096-0.96-0.672-0.576-0.576-0.576-0.864l-0.48-0.672q0-0.192-0.384-0.576-0.864-1.728-0.672-2.688 0.48-2.496 0.288-2.688 0-1.44-0.96-2.88-0.096-0.096-0.384-0.096-0.192-0.096-0.576-0.192-0.192-0.672-0.384-0.672-0.672 0.192-1.44 1.056-1.344 3.744-1.632 4.992l-0.576 5.856v4.416q0.192 3.456 0.768 4.224 0 0.384 0.384 1.344 0.096 1.248 2.016 4.416l0.48 0.576q0.48 1.344 1.632 1.344t3.264-2.688q-0.096-0.288 1.248-2.304 1.344-1.824 4.224-1.44 1.248 0.192 1.248 1.44 0.096 0.864-0.576 4.32-0.96 0.96-0.96 1.92-0.672 1.728-0.672 1.92-0.288 0-0.576 0.288l-0.48 0.96q-0.384 0-0.48 0.384-1.056 1.248-1.44 1.248-0.288 0.288-1.536 0.288-1.824 0.768-2.688 0.768l-1.632 0.096-1.056-0.384-0.864-0.096q-1.152-0.48-1.824-0.48-0.576 0.096-0.864-0.096-0.288-0.096-0.768-0.48-1.152-0.96-1.536-0.96-0.288 0-1.056-0.576-0.768-0.192-1.248-0.672l-0.384-0.96q0.192-0.672-0.192-0.768-1.248 0-1.44-0.48l-0.576-0.768q0-0.768-0.768-2.016l-1.152-3.456q-0.192-0.192 0-0.672v-1.728l-1.152-7.488v-1.344q0.864-3.168 0.864-3.264-0.096-2.112 0.96-3.744 0-1.824 1.248-3.744z" opacity=".99183"/><path d="m653.44 454.93q0.288-0.864 0.192-1.632t0.096-3.84q0.48-0.864 0.096-3.36 0-1.44 1.152-2.976 1.152-1.632 2.496-2.4v0.096q0.384-0.384 1.728-0.576 3.264-0.48 4.704 2.016-0.384 0.672-0.384 4.32v9.792q0.096 2.4 0.096 6.528v3.648l0.384 6.24q0 2.496 0.288 4.992 0 4.608 0.192 5.568t0.192 1.344v1.536q0 2.112 0.192 3.072 0 0.96 0.48 2.016-0.48 1.44 0 3.264 0.48 1.152 0.288 2.976 0.576 1.152 0.384 3.072l0.288 0.576 0.192 0.864q0.384 1.248-0.384 2.976-0.672 1.632-2.88 2.208-2.112 0.672-4.8-2.016-0.096-0.288-1.056-0.864-1.152-0.672-1.92-4.512-0.48-0.96-0.48-2.016-1.056-0.864-1.056-2.592v-2.112q-0.096-1.44-0.384-1.92-0.288-0.384-0.48-2.016l0.192-6.432q0-3.168-0.192-4.896v-6.528q-0.288-3.168-0.288-4.8 0-1.728 0.672-6.816 0-0.384-0.288-1.056 0.288-1.44 0.288-3.744z" opacity=".99183"/><path d="m693.95 474.32q0.384-1.44-0.096-3.648-0.672-0.576-1.824-0.576-1.44 0-2.592 2.688-1.536 2.304-2.304 5.088h-0.096q-1.056 4.032-1.056 4.32 1.536 0.384 2.496 0.384 0.96-0.096 2.208-1.056 2.208-2.112 3.264-7.2zm-0.288 13.824-3.552 0.288q-2.976 0-4.704-0.576l0.288 1.824q0.288 7.968 4.416 10.464 1.152 0.48 1.92 0.48t2.016-0.768q0.384-0.384 0.672-1.056 0.096-0.864 0.96-0.768 3.936-4.992 5.952-3.936 2.016 1.344 2.016 2.112 0 0.384-0.48 0.864v0.576q0 0.96-1.248 3.456-1.152 2.496-2.496 4.224-0.672 1.44-1.728 2.016-3.072 1.92-6.528 1.536-0.768-0.096-1.056-0.384-0.768-0.192-1.152-0.096l-0.768-0.096q-0.864 0-1.44-0.384-0.96-0.576-1.344-0.576-2.496-0.96-3.072-1.44-0.48-0.48-0.864-0.672t-1.824-2.016q-1.248-1.056-1.44-1.344-0.576-0.864-1.056-1.248-0.384-0.384-0.48-1.728-0.384-0.48-0.384-1.248l-0.384-0.768q0-0.672-0.576-1.056-0.576-0.576-0.576-1.44v-0.768q-0.384-0.192-0.192-1.152v-2.496l-0.096-0.864v-0.672q-0.096-0.384 0.192-1.632l-0.096-0.864q0.096-0.096 0.288-1.536 0.384-2.016 0.864-2.496v-0.864q0.096-0.288 0.096-0.768t0.192-1.056q0.288-0.576 1.536-4.32l1.536-3.36q0.672-1.44 2.112-3.168 0.096-0.48 0.768-1.728l1.248-1.152q0.576-0.864 1.728-1.248 1.344-0.672 2.016-0.672l2.688-0.384q0.48 0.096 0.672 0.096h1.248q2.112 0.192 3.456 0.864 2.88 0.864 4.224 2.208 2.976 3.36 2.976 6.432t-0.96 5.28q-2.4 5.472-3.456 6.912-1.728 3.168-4.128 3.168z" opacity=".99183"/><path d="m731.1 479.99q0.096-0.288 0.384-3.36-0.192-0.288-0.48-2.112-0.768-1.536-2.016-2.304-1.536-0.672-1.824-0.672-0.864 0.288-1.248 0.672-0.288 0.288-1.632 2.688-1.248 2.4-2.112 7.968-0.768 5.568-0.768 8.064t0.192 6.144q0.192 3.552 1.536 3.36 1.248-0.192 3.456-6.912 0.096-0.48 0.672-1.728zm11.232-3.936q0 5.088 1.056 9.312 0.48 4.224 1.728 9.024 0.288 1.92 0.192 1.92 2.4 5.28 2.688 6.336 0.288 0.96-0.096 1.632v-0.096q-0.288 0.864-1.824 1.536-1.44 0.768-2.592 0.96-3.648 1.152-4.32-2.784-0.384-0.288-1.152-1.152-0.672-0.96-0.768-1.536-0.096-0.672-0.672-1.248-0.192-0.48-0.864-1.248t-0.768-1.536l-0.288-2.592-0.192-0.096q-1.536 3.168-2.016 4.416-1.152 3.264-4.032 7.488-3.264 3.648-7.968 2.112-1.728-0.096-2.784-1.056-0.96-0.96-1.344-1.056-0.576-0.192-1.632-1.44-1.728-2.304-2.112-6.816v-2.496q0.288-0.48 0-4.608v-0.576q-0.576-2.88-0.576-3.456t0.192-1.536 0.096-1.152q-0.096-0.288-0.096-0.864v-1.44l0.48-5.184q1.056-3.36 2.304-6.048 0.384-1.632 1.44-2.592 2.4-2.592 2.592-2.976 0.672-1.44 4.992-2.304l1.632 0.096q0.96 0 1.728 0.288 0.768 0.192 1.056 0.192 1.344 0.672 2.208 0.672t2.88 1.344q0.576 0.096 2.88 1.632 2.496 1.632 2.88 1.824l2.496 0.864q1.056 0.864 1.056 0.96t-0.48 5.28z" opacity=".99183"/><path d="m764.51 493.72q0.864-2.016 1.824-4.704l2.112-5.376 0.864-1.632q-19.488 23.04 0.384-0.48l2.496-5.184q0.288-0.288 0.48-1.248l2.496-3.744 1.92-1.728q0.576-0.288 1.248-0.96 0.192 0.192 1.536-0.384 0.864 0 3.456 0.288l1.92 0.672 4.32 2.592q1.344 1.344 1.152 2.88-0.096 1.152-1.056 6.336-0.768 4.128-2.208 9.504-0.768 4.32-0.48 6.24t0.288 2.208q0.192 0.576 0.48 1.632 0.384 1.056 0.192 1.152 0.672 0.096 0.672 0.96 0.768 2.016 0.48 2.688-0.192 0.768-1.248 1.632-0.96 0.864-3.552 0.864-1.536-0.192-2.496-0.192-0.864 0-2.208-0.672-2.784-2.016-3.168-4.128-0.48-1.344-0.576-2.016t-0.096-0.96q-0.48-2.88 0.096-5.952 0.096-1.152 0.864-4.704 0.768-3.648 1.536-5.76 0-2.112-0.096-2.208l-3.744 7.296q-0.576 1.536-1.056 2.304-0.48 0.48-0.48 1.152-0.768 0.768-1.44 3.072 0 0.672-0.096 0.96t-0.768 1.44q-0.576 1.056-0.864 2.016-0.192 0.96-1.152 2.112 0 0.384-1.248 3.936-0.096 0.384-2.016 0.672l-1.824-0.192q-0.672-0.192-3.168-0.96t-2.784-0.768q-0.192 0-0.384-0.192-1.632-0.384-2.016-2.688v-1.536q0.48-0.576 0.096-2.208 0.192-0.96 0.288-2.208-0.288-0.192-0.096-0.672 0.192-3.072 0.192-4.32v-2.304q0.192-3.168 0.48-6.816t0.288-4.704v-1.92q-0.192-0.48-0.096-2.208-0.192-1.824-0.48-2.208-0.288-0.48-0.192-1.344l0.672-1.632q1.536-1.248 5.184-0.48 1.632 0.288 4.512 1.92 0.192 0.288 0.96 1.248 0.576 0 0.672 1.632-0.096 0.864-0.096 1.44-0.096 0.096-1.056 4.416-2.112 13.344-2.112 14.496t0.192 1.632z" opacity=".99183"/></g></svg>
