<?xml version="1.0" encoding="UTF-8"?>
<svg enable-background="new 0 0 1400 980" version="1.1" viewBox="0 0 1400 980" xml:space="preserve" xmlns="http://www.w3.org/2000/svg" xmlns:cc="http://creativecommons.org/ns#" xmlns:dc="http://purl.org/dc/elements/1.1/" xmlns:rdf="http://www.w3.org/1999/02/22-rdf-syntax-ns#" xmlns:xlink="http://www.w3.org/1999/xlink"><metadata><rdf:RDF><cc:Work rdf:about=""><dc:format>image/svg+xml</dc:format><dc:type rdf:resource="http://purl.org/dc/dcmitype/StillImage"/><dc:title/></cc:Work></rdf:RDF></metadata>

	<defs>
		<rect id="SVGID_1_" width="1400" height="980"/>
	<filter id="filter1785" x="-.00081981" y="-.001452" width="1.0016" height="1.0029" color-interpolation-filters="sRGB"><feGaussianBlur stdDeviation="0.070136437"/></filter><filter id="filter1789" x="-.00082357" y="-.0014355" width="1.0016" height="1.0029" color-interpolation-filters="sRGB"><feGaussianBlur stdDeviation="0.070458229"/></filter></defs>
	<clipPath id="SVGID_2_">
		<use overflow="visible" xlink:href="#SVGID_1_"/>
	</clipPath>
	<g clip-path="url(#SVGID_2_)">
		<path d="m-47.2 742.8c16 0.3 731.9-305.8 731.9-305.8s784.1 321.7 784.1 321.7c4.6 41 9.2 81.9 13.8 122.9 2.1 18.5 13 55 4.6 71.8-5.2 10.4-24.1 22.5-31.9 33-10.2 13.9-19.2 29.1-34.1 38.6-17.9 11.4-40.5 11.8-61.7 11.9-99.2 0.1-198.5 0.2-297.7 0.4-25 0-37.9-16-59.5-18.3-14.4-1.5-31.1 1.8-45.6 2.4-44.8 1.9-89.7 3-134.5 4-95.2 2.2-190.5 3.5-285.7 5.1-13.7 0.2-27.4 0.5-41.1 0.7-94.5 2-338.5-16-372.5-26s-138-26-138-26l-32.1-236.4z" fill="#84CFC5"/>
		<polygon points="684.7 437 684.7 -83.3 -79.4 -83.3 -79.4 803.1" fill="#61C2BB"/>
		<polygon points="684.7 437 684.7 -83.3 1448.8 -83.3 1448.8 803.1" fill="#56AEA8"/>
		
			<circle cx="697" cy="379.7" r="318.4" fill="#4DBDAD"/>
			<path d="m572.6 228.7s41.5-74.1 142.2-71.1 125.9 65.2 125.9 65.2-50.4 81.5-96.3 82.9c-45.9 1.5-171.8-77-171.8-77z" fill="#E6BF6E"/>
			<path d="m823.2 198.3c-17.5-17.8-50.4-39.1-108.3-40.8-60.9-1.8-100.1 24.5-121.6 45.7l61.4 26.4s32.6-14.8 41.5-14.8 8.9 9.9 16.8 8.9 7.9-18.8 21.7-18.8 43.4 3 58.3 3c6.4 0 18.7-4 30.2-9.6z" fill="#DFDFD7"/>
			<path d="m708.9 230.1s-118.5-77-208.8-1.5c-90.4 75.5 4.4 251.8 45.9 334.7s41.5 160 60.7 173.3c19.3 13.3 19.3 17.8 26.7 11.8 7.4-5.9-16.3-57.8 4.4-88.9s50.4 14.8 50.4 41.5-23.7 72.6 1.5 66.7 45.9-48.9 47.4-102.2 37-59.2 51.8-43c14.8 16.3-14.8 102.2-14.8 130.3s20.7 8.9 35.5-28.1 29.6-112.6 38.5-164.4 97.8-204.4 82.9-319.9c-14.7-115.4-140.6-53.2-222.1-10.3z" fill="#FEE874"/>
			<path d="m668.9 616s-2.1 29.9-9.4 34.5c7.3 2.9 14.2 10.5 19.4 19.7 0.3-19.4-1.8-34.5-1.8-43.1-0.1-11.1-8.2-11.1-8.2-11.1zm256.2-283.7c-2.2 3.7-16.3 49.6-35.5 91.1-19.3 41.5-45.2 128.9-50.4 137.7-5.2 8.9-26.7 117.8-42.2 165.1-5.8 17.6-13.8 29.6-21.5 36.5 4.9 11.9 21.6-6.7 34.1-38 14.8-37 29.6-112.6 38.5-164.4 6.7-38.9 58.3-134.3 77.4-228.3-0.1 0.1-0.3 0.2-0.4 0.3zm-194 276.3c0 8.9 2.2 72.6-17.8 120.7-8.3 19.9-16.9 32.1-24.5 38.7 0.3-0.1 0.5-0.1 0.8-0.1 25.2-5.9 45.9-48.9 47.4-102.2 0.4-13.9 3.1-24.6 7.2-32.5-1.1-13.4-2.3-23.3-3.5-26-4.4-10.5-9.6-7.5-9.6 1.4zm-115.5 68.1c-4.4 28.1 13.3 57 6.7 68.9-0.4 0.7-0.8 1.3-1.3 1.7 5.9 4.5 7.6 5.1 12.4 1.2 7.4-5.9-16.3-57.8 4.4-88.9 4.9-7.4 10.4-10.4 15.8-10.4-11.5-6.8-33.7 0.3-38 27.5z" fill="#E9C66E"/>
			<path d="m931.1 240.5c-14.8-115.5-140.7-53.3-222.2-10.4 0 0-118.5-77-208.8-1.5-64.1 53.6-35 158 2.2 243.7 1.9-2.4 4.7-4.3 8.9-5.3 19.3-4.4 40 84.4 54.8 88.1s5.9-83.7 39.3-130.3c33.3-46.7 85.2-40 117-17.8s8.9-42.2 47.4-82.2 100-1.5 100 48.9 11.9 46.7 26.7 9.6c7.2-17.9 16.6-27.5 24.9-31.9 9.2-37.8 14.2-76 9.8-110.9z" fill="#F1EDEC"/>
			<path d="m650.9 210.3s-14.8-4.1-20.4-4.1-4-2.1-10-2.5c-5.9-0.4-17.1-0.4-12.2 3.3 4.8 3.7 12.2 4.1 12.2 4.1s3 3.3 14.4 3.7c11.5 0.3 26 0.6 16-4.5z" fill="#CEC7C4"/>
			
				<path d="m602.7 378.7c0 11.6-9.4 21-21 21s-21-9.4-21-21 9.4-21 21-21c11.6 0.1 21 9.5 21 21z" fill="#fff"/>
			<g fill="#fff">
			<path d="m642.2 244.9s-16.3-37-83.7-27.4-78.5 117-43.7 128.9c34.8 11.8 60.7-77.8 80-80.7 19.3-3 44.4 25.9 86.6 13.3 42.3-12.6 19.3-34.8-39.2-34.1z"/>
			<path d="m586 298.3s-35.5 37-28.9 46.7c6.6 9.6 62.9-55.6 28.9-46.7z"/>
			<path d="m793.3 215.3c-6.7-9.6-64.4 25.2-77 33.3s2.2 11.1 19.3 8.9c17-2.2 64.4-32.6 57.7-42.2z"/>
			</g>
				<polygon points="483.8 777.4 468.2 783.3 468.2 807.8 497.1 823.3 526.7 807.8 528.2 781.1 518.6 778.9" fill="#D7D3D1"/>
				<polygon points="498.6 822.6 526.7 807.8 528.2 781.1 518.6 778.9 494.6 777.9 477.1 785.6 498.6 797" fill="#C8BDB7"/>
				<polygon points="501.5 765.6 478.6 775.2 477.1 785.6 499.3 795.2 521.5 782.6 521.5 775.2" fill="#E86F32"/>
				<path d="m499.3 795.2 22.2-12.6v-7l-16.7-1.5s-13 0.4-10.7 5.2c2.2 4.8 10 3 10 3l-4.8 4.1v8.8z" fill="#D45933"/>
				<path d="m494.1 772.2 53.3-202.9s6.7-4.4 11.8 3.7l-51.8 203.7s-1.5 5.9-10.4 4.4c-8.8-1.5-2.9-8.9-2.9-8.9z" fill="#D7D3D1"/>
				<path d="m555.8 569.4c-2.4 9.3-42.7 168.9-50.6 197.7-1.9 7-3.8 11.5-5.6 14.3 6.6 0.1 7.8-4.7 7.8-4.7l51.9-203.7c-1.1-1.7-2.3-2.9-3.5-3.6z" fill="#C8BDB7"/>
			
			
				<polygon points="597.1 820.4 581.5 826.3 581.5 850.7 610.4 866.3 640 850.7 641.5 824.1 631.9 821.9" fill="#D7D3D1"/>
				<polygon points="611.9 865.5 640 850.7 641.5 824.1 631.9 821.9 607.9 820.8 590.4 828.5 611.9 840" fill="#C8BDB7"/>
				<polygon points="614.8 808.5 591.9 818.2 590.4 828.5 612.6 838.2 634.8 825.6 634.8 818.2" fill="#E86F32"/>
				<path d="m612.6 838.2 22.2-12.6v-7l-16.7-1.5s-13 0.4-10.7 5.2c2.2 4.8 10 3 10 3l-4.8 4.1v8.8z" fill="#D45933"/>
				<path d="m607.4 815.2 53.3-202.9s6.7-4.4 11.8 3.7l-51.8 203.7s-1.5 5.9-10.4 4.4c-8.8-1.5-2.9-8.9-2.9-8.9z" fill="#D7D3D1"/>
				<path d="m669.2 612.3c-2.4 9.3-42.7 168.9-50.6 197.7-1.9 7-3.8 11.5-5.6 14.3 6.6 0.1 7.8-4.7 7.8-4.7l51.8-203.6c-1.1-1.8-2.3-2.9-3.4-3.7z" fill="#C8BDB7"/>
			
			
				<polygon points="914.8 763 930.3 768.9 930.3 793.3 901.4 808.9 871.8 793.3 870.3 766.7 880 764.5" fill="#D7D3D1"/>
				<polygon points="900 808.1 871.8 793.3 870.3 766.7 880 764.5 903.9 763.4 921.4 771.1 900 782.6" fill="#C8BDB7"/>
				<polygon points="897 751.1 920 760.8 921.4 771.1 899.2 780.8 877 768.2 877 760.8" fill="#E86F32"/>
				<path d="m899.2 780.8-22.2-12.6v-7l16.7-1.5s13 0.4 10.7 5.2c-2.2 4.8-10 3-10 3l4.8 4.1v8.8z" fill="#D45933"/>
				<path d="m904.4 757.8-53.3-202.9s-6.7-4.4-11.8 3.7l51.8 203.7s1.5 5.9 10.4 4.4c8.8-1.5 2.9-8.9 2.9-8.9z" fill="#D7D3D1"/>
				<path d="m842.7 554.9c2.4 9.3 42.7 168.9 50.6 197.7 1.9 7 3.8 11.5 5.6 14.3-6.6 0.1-7.8-4.7-7.8-4.7l-51.8-203.7c1-1.7 2.2-2.8 3.4-3.6z" fill="#C8BDB7"/>
			
			
				<polygon points="805.2 809.6 820.7 815.6 820.7 840 791.8 855.6 762.2 840 760.7 813.3 770.4 811.1" fill="#D7D3D1"/>
				<polygon points="790.4 854.8 762.2 840 760.7 813.3 770.4 811.1 794.3 810.1 811.8 817.8 790.4 829.3" fill="#C8BDB7"/>
				<polygon points="787.4 797.8 810.3 807.4 811.8 817.8 789.6 827.4 767.4 814.8 767.4 807.4" fill="#E86F32"/>
				<path d="m789.6 827.4-22.2-12.6v-7l16.7-1.5s13 0.4 10.7 5.2c-2.2 4.8-10 3-10 3l4.8 4.1v8.8z" fill="#D45933"/>
				<path d="m794.8 804.5-53.3-202.9s-6.7-4.4-11.8 3.7l51.8 203.7s1.5 5.9 10.4 4.4c8.8-1.5 2.9-8.9 2.9-8.9z" fill="#D7D3D1"/>
				<path d="m733.1 601.6c2.3 9.3 42.7 168.9 50.6 197.7 1.9 7 3.8 11.5 5.6 14.3-6.6 0.1-7.8-4.7-7.8-4.7l-51.8-203.7c1-1.7 2.2-2.8 3.4-3.6z" fill="#C8BDB7"/>
			
			<path d="m756.3 470.8s-14.1 41.5-37 35.5c-23-5.9-38.5-23-39.2-1.5s9.6 63.7 27.4 63.7 21.5 27.4 36.3 25.2c14.7-2.2 74-107.3 12.5-122.9z" fill="#F3EBD6"/>
			
				<circle cx="706.9" cy="551.5" r="12.8" fill="#fff"/>
				<path d="m707 541.1c-2.7 0-5.2 1.1-7 2.9 1.5-0.9 3.2-1.5 5.1-1.5 5.4 0 9.8 4.4 9.8 9.8 0 2.7-1.1 5.2-2.9 6.9 2.8-1.7 4.7-4.8 4.7-8.4 0.1-5.3-4.3-9.7-9.7-9.7z" fill="#D3E8F8"/>
			
			
				<circle cx="769.1" cy="544.1" r="12.8" fill="#fff"/>
				<path d="m769.2 533.7c-2.7 0-5.2 1.1-7 2.9 1.5-0.9 3.2-1.5 5.1-1.5 5.4 0 9.8 4.4 9.8 9.8 0 2.7-1.1 5.2-2.9 6.9 2.8-1.7 4.7-4.8 4.7-8.4 0.1-5.3-4.3-9.7-9.7-9.7z" fill="#D3E8F8"/>
			
			
				<circle cx="551.4" cy="366.4" r="12.8" fill="#fff"/>
				<path d="m551.5 356c-2.7 0-5.2 1.1-7 2.9 1.5-0.9 3.2-1.5 5.1-1.5 5.4 0 9.8 4.4 9.8 9.8 0 2.7-1.1 5.2-2.9 6.9 2.8-1.7 4.7-4.8 4.7-8.4 0.1-5.3-4.3-9.7-9.7-9.7z" fill="#D3E8F8"/>
			
			
				<circle cx="565.7" cy="377.8" r="12.8" fill="#fff"/>
				<path d="m565.8 367.3c-2.7 0-5.2 1.1-7 2.9 1.5-0.9 3.2-1.5 5.1-1.5 5.4 0 9.8 4.4 9.8 9.8 0 2.7-1.1 5.2-2.9 6.9 2.8-1.7 4.7-4.8 4.7-8.4 0.1-5.3-4.3-9.7-9.7-9.7z" fill="#D3E8F8"/>
			
			
				<circle cx="582" cy="353.6" r="5.9" fill="#fff"/>
				<path d="m582 348.8c-1.3 0-2.4 0.5-3.2 1.3 0.7-0.4 1.5-0.7 2.4-0.7 2.5 0 4.5 2 4.5 4.5 0 1.3-0.5 2.4-1.3 3.2 1.3-0.8 2.2-2.2 2.2-3.9 0-2.4-2.1-4.4-4.6-4.4z" fill="#D3E8F8"/>
			
			
				<path d="m540.5 369.4c0 3.3-2.7 5.9-5.9 5.9-3.3 0-5.9-2.7-5.9-5.9 0-3.3 2.7-5.9 5.9-5.9 3.3-0.1 5.9 2.6 5.9 5.9z" fill="#fff"/>
				<path d="m534.6 364.6c-1.3 0-2.4 0.5-3.2 1.3 0.7-0.4 1.5-0.7 2.4-0.7 2.5 0 4.5 2 4.5 4.5 0 1.2-0.5 2.4-1.3 3.2 1.3-0.8 2.2-2.2 2.2-3.9 0-2.4-2.1-4.4-4.6-4.4z" fill="#D3E8F8"/>
			
			
				<circle cx="514.9" cy="378.7" r="5.9" fill="#fff"/>
				<path d="m514.9 373.9c-1.3 0-2.4 0.5-3.2 1.3 0.7-0.4 1.5-0.7 2.4-0.7 2.5 0 4.5 2 4.5 4.5 0 1.2-0.5 2.4-1.3 3.2 1.3-0.8 2.2-2.2 2.2-3.9-0.1-2.3-2.1-4.4-4.6-4.4z" fill="#D3E8F8"/>
			
			
				<path d="m482.8 380.7c0 3.3-2.7 5.9-5.9 5.9-3.3 0-5.9-2.7-5.9-5.9 0-3.3 2.7-5.9 5.9-5.9s5.9 2.6 5.9 5.9z" fill="#fff"/>
				<path d="m476.9 375.9c-1.3 0-2.4 0.5-3.2 1.3 0.7-0.4 1.5-0.7 2.4-0.7 2.5 0 4.5 2 4.5 4.5 0 1.2-0.5 2.4-1.3 3.2 1.3-0.8 2.2-2.2 2.2-3.9-0.1-2.4-2.1-4.4-4.6-4.4z" fill="#D3E8F8"/>
			
			
				<path d="m540.5 400c0 3.3-2.7 5.9-5.9 5.9-3.3 0-5.9-2.7-5.9-5.9 0-3.3 2.7-5.9 5.9-5.9 3.3-0.1 5.9 2.6 5.9 5.9z" fill="#fff"/>
				<path d="m534.6 395.2c-1.3 0-2.4 0.5-3.2 1.3 0.7-0.4 1.5-0.7 2.4-0.7 2.5 0 4.5 2 4.5 4.5 0 1.3-0.5 2.4-1.3 3.2 1.3-0.8 2.2-2.2 2.2-3.9 0-2.4-2.1-4.4-4.6-4.4z" fill="#D3E8F8"/>
			
			
				<path d="m559.3 419.7c0 3.3-2.7 5.9-5.9 5.9-3.3 0-5.9-2.7-5.9-5.9 0-3.3 2.7-5.9 5.9-5.9s5.9 2.7 5.9 5.9z" fill="#fff"/>
				<path d="m553.4 414.9c-1.3 0-2.4 0.5-3.2 1.3 0.7-0.4 1.5-0.7 2.4-0.7 2.5 0 4.5 2 4.5 4.5 0 1.3-0.5 2.4-1.3 3.2 1.3-0.8 2.2-2.2 2.2-3.9-0.1-2.4-2.1-4.4-4.6-4.4z" fill="#D3E8F8"/>
			
			
				<path d="m595.8 402.8c0 3.3-2.7 5.9-5.9 5.9-3.3 0-5.9-2.7-5.9-5.9 0-3.3 2.7-5.9 5.9-5.9s5.9 2.6 5.9 5.9z" fill="#fff"/>
				<path d="m589.9 398c-1.3 0-2.4 0.5-3.2 1.3 0.7-0.4 1.5-0.7 2.4-0.7 2.5 0 4.5 2 4.5 4.5 0 1.2-0.5 2.4-1.3 3.2 1.3-0.8 2.2-2.2 2.2-3.9-0.1-2.4-2.1-4.4-4.6-4.4z" fill="#D3E8F8"/>
			
			
				<path d="m566.3 414.7c0 1.2-0.9 2.1-2.1 2.1s-2.1-0.9-2.1-2.1 0.9-2.1 2.1-2.1 2.1 0.9 2.1 2.1z" fill="#fff"/>
				<path d="m564.2 413c-0.4 0-0.8 0.2-1.1 0.5 0.2-0.2 0.5-0.2 0.8-0.2 0.9 0 1.6 0.7 1.6 1.6 0 0.4-0.2 0.8-0.5 1.1 0.5-0.3 0.8-0.8 0.8-1.4 0-0.9-0.7-1.6-1.6-1.6z" fill="#D3E8F8"/>
			
			
				<path d="m517.8 355c0 3.3-2.7 5.9-5.9 5.9-3.3 0-5.9-2.7-5.9-5.9 0-3.3 2.7-5.9 5.9-5.9 3.3 0 5.9 2.7 5.9 5.9z" fill="#fff"/>
				<path d="m511.9 350.2c-1.3 0-2.4 0.5-3.2 1.3 0.7-0.4 1.5-0.7 2.4-0.7 2.5 0 4.5 2 4.5 4.5 0 1.3-0.5 2.4-1.3 3.2 1.3-0.8 2.2-2.2 2.2-3.9 0-2.3-2.1-4.4-4.6-4.4z" fill="#D3E8F8"/>
			
			
				<path d="m591.9 377.8c0 3.3-2.7 5.9-5.9 5.9-3.3 0-5.9-2.7-5.9-5.9 0-3.3 2.7-5.9 5.9-5.9 3.2-0.1 5.9 2.6 5.9 5.9z" fill="#fff"/>
				<path d="m586 372.9c-1.3 0-2.4 0.5-3.2 1.3 0.7-0.4 1.5-0.7 2.4-0.7 2.5 0 4.5 2 4.5 4.5 0 1.2-0.5 2.4-1.3 3.2 1.3-0.8 2.2-2.2 2.2-3.9-0.1-2.3-2.1-4.4-4.6-4.4z" fill="#D3E8F8"/>
			
			
				<path d="m585.5 366.4c0 2.5-2 4.4-4.4 4.4-2.5 0-4.4-2-4.4-4.4 0-2.5 2-4.4 4.4-4.4s4.4 1.9 4.4 4.4z" fill="#fff"/>
				<path d="m581 362.8c-0.9 0-1.8 0.4-2.4 1 0.5-0.3 1.1-0.5 1.8-0.5 1.9 0 3.4 1.5 3.4 3.4 0 0.9-0.4 1.8-1 2.4 1-0.6 1.6-1.7 1.6-2.9 0-1.9-1.5-3.4-3.4-3.4z" fill="#D3E8F8"/>
			
			
				<path d="m634.8 350.1c0 3.3-2.7 5.9-5.9 5.9-3.3 0-5.9-2.7-5.9-5.9 0-3.3 2.7-5.9 5.9-5.9 3.3 0 5.9 2.6 5.9 5.9z" fill="#fff"/>
				<path d="m628.9 345.3c-1.3 0-2.4 0.5-3.2 1.3 0.7-0.4 1.5-0.7 2.4-0.7 2.5 0 4.5 2 4.5 4.5 0 1.2-0.5 2.4-1.3 3.2 1.3-0.8 2.2-2.2 2.2-3.9 0-2.4-2.1-4.4-4.6-4.4z" fill="#D3E8F8"/>
			
			
				<circle cx="624" cy="389.1" r="5.9" fill="#fff"/>
				<path d="m624 384.3c-1.3 0-2.4 0.5-3.2 1.3 0.7-0.4 1.5-0.7 2.4-0.7 2.5 0 4.5 2 4.5 4.5 0 1.2-0.5 2.4-1.3 3.2 1.3-0.8 2.2-2.2 2.2-3.9-0.1-2.4-2.1-4.4-4.6-4.4z" fill="#D3E8F8"/>
			
			
				<path d="m503 406.4c0 3.3-2.7 5.9-5.9 5.9-3.3 0-5.9-2.7-5.9-5.9 0-3.3 2.7-5.9 5.9-5.9 3.3 0 5.9 2.6 5.9 5.9z" fill="#fff"/>
				<path d="m497.1 401.6c-1.3 0-2.4 0.5-3.2 1.3 0.7-0.4 1.5-0.7 2.4-0.7 2.5 0 4.5 2 4.5 4.5 0 1.2-0.5 2.4-1.3 3.2 1.3-0.8 2.2-2.2 2.2-3.9-0.1-2.4-2.1-4.4-4.6-4.4z" fill="#D3E8F8"/>
			
			
				<path d="m590.2 403.4c-3.2 0.4-6.2-1.8-6.7-5.1-0.4-3.2 1.8-6.2 5.1-6.7 3.2-0.4 6.2 1.8 6.7 5.1 0.4 3.3-1.9 6.2-5.1 6.7z" fill="#fff"/>
				<path d="m594.2 396.9c-0.2-1.2-0.8-2.3-1.8-3 0.5 0.6 0.9 1.4 1 2.2 0.3 2.5-1.4 4.8-3.9 5.1-1.2 0.2-2.4-0.2-3.4-0.9 1 1.2 2.5 1.9 4.1 1.6 2.6-0.2 4.3-2.5 4-5z" fill="#D3E8F8"/>
			
			
				<path d="m729.2 545.3c0 4.4-3.6 8-8 8s-8-3.6-8-8 3.6-8 8-8c4.4-0.1 8 3.5 8 8z" fill="#fff"/>
				<path d="m721.2 538.7c-1.7 0-3.2 0.7-4.4 1.8 0.9-0.6 2-0.9 3.2-0.9 3.4 0 6.1 2.8 6.1 6.1 0 1.7-0.7 3.2-1.8 4.3 1.8-1.1 2.9-3 2.9-5.2 0.2-3.3-2.6-6.1-6-6.1z" fill="#D3E8F8"/>
			
			
				<path d="m738.3 554.1c0 4.4-3.6 8-8 8s-8-3.6-8-8 3.6-8 8-8 8 3.6 8 8z" fill="#fff"/>
				<path d="m730.3 547.6c-1.7 0-3.2 0.7-4.4 1.8 0.9-0.6 2-0.9 3.2-0.9 3.4 0 6.1 2.8 6.1 6.1 0 1.7-0.7 3.2-1.8 4.3 1.8-1.1 2.9-3 2.9-5.2 0.1-3.3-2.6-6.1-6-6.1z" fill="#D3E8F8"/>
			
			
				<circle cx="755.8" cy="547.5" r="4.7" fill="#fff"/>
				<path d="m755.8 543.7c-1 0-1.9 0.4-2.5 1.1 0.5-0.3 1.2-0.5 1.9-0.5 2 0 3.6 1.6 3.6 3.6 0 1-0.4 1.9-1 2.5 1-0.6 1.7-1.8 1.7-3.1-0.1-2-1.7-3.6-3.7-3.6z" fill="#C7E1F5"/>
			
			
				<circle cx="736.7" cy="546.7" r="4.7" fill="#fff"/>
				<path d="m736.7 542.9c-1 0-1.9 0.4-2.5 1.1 0.5-0.3 1.2-0.5 1.9-0.5 2 0 3.6 1.6 3.6 3.6 0 1-0.4 1.9-1 2.5 1-0.6 1.7-1.8 1.7-3.1-0.1-2-1.7-3.6-3.7-3.6z" fill="#C7E1F5"/>
			
			<rect x="700.5" y="555.5" width="47.4" height="14.8" fill="#EDCFA0"/>
			<path d="m715.4 563.6 0.1-8.1h-1l0.9 8.1zm-1.9 0 0.1-8.1h-1l0.9 8.1zm-1.8 0 0.1-8.1h-1l0.9 8.1zm7.3 0 0.1-8.1h-1l0.9 8.1zm1.9 0 0.1-8.1h-1l0.9 8.1zm-3.7 0 0.1-8.1h-1l0.9 8.1zm-9.2 0 0.1-8.1h-1l0.9 8.1zm-5.5 0 0.1-8.1h-1l0.9 8.1zm-2-1.9 0.2 1.9 0.1-8.1h-0.3v6.2zm47-6.2 0.3 3.4v-3.4h-0.3zm-24.8 8.1 0.1-8.1h-1l0.9 8.1zm-18.3 0 0.1-8.1h-1l0.9 8.1zm1.8 0 0.1-8.1h-1l0.9 8.1zm3.7 0 0.1-8.1h-1l0.9 8.1zm31.1 0 0.1-8.1h-1l0.9 8.1zm-1.8 0 0.1-8.1h-1l0.9 8.1zm3.7 0 0.1-8.1h-1l0.9 8.1zm3.6 0 0.1-8.1h-1l0.9 8.1zm-1.8 0 0.1-8.1h-1l0.9 8.1zm-7.3 0 0.1-8.1h-1l0.9 8.1zm-12.9 0 0.1-8.1h-1l0.9 8.1zm3.7 0 0.1-8.1h-1l0.9 8.1zm-1.8 0 0.1-8.1h-1l0.9 8.1zm3.6 0 0.1-8.1h-1l0.9 8.1zm5.5 0 0.1-8.1h-1l0.9 8.1zm-1.8 0 0.1-8.1h-1l0.9 8.1zm-1.8 0 0.1-8.1h-1l0.9 8.1z" fill="#DAAC64"/>
			<rect x="698.5" y="559.2" width="52.6" height="13.8" fill="#CDB777"/>
			<path d="m728.6 785.2c0 1.3-1.6 2.3-3.5 2.3s-3.5-1.1-3.5-2.3v-216.7c0-1.3 1.6-2.3 3.5-2.3s3.5 1 3.5 2.3v216.7z" fill="#CDB777"/>
			
				<ellipse cx="712.9" cy="554.5" rx="4.4" ry="4.9" fill="#fff"/>
				<path d="m713 550.5c-0.9 0-1.8 0.4-2.4 1.1 0.5-0.3 1.1-0.6 1.8-0.6 1.9 0 3.4 1.7 3.4 3.7 0 1-0.4 2-1 2.6 1-0.7 1.6-1.8 1.6-3.2 0-1.9-1.6-3.6-3.4-3.6z" fill="#C7E1F5"/>
			
			
				<circle cx="698" cy="558.2" r="4.7" fill="#fff"/>
				<path d="m698.1 554.4c-1 0-1.9 0.4-2.5 1.1 0.5-0.3 1.2-0.5 1.9-0.5 2 0 3.6 1.6 3.6 3.6 0 1-0.4 1.9-1 2.5 1-0.6 1.7-1.8 1.7-3.1-0.2-2-1.8-3.6-3.7-3.6z" fill="#C7E1F5"/>
			
			
				<circle cx="752.3" cy="562.3" r="3.3" fill="#fff"/>
				<path d="m752.3 559.7c-0.7 0-1.3 0.3-1.8 0.7 0.4-0.2 0.8-0.4 1.3-0.4 1.4 0 2.5 1.1 2.5 2.5 0 0.7-0.3 1.3-0.7 1.8 0.7-0.4 1.2-1.2 1.2-2.1 0-1.4-1.1-2.5-2.5-2.5z" fill="#C7E1F5"/>
			
			
				<path d="m784.7 541.9c0 1.8-1.5 3.3-3.3 3.3s-3.3-1.5-3.3-3.3 1.5-3.3 3.3-3.3c1.9 0 3.3 1.5 3.3 3.3z" fill="#fff"/>
				<path d="m781.5 539.2c-0.7 0-1.3 0.3-1.8 0.7 0.4-0.2 0.8-0.4 1.3-0.4 1.4 0 2.5 1.1 2.5 2.5 0 0.7-0.3 1.3-0.7 1.8 0.7-0.4 1.2-1.2 1.2-2.1 0-1.3-1.1-2.5-2.5-2.5z" fill="#C7E1F5"/>
			
			
				<circle cx="749.2" cy="538" r="3.3" fill="#fff"/>
				<path d="m749.2 535.3c-0.7 0-1.3 0.3-1.8 0.7 0.4-0.2 0.8-0.4 1.3-0.4 1.4 0 2.5 1.1 2.5 2.5 0 0.7-0.3 1.3-0.7 1.8 0.7-0.4 1.2-1.2 1.2-2.1 0.1-1.3-1.1-2.5-2.5-2.5z" fill="#C7E1F5"/>
			
			
				<circle cx="682.6" cy="569.3" r="3.3" fill="#fff"/>
				<path d="m682.6 566.7c-0.7 0-1.3 0.3-1.8 0.7 0.4-0.2 0.8-0.4 1.3-0.4 1.4 0 2.5 1.1 2.5 2.5 0 0.7-0.3 1.3-0.7 1.8 0.7-0.4 1.2-1.2 1.2-2.1 0-1.4-1.1-2.5-2.5-2.5z" fill="#C7E1F5"/>
			
			
				<circle cx="678.7" cy="551.5" r="3.3" fill="#fff"/>
				<path d="m678.7 548.9c-0.7 0-1.3 0.3-1.8 0.7 0.4-0.2 0.8-0.4 1.3-0.4 1.4 0 2.5 1.1 2.5 2.5 0 0.7-0.3 1.3-0.7 1.8 0.7-0.4 1.2-1.2 1.2-2.1 0-1.4-1.1-2.5-2.5-2.5z" fill="#C7E1F5"/>
			
			
				<path d="m700.9 571.2c0 0.9-0.7 1.7-1.7 1.7-0.9 0-1.7-0.7-1.7-1.7 0-0.9 0.7-1.7 1.7-1.7s1.7 0.7 1.7 1.7z" fill="#fff"/>
				<path d="m699.3 569.8c-0.3 0-0.7 0.1-0.9 0.4 0.2-0.1 0.4-0.2 0.7-0.2 0.7 0 1.3 0.6 1.3 1.3 0 0.4-0.1 0.7-0.4 0.9 0.4-0.2 0.6-0.6 0.6-1.1-0.1-0.7-0.6-1.3-1.3-1.3z" fill="#C7E1F5"/>
			
			
				<circle cx="742.8" cy="536" r="1.7" fill="#fff"/>
				<path d="m742.8 534.6c-0.3 0-0.7 0.1-0.9 0.4 0.2-0.1 0.4-0.2 0.7-0.2 0.7 0 1.3 0.6 1.3 1.3 0 0.4-0.1 0.7-0.4 0.9 0.4-0.2 0.6-0.6 0.6-1.1 0-0.7-0.6-1.3-1.3-1.3z" fill="#C7E1F5"/>
			
			
				<path d="m768.1 545.6c0 0.9-0.7 1.7-1.7 1.7-0.9 0-1.7-0.7-1.7-1.7 0-0.9 0.7-1.7 1.7-1.7 1 0.1 1.7 0.8 1.7 1.7z" fill="#fff"/>
				<path d="m766.5 544.3c-0.4 0-0.7 0.1-0.9 0.4 0.2-0.1 0.4-0.2 0.7-0.2 0.7 0 1.3 0.6 1.3 1.3 0 0.4-0.1 0.7-0.4 0.9 0.4-0.2 0.6-0.6 0.6-1.1 0-0.8-0.6-1.3-1.3-1.3z" fill="#C7E1F5"/>
			
			
				<circle cx="784.2" cy="533.8" r="1.7" fill="#fff"/>
				<path d="m784.2 532.4c-0.3 0-0.7 0.1-0.9 0.4 0.2-0.1 0.4-0.2 0.7-0.2 0.7 0 1.3 0.6 1.3 1.3 0 0.4-0.1 0.7-0.4 0.9 0.4-0.2 0.6-0.6 0.6-1.1 0-0.7-0.5-1.3-1.3-1.3z" fill="#C7E1F5"/>
			
			
				<circle cx="688.9" cy="560.1" r="1.7" fill="#fff"/>
				<path d="m688.9 558.7c-0.3 0-0.7 0.1-0.9 0.4 0.2-0.1 0.4-0.2 0.7-0.2 0.7 0 1.3 0.6 1.3 1.3 0 0.4-0.1 0.7-0.4 0.9 0.4-0.2 0.6-0.6 0.6-1.1 0-0.7-0.6-1.3-1.3-1.3z" fill="#C7E1F5"/>
			
			
				<circle cx="665.4" cy="564.1" r="1.7" fill="#fff"/>
				<path d="m665.4 562.8c-0.3 0-0.7 0.1-0.9 0.4 0.2-0.1 0.4-0.2 0.7-0.2 0.7 0 1.3 0.6 1.3 1.3 0 0.4-0.1 0.7-0.4 0.9 0.4-0.2 0.6-0.6 0.6-1.1 0-0.7-0.6-1.3-1.3-1.3z" fill="#C7E1F5"/>
			
			<g fill="#00926E">
				<path d="m532.8 937.4c0 2.9-2.4 5.3-5.3 5.3s-5.3-2.4-5.3-5.3v-60.7c0-2.9 2.4-5.3 5.3-5.3s5.3 2.4 5.3 5.3v60.7z"/>
				<path d="m319 851.1c0 2.9-2.4 5.3-5.3 5.3s-5.3-2.4-5.3-5.3v-60.7c0-2.9 2.4-5.3 5.3-5.3s5.3 2.4 5.3 5.3v60.7z"/>
				<polygon points="556.9 911.1 547.6 915.8 302.3 800.9 293.6 758.5 302.3 754 556.9 864.2"/>
				<polygon points="548.2 915.7 293.6 805.5 293.6 758.5 548.2 868.8"/>
				</g><polygon points="546 913.2 295.7 804.8 295.7 761.1 546 869.5" fill="#4DBDAD"/>
				
			
			<g fill="#00926E">
				<path d="m867.2 937.4c0 2.9 2.4 5.3 5.3 5.3s5.3-2.4 5.3-5.3v-60.7c0-2.9-2.4-5.3-5.3-5.3s-5.3 2.4-5.3 5.3v60.7z"/>
				<path d="m1081 851.1c0 2.9 2.4 5.3 5.3 5.3s5.3-2.4 5.3-5.3v-60.7c0-2.9-2.4-5.3-5.3-5.3s-5.3 2.4-5.3 5.3v60.7z"/>
				<polygon points="843.1 911.1 852.4 915.8 1097.7 800.9 1106.4 758.5 1097.7 754 843.1 864.2"/>
				<polygon points="851.8 915.7 1106.4 805.5 1106.4 758.5 851.8 868.8"/>
				</g><polygon points="854 913.2 1104.3 804.8 1104.3 761.1 854 869.5" fill="#4DBDAD"/>
				
			
			
				<path d="m727.7 724.2s-6.1-2.2-6.8-4 0-3.2 0-3.2l2 0.5 5.4-3.6 0.2-2.6s3.2 4.2 3.7 6.8 0.2 5.1 0.2 5.1l-4.7 1z" fill="#FFD391"/>
				<path d="m726.2 724.3-1.6-1s0.1-3 3.6-3.4 5.5 1.4 5.5 1.4l-0.3 2.6-7.2 0.4z" fill="#29B574"/>
				<path d="m726.8 671.2s4.7-4.4 4.6-6.4c-0.1-1.9-2.8-3.9-2.8-3.9l-0.8 2.9s-7.2-2.4-6.5-1.6c0.3 0.4 0.3-3.4 0.3-3.4l-1.2 2s-0.8 3.9-0.2 6.4 1.8 4.8 1.8 4.8l4.8-0.8z" fill="#FFD391"/>
				<path d="m727.4 672.1 1.9-0.7s0.4-3-3.3-4-6.3 0.4-6.3 0.4l-0.1 2.7 7.8 1.6z" fill="#29B574"/>
				
					<path d="m722.7 875.5-0.6-0.3-0.1 2s2.3 2 4.2 2 5-2.6 5-2.6l0.3-2-0.7-0.7-8.1 1.6z" fill="#D3B254"/>
					<path d="m722.5 869.5s-1.3 5.1-0.1 6.3l1.2 1.2s3.1 1.2 5.5-0.5c1.3-1 1.5-1.5 1.5-1.5s0.8-1.4 0-4.1c-0.8-2.6-8.1-1.4-8.1-1.4z" fill="#2C2624"/>
				
				
					<path d="m694.1 856.7-0.6-0.3-0.1 2s2.3 2 4.2 2 5-2.6 5-2.6l0.3-2-0.7-0.7-8.1 1.6z" fill="#D3B254"/>
					<path d="m693.9 850.8s-1.3 5.1-0.1 6.3l1.2 1.2s3.1 1.2 5.5-0.5c1.3-1 1.5-1.5 1.5-1.5s0.8-1.4 0-4.1-8.1-1.4-8.1-1.4z" fill="#2C2624"/>
				
				<path d="m697.7 797.1-5.5 53.9s2.6 5.2 5.1 5.2 5.4-2.9 5.4-2.9 3.2-30.9 7.1-30.9 10.7 49.2 10.7 49.2 3.2 2.9 6.9 1.9 4.8-4.8 4.8-4.8l-5.3-59.7-29.2-11.9z" fill="#A87D50"/>
				<path d="m718.9 668.9-25.6 69-2.9 13.3 6.8 40.8-3.9 19.7s4.9 10 8.9 14.1c4.1 4.1 20.3 8.3 22.7 5.9l3.3-3.3 2.2-53.2s11.1-14.7 12.9-22-9.1-29.2-10-30.2c-0.9-0.9-3.9-4-8.2 0.2l6.6 22-6.6 14.7-16.3-24.7s17.4-52.8 19-57.8c1.7-4.9-1.4-11.9-8.9-8.5z" fill="#EEEFE9"/>
				<path d="m708.8 735.3s17.4-52.8 19-57.8c0.9-2.8 0.3-6.1-1.6-8-0.3 0.2-0.5 0.4-0.7 0.5-0.6 0.6-21 67.8-21 67.8l6 2.7 0.6-1.5-2.3-3.7z" fill="#E0DADA"/>
				<path d="m734.3 767.4c-0.7 0-10.3 7.9-10.3 7.9l-2.5 23.5s-3.1 1.4-8.3-2.4c-4.1-2.9-14.3-15-18.6-20.2l2.6 15.8-0.1 0.6s7.2 10 17.2 24.9c5.1 7.5 7.4 12.1 8.4 14.8 1-0.1 1.8-0.3 2.1-0.7l3.3-3.3 2.2-53.2s0.8-1.1 2.1-2.9c0.1 0.1 2.1-4.8 1.9-4.8z" fill="#E0DADA"/><g fill="#FFD391">
				<path d="m708.6 750.5v4.9s1.7 2 4.5 2 4.4-1.8 4.4-1.8v-6.5l-8.9 1.4z"/>
				<path d="m720.3 737.4s2.7-0.1 2.7 1.4 0.3 7.5-2.5 6.3c-2.7-1.3-0.2-7.7-0.2-7.7z"/>
				<path d="m702.8 737.4s-2.7-0.1-2.7 1.4-0.3 7.5 2.5 6.3c2.7-1.3 0.2-7.7 0.2-7.7z"/>
				</g><path d="m703.7 746.1s-3.3-7.6-3.3-12.7 6.3-9 7.7-10.4 5.9-1.2 8.8 0.3c2.9 1.6 2 2.9 2.9 2.9 1 0 3.1 2 3.1 4.1 0 2-2.5 16-3.3 18.1s-2.7 6-2.7 6l-1.8-1.8-0.7 2-1.6-1.6-0.6 2-1.5-2.7-2.2 2.2s-1.4-2.3-2-2.9c-0.5-0.5-2.8-5.5-2.8-5.5z" fill="#2C2624"/>
				<path d="m733.3 723c-0.6-0.6-2.2-2.2-4.4-1.9 0.2 0.4 12.4 19.8 12.4 28.5s-17.2 25.6-17.2 25.6l4.4-2.4 1.9 2.3s11.1-14.7 12.9-22c1.8-7.2-9.1-29.1-10-30.1z" fill="#E0DADA"/>
			
			
				
					<circle cx="528.4" cy="384.2" r="7.4" fill="#fff"/>
				
				
					<circle cx="550.9" cy="384.2" r="5.9" fill="#fff"/>
					<path d="m550.9 379.4c-1.3 0-2.4 0.5-3.2 1.3 0.7-0.4 1.5-0.7 2.4-0.7 2.5 0 4.5 2 4.5 4.5 0 1.3-0.5 2.4-1.3 3.2 1.3-0.8 2.2-2.2 2.2-3.9 0-2.4-2.1-4.4-4.6-4.4z" fill="#D3E8F8"/>
				
				
					<path d="m561.8 394.5c0 3.3-2.7 5.9-5.9 5.9-3.3 0-5.9-2.7-5.9-5.9 0-3.3 2.7-5.9 5.9-5.9s5.9 2.7 5.9 5.9z" fill="#fff"/>
					<path d="m555.9 389.7c-1.3 0-2.4 0.5-3.2 1.3 0.7-0.4 1.5-0.7 2.4-0.7 2.5 0 4.5 2 4.5 4.5 0 1.3-0.5 2.4-1.3 3.2 1.3-0.8 2.2-2.2 2.2-3.9-0.1-2.3-2.1-4.4-4.6-4.4z" fill="#D3E8F8"/>
				
				<polygon points="516.6 385.2 529.2 373.8 567.2 376 569.7 390.8 556.8 398.7" fill="#EDCFA0"/>
				<path d="m567.7 379.3-12.5 8 12.6-7.4-0.1-0.6zm-0.1-0.8-12.5 8 12.6-7.4-0.1-0.6zm0.3 1.5-12.5 8.1 12.6-7.4-0.1-0.7zm-0.4-2.2-12.5 8 12.6-7.4-0.1-0.6zm0.8 5.1-12.6 8.1 12.7-7.4-0.1-0.7zm-0.1-0.7-12.5 8.1 12.7-7.4-0.2-0.7zm-0.1-0.7-12.5 8.1 12.6-7.4-0.1-0.7zm-0.1-0.8-12.5 8.1 12.6-7.4-0.1-0.7zm0.8 5.2-12.6 8.1 12.7-7.5-0.1-0.6zm-1.6-9.9h-0.7l-13.9 9.2 14.6-8.9v-0.3zm1.5 9.1-12.6 8.1 12.7-7.5-0.1-0.6zm0.3 1.5-12.6 8.1 12.7-7.5-0.1-0.6zm-38.9-12.7-12 11.8 13-11.8h-1zm39.1 14.2-12.7 8.1 12.8-7.5-0.1-0.6zm-0.1-0.8-12.6 8.1 12.7-7.5-0.1-0.6zm-0.6-3.6-12.6 8.1 12.7-7.5-0.1-0.6zm0.8 5.1-12.7 8.2 12.8-7.5-0.1-0.7zm-29.4-14.4-12.7 11.3 13.8-11.2-1.1-0.1zm-2.5-0.1-12.6 11.5 13.7-11.4-1.1-0.1zm4.9 0.3-12.8 11.1 13.9-11-1.1-0.1zm2.4 0.1-13 10.9 14.1-10.8-1.1-0.1zm-9.7-0.6-12.5 11.7 13.6-11.6-1.1-0.1zm12.1 0.8-13.1 10.7 14.2-10.6-1.1-0.1zm22.3 14.6-12.7 8.2 12.8-7.5-0.1-0.7zm-36.9-15.5-12.4 11.9 13.4-11.8-1-0.1zm29.2 1.7-13.7 9.6 14.9-9.5-1.2-0.1zm2.4 0.1-13.8 9.4 15-9.3-1.2-0.1zm4.5 8.6-12.6 8.1 12.7-7.5-0.1-0.6zm-1.2-7.3-12.5 8 12.6-7.4-0.1-0.6zm-8.2-1.5-13.6 9.7 14.8-9.7h-1.2zm-2.4-0.2-13.5 9.9 14.6-9.9h-1.1zm-4.8-0.3-13.3 10.3 14.4-10.3h-1.1zm2.4 0.2-13.4 10.1 14.5-10.1h-1.1zm-4.8-0.3-13.2 10.5 14.3-10.4-1.1-0.1z" fill="#DAAC64"/>
				<polygon points="516.8 395.8 512.4 386.9 518.6 382 555.3 383.9 556.8 398.7 553.4 400.7" fill="#CDB777"/>
				<path d="m555.3 383.9-7.2 4.1-32.8-0.9 33.5 3.1 1.4 10 3.1 0.4 3.5-2-1.5-14.7zm-39.2 10.5 0.7 1.4 16 2.2v-5.8l-7.4 0.6-9.3 1.6z" fill="#C3996B"/>
				<path d="m420.5 502.5 13.5-5.2 6.4 3.7v5.7s-20.2 9.2-26.2 4.2l6.3-8.4z" fill="#D4CEC6"/>
				<path d="m386.2 549.8c-0.9 0.9-2.8 0.6-4.2-0.7s-1.8-3.2-1-4.1l148.6-157.8c0.9-0.9 2.8-0.6 4.2 0.7s1.8 3.2 1 4.1l-148.6 157.8z" fill="#CDB777"/>
				<path d="m488.7 430 1.1 1.1 8 0.3s0 1.6-0.7 3.5-2.6 3.8-2.6 3.8l-4.2 1.2-3.9-0.7v-9.2c0.1 0 0-2.2 2.3 0z" fill="#FFD391"/>
				<path d="m485.4 440.5-0.7-2.8s3-3.3 6.4-3.1c3.4 0.3 4.3 3.2 4.3 3.2l-1.8 1.8-8.2 0.9z" fill="#29B574"/>
				
					<path d="m440.9 460.9-4.8 1.8-4.3-1.8-4.4-6.5s-2.5-8.8-1.3-11.3c1.3-2.5 2.7-1.1 2.7-1.1s-0.3-5.2 7.4-5.2 14.3 3.5 15.6 2.2 2.9 1.5 0.2 4.3l-4.3 4.3-6.8 13.3z" fill="#504F4D"/>
					<polygon points="441 458.7 436 461.3 438.5 465.1 442.4 462.8" fill="#FFD391"/>
					<path d="m438.8 450.3s-1.7-3.4-3.8-1.3 0.3 5.2 1.7 5.2h1.4l2.3 9.1 4.4 1.6-0.1-5s4.7 0.5 6.3-1.1-2.2-14.6-2.2-14.6h-4.8v2.7l-2-0.8v6.3h-1.3l-1.9-2.1z" fill="#FFD391"/>
				
				<path d="m450.6 463.6-2-2.5s-5.4 0.7-9.5 2.9c-4.1 2.3-4.1 4.3-4.1 4.3l1.1 1.1 14.5-5.8z" fill="#29B574"/>
				<path d="m497.2 506.6s2.1-2.4 2.1-5.1-2.1-5.2-2.1-6.7 2.5-2.6 3.6-1.5 6.3 7 3.7 17.4l1 1v1.4s-2.9 1.3-4.9 0.5c-2-0.7-3.4-7-3.4-7z" fill="#423E3D"/>
				<path d="m466.4 493 6.2-3.5 30 16.1s2.4 7-2.9 9.4c-2.9 0-24.1-5.9-24.1-5.9s-3.2 19.9-10.5 18.8c-7.2-1.1-11-10.8-11-10.8l12.3-24.1z" fill="#6E492D"/>
				<path d="m513.5 480s2.1-2.4 2.1-5.1-2.1-5.2-2.1-6.7 2.5-2.6 3.6-1.5 6.3 7 3.7 17.4l1 1v1.4s-2.9 1.3-4.9 0.5c-1.9-0.7-3.4-7-3.4-7z" fill="#5A4F4C"/>
				<path d="m474.4 498.7 18.2-21.7h22.5s4 4.3 4 6.4-1.5 3.6-1.5 3.6l-18.1 3.3s-3.1 21.8-11.2 30c-8.2 8.2-23 10.7-29.2 4.6-6.1-6.1 15.3-26.2 15.3-26.2z" fill="#8A5E3C"/>
				<path d="m427.3 473 32.9-15.8 21.2-0.8 2.7-16.1s3.1-4.6 6.4-4.6c3.4 0 4.6 4.3 4.6 4.3s-4 20.1-4 22-22 5.9-22 5.9 7.8 26.8 12.6 29.2l8 4s-1.1 14.5-8.6 18.5-6.6 3.1-6.6 3.1l-7-7 4.4 8.7s-6.2 2.4-11.3 2.4-8-3.8-8-3.8-9.9-12.3-15.3-20.6-9.1-12.3-9.1-12.3l-7.9 12.5s-6.8 7.9-7.9 7.9c-1.1-15 7.5-28.1 7.5-28.1l7.4-9.4z" fill="#EEEFE9"/>
			
			
				<path d="m624.4 43.8s-3.4-3.5 0.3-5.8 10.1 0.8 8.4 5c-1.8 4.2-5.5 4.2-5.5 4.2l-3.2-3.4z" fill="#514F4C"/>
				<path d="m629.6 49.3s0.3-3.9-1.8-5-4.8-1.9-5.8-0.8 0.3 2.1 0.3 2.1l7.3 3.7z" fill="#FBBA64"/>
				<path d="m612.2 62.2s-3.6-1.9-5.8-5.8c-2.1-3.9 1.1-11.6 11.4-12.7s27.2 13.3 7.5 26.6c-19.8 13.3-13.1-8.1-13.1-8.1z" fill="#514F4C"/>
				
					<rect x="617.4" y="160.2" width="6.8" height="38.2" fill="#FFD391"/>
					<rect x="622.6" y="199.2" width="1.8" height="1.9" fill="#369FB0"/>
					<path d="m609.4 202.9s1.8-1.6 4.9-2.3 3.1-2.2 3.1-2.2h6.8v2.1l-3.7 3.1-3.9 0.1-7.2-0.8z" fill="#FFD391"/>
					<path d="m610.6 202.1s4.3 0.1 7.7 0.1 6.2-2.7 6.2-2.7v6.2h-2.6v-1.7s-2.1 1.7-4.9 1.7h-10.3s0.9-3.6 3.9-3.6z" fill="#75B649"/>
				
				
					<rect x="634.7" y="166.1" width="6.8" height="38.2" fill="#FFD391"/>
					<rect x="640" y="205.2" width="1.8" height="1.9" fill="#369FB0"/>
					<path d="m626.8 208.9s1.8-1.6 4.9-2.3 3.1-2.2 3.1-2.2h6.8v2.1l-3.7 3.1-3.9 0.1-7.2-0.8z" fill="#FFD391"/>
					<path d="m627.9 208s4.3 0.1 7.7 0.1 6.2-2.7 6.2-2.7v6.2h-2.6v-1.7s-2.1 1.7-4.9 1.7h-10.3s1-3.6 3.9-3.6z" fill="#75B649"/>
				
				<path d="m609.9 150.1 1.1 31.1s7.4 1.1 15.6 1.1c8.1 0 23-7.8 23-7.8l-8.5-34.8-31.2 10.4z" fill="#75B649"/>
				<path d="m613 69.7s-11.8 10.1-13.8 15.3-4.2 29.9-2.7 35.3 3.7 6.2 7.2 4.9l3.5-1.2v45.7s4.7 1 6.9 0.5 4.2-0.7 4.2-0.7l3.8-20.6 5.6 20.3s16.8 4.9 20.5-6.2l-7.7-42.2s6.4 2.7 8.1-2.7-5.4-33.8-7.9-40-15.6-10.6-15.6-10.6l-12.1 2.2z" fill="#EEEFE9"/>
				<g fill="#75B649">
					<path d="m618.2 98.9c0 0.3-0.2 0.6-0.6 0.6-0.3 0-0.6-0.2-0.6-0.6 0-0.3 0.2-0.6 0.6-0.6 0.4 0.1 0.6 0.3 0.6 0.6z"/>
					<path d="m618.6 103.1c0 0.3-0.2 0.6-0.6 0.6-0.3 0-0.6-0.2-0.6-0.6 0-0.3 0.2-0.6 0.6-0.6s0.6 0.2 0.6 0.6z"/>
					<path d="m619 107.2c0 0.3-0.2 0.6-0.6 0.6-0.3 0-0.6-0.2-0.6-0.6 0-0.3 0.2-0.6 0.6-0.6 0.3 0 0.6 0.3 0.6 0.6z"/>
					<path d="m619.4 111.3c0 0.3-0.2 0.6-0.6 0.6-0.3 0-0.6-0.2-0.6-0.6 0-0.3 0.2-0.6 0.6-0.6 0.3 0.1 0.6 0.3 0.6 0.6z"/>
					<path d="m619.8 115.4c0 0.3-0.2 0.6-0.6 0.6-0.3 0-0.6-0.2-0.6-0.6 0-0.3 0.2-0.6 0.6-0.6 0.3 0.1 0.6 0.3 0.6 0.6z"/>
					<path d="m620.1 119.6c0 0.3-0.2 0.6-0.6 0.6-0.3 0-0.6-0.2-0.6-0.6 0-0.3 0.2-0.6 0.6-0.6s0.6 0.3 0.6 0.6z"/>
					<path d="m620.5 123.7c0 0.3-0.2 0.6-0.6 0.6-0.3 0-0.6-0.2-0.6-0.6 0-0.3 0.2-0.6 0.6-0.6s0.6 0.3 0.6 0.6z"/>
					<path d="m620.9 127.8c0 0.3-0.2 0.6-0.6 0.6-0.3 0-0.6-0.2-0.6-0.6 0-0.3 0.2-0.6 0.6-0.6 0.4 0.1 0.6 0.3 0.6 0.6z"/>
					<path d="m621.3 132c0 0.3-0.2 0.6-0.6 0.6-0.3 0-0.6-0.2-0.6-0.6 0-0.3 0.2-0.6 0.6-0.6 0.3 0 0.6 0.3 0.6 0.6z"/>
					<path d="m621.7 136.1c0 0.3-0.2 0.6-0.6 0.6-0.3 0-0.6-0.2-0.6-0.6 0-0.3 0.2-0.6 0.6-0.6 0.3 0 0.6 0.3 0.6 0.6z"/>
					<path d="m622 140.2c0 0.3-0.2 0.6-0.6 0.6-0.3 0-0.6-0.2-0.6-0.6 0-0.3 0.2-0.6 0.6-0.6 0.4 0.1 0.6 0.3 0.6 0.6z"/>
					<path d="m622.4 144.3c0 0.3-0.2 0.6-0.6 0.6-0.3 0-0.6-0.2-0.6-0.6 0-0.3 0.2-0.6 0.6-0.6 0.4 0.1 0.6 0.3 0.6 0.6z"/>
				</g>
				<path d="m615.4 169.9c1.6-0.3 2.8-0.5 2.8-0.5l3.8-20.6 0.3 1.2-0.4-1.8-6.5 21.7zm25-49.1s1.3 0.6 3 0.7l-0.1-0.3-6-3.5 7.9 49.7c1.3-1.1 2.4-2.5 3-4.5l-7.8-42.1z" fill="#DFDAD4"/>
				<path d="m640.7 120.9c1.3 0.4 6.4 1.9 7.9-2.8 1.7-5.4-5.4-33.8-7.9-40-0.1-0.2-0.2-0.3-0.2-0.4 1.4 6.3 8.2 37.1 4.9 38.1-3.7 1.1-14.6-13.1-17-12.6-2.5 0.5-3.1 2.7-3.1 2.7 4.2 5.8 12.1 12.4 15.4 15z" fill="#C9C3BD"/>
				<path d="m607.2 125.2-0.2-8.1s-1.7 0.5-4.1 4.2c-1.2 2-2.9 2.9-4.2 3.4 1.3 1.3 2.9 1.3 5 0.5l3.5-1.2v1.3-0.1z" fill="#C9C3BD"/>
				<path d="m623.5 98.6s0.4-1.1 2-1.1 5.4 4.1 4.7 6.2-1.6 2.8-2.8 2.6c-1.3-0.3-3.9-7.7-3.9-7.7z" fill="#75B649"/>
				<path d="m615.7 71.2-4.8 5.4s4.3 12.6 5.2 15.2 1.7 3.9 1.7 3.9 8.6-19.5 9-21.2-2.1-3.8-2.1-3.8l-9 0.5z" fill="#75B649"/>
				<path d="m624 55.1s-3 3.4-9.7 3.2c-6.6-0.2-6.9-3.4-6.9-3.4s-1.5 18.5 9.2 23.2c0 0 8.8-2.1 9.4-10.3s0.6-10.5 0.6-10.5-2.8 0.6-2.6-2.2z" fill="#FFD391"/>
				<path d="m625.7 61.3s1.1-3.4 3.6-2.6c2.6 0.9 1.3 7.3-1.3 7.9s-3-0.4-3-0.4l0.7-4.9z" fill="#FFD391"/>
				<path d="m622.2 100.9s-2-5.6-2.5-5.8-1.4-0.1-1.1 1.5c0.2 1.6 2.3 5.1 2.3 5.1l1.3-0.8z" fill="#514F4C"/>
				<path d="m627.8 100.3s-1.9-2.5-5.1-3-4.3 5.3-3.7 7 4.7 1.1 4.7 1.1 1.4 0.6 3.1 0.6c1.7 0.1 3.7-2.9 1-5.7z" fill="#FFD391"/>
				<polygon points="601 99.7 607.8 122.1 623.4 122.3 621 98.7 601.4 98.7" fill="#A87D50"/>
				<path d="m602.9 115.6s1.1-3 1.7-3.6 0.7 1.5 0.7 1.5 4-1.5 5.4-1.6c1.5-0.1 3.6 5.1 2.5 7-1.1 2-7.2 1.6-7.2 1.6l-3.1-4.9z" fill="#FFD391"/>
				<path d="m621.9 104.5 1.5-0.7s1.7 4.3 0.9 4.6c-1 0.2-2.4-3.9-2.4-3.9z" fill="#514F4C"/>
				<path d="m601.5 116.1s0.5-0.5 1.4-1 4.1 5.8 4.1 6.5-1.4 0.6-1.4 0.6-2.5-1.6-4.1-6.1z" fill="#75B649"/>
				<path d="m628.7 97.2 6.4 2.5s-2-13.7-2-16 0.5-3.7 0.5-3.7-1 0.5-1 4.8 0.9 12.1 0.9 12.1l-2-0.9 0.6 0.9-3.4 0.3z" fill="#C9C3BD"/>
			
		
	</g>

<g transform="matrix(.85 .36793 0 .85 63.053 127.37)" fill="#fff" filter="url(#filter1785)" opacity=".9" aria-label="EM MANUTENÇÃO"><path d="m329.8 664.53h-12.109v-19.44h12.109v3.3854h-8.2682v4.1927h7.487v3.3854h-7.487v5.0912h8.2682z"/><path d="m332.68 645.09h4.5833l2.3177 8.5287 2.3047-8.5287h4.6094v19.44h-3.3073v-15.573l-2.0573 8.5026h-3.0599l-2.0833-8.5026v15.573h-3.3073z"/><path d="m364.79 645.09h4.5833l2.3177 8.5287 2.3047-8.5287h4.6094v19.44h-3.3073v-15.573l-2.0573 8.5026h-3.0599l-2.0833-8.5026v15.573h-3.3073z"/><path d="m387.74 648.61-1.8099 7.9557h3.6328zm-2.3438-3.5156h4.7005l5.2474 19.44h-3.8412l-1.1979-4.8047h-5.1432l-1.1719 4.8047h-3.8412z"/><path d="m397.32 645.09h4.1276l5.4167 14.128v-14.128h3.3854v19.44h-4.1016l-5.4427-14.128v14.128h-3.3854z"/><path d="m413.21 657.36v-12.266h3.8412v13.229q0 1.4583 0.74218 2.2917 0.74219 0.82031 2.0573 0.82031 1.3151 0 2.0573-0.82031 0.74219-0.83334 0.74219-2.2917v-13.229h3.8412v12.266q0 3.9583-1.5755 5.7552t-5.0651 1.7969q-3.4766 0-5.0651-1.7969-1.5755-1.7969-1.5755-5.7552z"/><path d="m437.83 664.53h-3.8412v-16.081h-4.9349v-3.3594h13.711v3.3594h-4.9349z"/><path d="m458.24 664.53h-12.109v-19.44h12.109v3.3854h-8.2682v4.1927h7.487v3.3854h-7.487v5.0912h8.2682z"/><path d="m461.54 645.09h4.1276l5.4167 14.128v-14.128h3.3854v19.44h-4.1016l-5.4427-14.128v14.128h-3.3854z"/><path d="m486.78 664.53q0.74219 0.80729 1.0938 1.4974 0.36458 0.6901 0.36458 1.3021 0 1.237-0.80729 1.8229-0.79427 0.59896-2.4479 0.59896-0.625 0-1.2891-0.0911-0.65105-0.0781-1.3412-0.2474v-2.0312q0.58594 0.22135 1.1328 0.33854 0.54688 0.11719 1.0156 0.11719 0.75521 0 1.1719-0.29948 0.42969-0.29948 0.42969-0.82032 0-0.33854-0.27344-0.87239-0.27343-0.53386-0.87239-1.3151zm3.3464-0.5599q-0.91146 0.46876-1.9141 0.70313-1.0026 0.23438-2.1094 0.23438-3.9323 0-6.0026-2.5912-2.0703-2.5912-2.0703-7.487 0-4.9089 2.0703-7.5 2.0703-2.5912 6.0026-2.5912 1.1068 0 2.1224 0.23437 1.0156 0.23438 1.901 0.70313v4.2708q-0.98959-0.91146-1.9271-1.3281-0.92448-0.42969-1.9141-0.42969-2.1094 0-3.1901 1.6797-1.0677 1.6667-1.0677 4.961 0 3.2812 1.0677 4.9609 1.0807 1.6667 3.1901 1.6667 0.98959 0 1.9141-0.41667 0.9375-0.42968 1.9271-1.3411z"/><path d="m500.12 648.61-1.8099 7.9557h3.6328zm-2.3438-3.5156h4.7005l5.2474 19.44h-3.8412l-1.1979-4.8047h-5.1432l-1.1719 4.8047h-3.8412zm2.3698-2.487-0.70312-0.44271q-0.0651-0.0391-0.15625-0.0911-0.58594-0.33855-0.95052-0.33855-0.40365 0-0.66407 0.39063-0.26041 0.39062-0.26041 1.0417v0.0781h-1.8229v-0.39062q0-1.3802 0.70312-2.2266 0.71615-0.84635 1.862-0.84635 0.46876 0 0.95053 0.16927 0.49479 0.15625 0.98958 0.46875l0.78125 0.50781q0.27344 0.18229 0.52084 0.28646 0.26041 0.0911 0.46875 0.0911 0.46875 0 0.71614-0.39063 0.26042-0.39063 0.26042-1.1328h1.8229q0 0.0651-0.013 0.19531t-0.013 0.20833q0 1.3802-0.70313 2.2266-0.6901 0.83333-1.8359 0.83333-0.48177 0-0.95052-0.14323-0.45573-0.14323-1.0026-0.49479z"/><path d="m516.18 648.19q-1.4714 0-2.1484 1.5755-0.67709 1.5625-0.67709 5.0651 0 3.4896 0.67709 5.0651 0.67708 1.5625 2.1484 1.5625 1.4844 0 2.1615-1.5625 0.67708-1.5755 0.67708-5.0651 0-3.5026-0.67708-5.0651-0.67709-1.5755-2.1615-1.5755zm-6.8229 6.6406q0-4.987 1.7188-7.5391 1.7318-2.5521 5.1042-2.5521 3.3854 0 5.1042 2.5521 1.7318 2.5521 1.7318 7.5391 0 4.974-1.7318 7.526-1.7188 2.5521-5.1042 2.5521-3.3724 0-5.1042-2.5521-1.7188-2.5521-1.7188-7.526z"/></g><g transform="matrix(.85 -.37408 0 .85 147.39 127.55)" fill="#fff" filter="url(#filter1789)" opacity=".9" aria-label="EM MANUTENÇÃO"><path d="m892.07 1278.2h-12.109v-19.44h12.109v3.3854h-8.2682v4.1927h7.487v3.3855h-7.487v5.0911h8.2682z"/><path d="m894.95 1258.7h4.5833l2.3177 8.5287 2.3047-8.5287h4.6094v19.44h-3.3073v-15.573l-2.0573 8.5026h-3.0599l-2.0833-8.5026v15.573h-3.3073z"/><path d="m927.06 1258.7h4.5833l2.3177 8.5287 2.3047-8.5287h4.6094v19.44h-3.3073v-15.573l-2.0573 8.5026h-3.0599l-2.0833-8.5026v15.573h-3.3073z"/><path d="m950.01 1262.3-1.8099 7.9558h3.6328zm-2.3438-3.5156h4.7005l5.2474 19.44h-3.8412l-1.1979-4.8047h-5.1432l-1.1719 4.8047h-3.8412z"/><path d="m959.6 1258.7h4.1276l5.4167 14.128v-14.128h3.3854v19.44h-4.1016l-5.4427-14.128v14.128h-3.3854z"/><path d="m975.48 1271v-12.266h3.8412v13.229q0 1.4583 0.74218 2.2917 0.74219 0.8203 2.0573 0.8203 1.3151 0 2.0573-0.8203 0.74219-0.8334 0.74219-2.2917v-13.229h3.8412v12.266q0 3.9584-1.5755 5.7553-1.5755 1.7968-5.0651 1.7968-3.4766 0-5.0651-1.7968-1.5755-1.7969-1.5755-5.7553z"/><path d="m1000.1 1278.2h-3.8411v-16.081h-4.9349v-3.3594h13.711v3.3594h-4.9349z"/><path d="m1020.5 1278.2h-12.109v-19.44h12.109v3.3854h-8.2682v4.1927h7.4869v3.3855h-7.4869v5.0911h8.2682z"/><path d="m1023.8 1258.7h4.1276l5.4167 14.128v-14.128h3.3854v19.44h-4.1016l-5.4427-14.128v14.128h-3.3854z"/><path d="m1049 1278.2q0.7422 0.8073 1.0938 1.4974 0.3645 0.6901 0.3645 1.3021 0 1.237-0.8073 1.8229-0.7942 0.599-2.4479 0.599-0.625 0-1.289-0.091-0.6511-0.078-1.3412-0.2474v-2.0313q0.586 0.2214 1.1328 0.3385 0.5469 0.1172 1.0157 0.1172 0.7552 0 1.1718-0.2994 0.4297-0.2995 0.4297-0.8204 0-0.3385-0.2734-0.8724-0.2735-0.5338-0.8724-1.3151zm3.3464-0.5599q-0.9115 0.4688-1.9141 0.7032-1.0026 0.2343-2.1094 0.2343-3.9323 0-6.0026-2.5911-2.0703-2.5912-2.0703-7.487 0-4.9089 2.0703-7.5 2.0703-2.5912 6.0026-2.5912 1.1068 0 2.1224 0.2344t1.9011 0.7031v4.2709q-0.9896-0.9115-1.9271-1.3281-0.9245-0.4297-1.9141-0.4297-2.1094 0-3.1901 1.6797-1.0677 1.6666-1.0677 4.9609 0 3.2813 1.0677 4.9609 1.0807 1.6667 3.1901 1.6667 0.9896 0 1.9141-0.4167 0.9375-0.4296 1.9271-1.3411z"/><path d="m1062.4 1262.3-1.8099 7.9558h3.6328zm-2.3438-3.5156h4.7005l5.2474 19.44h-3.8411l-1.1979-4.8047h-5.1433l-1.1718 4.8047h-3.8412zm2.3698-2.487-0.7031-0.4427q-0.065-0.039-0.1563-0.091-0.5859-0.3386-0.9505-0.3386-0.4036 0-0.664 0.3907-0.2605 0.3906-0.2605 1.0416v0.078h-1.8229v-0.3906q0-1.3802 0.7031-2.2265 0.7162-0.8464 1.862-0.8464 0.4688 0 0.9505 0.1693 0.4948 0.1562 0.9896 0.4687l0.7813 0.5078q0.2734 0.1823 0.5208 0.2865 0.2604 0.091 0.4688 0.091 0.4687 0 0.7161-0.3906 0.2604-0.3906 0.2604-1.1328h1.8229q0 0.065-0.013 0.1953-0.013 0.1302-0.013 0.2083 0 1.3803-0.7031 2.2266-0.6901 0.8333-1.836 0.8333-0.4817 0-0.9505-0.1432-0.4557-0.1432-1.0026-0.4948z"/><path d="m1078.5 1261.8q-1.4714 0-2.1485 1.5755-0.677 1.5625-0.677 5.0651 0 3.4896 0.677 5.0651 0.6771 1.5625 2.1485 1.5625 1.4844 0 2.1614-1.5625 0.6771-1.5755 0.6771-5.0651 0-3.5026-0.6771-5.0651-0.677-1.5755-2.1614-1.5755zm-6.823 6.6406q0-4.987 1.7188-7.5391 1.7318-2.5521 5.1042-2.5521 3.3854 0 5.1041 2.5521 1.7318 2.5521 1.7318 7.5391 0 4.974-1.7318 7.5261-1.7187 2.552-5.1041 2.552-3.3724 0-5.1042-2.552-1.7188-2.5521-1.7188-7.5261z"/></g></svg>
